<svg width="90" height="72" viewBox="0 0 90 72" fill="none" xmlns="http://www.w3.org/2000/svg">
<mask id="mask0_1_136" style="mask-type:luminance" maskUnits="userSpaceOnUse" x="0" y="0" width="90" height="72">
<path d="M0.815613 0.912338H89.3901V71.6864H0.815613V0.912338Z" fill="white"/>
</mask>
<g mask="url(#mask0_1_136)">
<path d="M31.6364 0.917099C29.6602 0.917099 27.9149 2.15025 26.7875 4.01613C25.8421 3.4024 24.893 2.95398 23.9431 2.71457C22.7147 2.40866 21.4774 2.42671 20.2208 2.80673C17.7121 3.56201 15.2086 5.60554 12.1673 8.82617C8.72282 12.4772 1.3793 20.3131 1.3793 20.3131C0.856461 20.8717 0.789621 21.8655 1.22111 22.5276C1.6578 23.1965 2.43018 23.2886 2.95302 22.7309C2.95302 22.7309 10.301 14.8884 13.7358 11.2497C16.6523 8.15734 18.9019 6.43302 20.7867 5.85635C22.4652 5.35378 23.9334 5.67869 25.7032 6.86339C25.5785 7.48282 25.4968 8.10889 25.4968 8.77107V40.8995L22.1637 42.9117C21.7604 43.1454 21.4819 43.6422 21.444 44.2066C21.4054 44.7709 21.6067 45.3172 21.9713 45.6421C22.3412 45.9613 22.8157 46.004 23.2138 45.7523L44.9139 32.6522L44.3049 31.8732C44.6792 32.352 45.2399 32.4688 45.7152 32.18C46.746 31.5359 47.9068 30.7626 48.8277 30.7626C51.5526 30.7626 53.7397 33.5604 53.7397 37.0461C53.7397 39.0336 53.0104 40.7703 51.8742 41.9303C51.3699 42.4452 51.2644 43.3724 51.6291 44.0527L50.9481 42.9183L30.7682 62.8112C27.1618 66.3634 22.7392 68.29 18.1867 68.29H3.39416C2.95302 68.2843 2.54009 68.5788 2.31506 69.0691C2.09449 69.5602 2.09449 70.1616 2.31506 70.6528C2.54009 71.143 2.95302 71.4375 3.39416 71.4318H18.1867C22.6189 71.4318 26.9405 69.793 30.6487 66.75C31.8859 68.7442 33.7954 70.0324 35.9342 70.0324C38.0353 70.0324 39.6327 68.3024 40.7408 66.7871C40.827 66.6645 40.798 66.6645 40.8849 66.541C41.9543 69.5051 44.2759 71.6038 46.9859 71.6038C49.0728 71.6038 50.6941 70.2595 51.7249 68.6093C52.2143 67.8236 52.3435 66.9951 52.651 66.1553C53.5719 67.3571 55.1018 68.462 57.3803 68.462C59.2028 68.462 60.8389 67.5661 62.0814 66.0869C63.3232 64.6086 64.1965 62.5898 64.7387 60.2708L64.7483 60.2461L66.0428 54.3245H83.2104C86.5873 54.3245 89.35 50.7903 89.35 46.4705V8.77107C89.35 4.45124 86.5873 0.917099 83.2104 0.917099H31.6364ZM31.6364 4.05888H83.2104C85.2587 4.05888 86.894 6.15086 86.894 8.77107V11.9128H27.9528V8.77107C27.9528 6.15086 29.5889 4.05888 31.6364 4.05888ZM27.9528 18.1964H86.894V46.4705C86.894 49.0907 85.2587 51.1827 83.2104 51.1827H46.5878L53.4182 44.4517C53.6053 44.2674 53.7494 44.0166 53.8259 43.7277C55.2221 42.0224 56.1958 39.7214 56.1958 37.0461C56.1958 31.8608 52.8812 27.6208 48.8277 27.6208C47.0342 27.6208 45.5949 28.7504 44.7074 29.3081C44.6881 29.3204 44.6695 29.3328 44.6502 29.3394L27.9528 39.4203V18.1964ZM34.0924 21.3382C33.4166 21.3382 32.8648 22.0431 32.8648 22.9086C32.8648 23.7741 33.4166 24.479 34.0924 24.479C34.769 24.479 35.3208 23.7741 35.3208 22.9086C35.3208 22.0431 34.769 21.3382 34.0924 21.3382ZM39.0044 21.3382C38.3279 21.3382 37.7768 22.0431 37.7768 22.9086C37.7768 23.7741 38.3279 24.479 39.0044 24.479C39.681 24.479 40.2321 23.7741 40.2321 22.9086C40.2321 22.0431 39.681 21.3382 39.0044 21.3382ZM43.9165 21.3382C43.2399 21.3382 42.6881 22.0431 42.6881 22.9086C42.6881 23.7741 43.2399 24.479 43.9165 24.479C44.5923 24.479 45.1441 23.7741 45.1441 22.9086C45.1441 22.0431 44.5923 21.3382 43.9165 21.3382ZM48.8277 21.3382C48.1519 21.3382 47.6001 22.0431 47.6001 22.9086C47.6001 23.7741 48.1519 24.479 48.8277 24.479C49.5043 24.479 50.0561 23.7741 50.0561 22.9086C50.0561 22.0431 49.5043 21.3382 48.8277 21.3382ZM45.1441 35.4748C44.4675 35.4748 43.9165 36.1806 43.9165 37.0461C43.9165 37.9107 44.4675 38.6165 45.1441 38.6165C45.8207 38.6165 46.3717 37.9107 46.3717 37.0461C46.3717 36.1806 45.8207 35.4748 45.1441 35.4748ZM47.6001 40.1869C46.9235 40.1869 46.3717 40.8928 46.3717 41.7583C46.3717 42.6238 46.9235 43.3287 47.6001 43.3287C48.2767 43.3287 48.8277 42.6238 48.8277 41.7583C48.8277 40.8928 48.2767 40.1869 47.6001 40.1869ZM43.3981 54.3245H63.491L62.3881 59.3806C61.9418 61.2769 61.2467 62.7922 60.4067 63.7926C59.5675 64.7929 58.608 65.3202 57.3803 65.3202C55.5816 65.3202 54.7661 64.5659 54.2819 63.8724C53.7969 63.1855 53.7108 62.6269 53.7108 62.6269L51.3365 62.5224C51.0052 63.9275 50.5114 65.5169 49.8066 66.6455C49.101 67.7751 48.3101 68.462 46.9859 68.462C44.5975 68.462 42.6881 66.0194 42.6881 62.9641L40.3955 62.1784C40.3955 62.1784 39.834 63.4116 38.9421 64.639C38.0501 65.8722 36.8841 66.8916 35.9342 66.8916C34.6056 66.8916 33.4352 66.124 32.6487 64.9212L43.3981 54.3245ZM42.6881 55.8958C42.0123 55.8958 41.4604 56.6008 41.4604 57.4663C41.4604 58.3317 42.0123 59.0367 42.6881 59.0367C43.3647 59.0367 43.9165 58.3317 43.9165 57.4663C43.9165 56.6008 43.3647 55.8958 42.6881 55.8958ZM53.7397 55.8958C53.0632 55.8958 52.5121 56.6008 52.5121 57.4663C52.5121 58.3317 53.0632 59.0367 53.7397 59.0367C54.4163 59.0367 54.9674 58.3317 54.9674 57.4663C54.9674 56.6008 54.4163 55.8958 53.7397 55.8958Z" fill="#667538"/>
</g>
</svg>
