<svg width="16" height="16" viewBox="0 0 16 16" fill="none" xmlns="http://www.w3.org/2000/svg">
<mask id="mask0_0_9" style="mask-type:alpha" maskUnits="userSpaceOnUse" x="0" y="0" width="16" height="16">
<path fill-rule="evenodd" clip-rule="evenodd" d="M6.42698 0.333374C3.06415 0.333374 0.333313 3.03777 0.333313 6.3796C0.333313 9.72143 3.06415 12.4258 6.42698 12.4258C7.68073 12.4258 8.84697 12.0498 9.81626 11.405L13.7917 15.3477C14.2206 15.7731 14.9149 15.7731 15.3438 15.3477C15.7743 14.9207 15.7743 14.2274 15.3438 13.8005L11.3939 9.88316C12.1031 8.89491 12.5207 7.68535 12.5207 6.3796C12.5207 3.03777 9.78982 0.333374 6.42698 0.333374ZM2.53115 6.3796C2.53115 4.24982 4.27277 2.5186 6.42698 2.5186C8.5812 2.5186 10.3228 4.24982 10.3228 6.3796C10.3228 8.50938 8.5812 10.2406 6.42698 10.2406C4.27277 10.2406 2.53115 8.50938 2.53115 6.3796Z" fill="#006FFD"/>
</mask>
<g mask="url(#mask0_0_9)">
<rect width="16" height="16" fill="#2F3036"/>
</g>
</svg>
