<svg width="113" height="99" viewBox="0 0 113 99" fill="none" xmlns="http://www.w3.org/2000/svg">
<mask id="mask0_1_78" style="mask-type:luminance" maskUnits="userSpaceOnUse" x="14" y="7" width="80" height="83">
<path d="M14.1495 7.00677H93.8348V89.1H14.1495V7.00677Z" fill="white"/>
</mask>
<g mask="url(#mask0_1_78)">
<path d="M54.0156 89.0995C59.1926 89.0995 63.386 85.4262 63.386 80.8901H44.6458C44.6458 85.4262 48.8386 89.0995 54.0156 89.0995ZM84.4688 64.4717V41.896C84.4688 29.2741 74.4664 18.7458 61.0432 15.9548V13.1637C61.0432 9.75677 57.9044 7.00677 54.0156 7.00677C50.1269 7.00677 46.988 9.75677 46.988 13.1637V15.9548C33.5654 18.7458 23.5624 29.2741 23.5624 41.896V64.4717L14.1926 72.6812V76.7856H93.8392V72.6812L84.4688 64.4717Z" fill="#FEC011"/>
</g>
<mask id="mask1_1_78" style="mask-type:luminance" maskUnits="userSpaceOnUse" x="60" y="49" width="39" height="35">
<path d="M60.277 49.5H98.845V83.2892H60.277V49.5Z" fill="white"/>
</mask>
<g mask="url(#mask1_1_78)">
<path d="M98.8499 66.3967C98.8499 75.7267 90.2131 83.2935 79.5637 83.2935C68.9144 83.2935 60.277 75.7267 60.277 66.3967C60.277 57.0668 68.9144 49.5 79.5637 49.5C90.2131 49.5 98.8499 57.0668 98.8499 66.3967Z" fill="white"/>
</g>
<mask id="mask2_1_78" style="mask-type:luminance" maskUnits="userSpaceOnUse" x="64" y="52" width="31" height="28">
<path d="M64.248 52.9957H94.8473V79.8039H64.248V52.9957Z" fill="white"/>
</mask>
<g mask="url(#mask2_1_78)">
<path fill-rule="evenodd" clip-rule="evenodd" d="M94.8321 66.401C94.8321 62.6995 93.1215 59.348 90.3559 56.9221C87.5903 54.4958 83.7696 52.9957 79.5496 52.9957C75.3295 52.9957 71.5084 54.4958 68.7428 56.9221C65.9777 59.348 64.2671 62.6995 64.2671 66.401C64.2671 70.103 65.9777 73.4546 68.7428 75.8804C71.5084 78.3062 75.3295 79.8068 79.5496 79.8068C83.7696 79.8068 87.5903 78.3062 90.3559 75.8804C93.1215 73.4546 94.8321 70.103 94.8321 66.401Z" fill="#43A047"/>
</g>
<path fill-rule="evenodd" clip-rule="evenodd" d="M77.2248 75.3132H82.2999V68.814H89.709V63.9881H82.2999V57.4888H76.7987V63.9881H69.3896V68.814H76.7987V75.3132H77.2248Z" fill="white"/>
</svg>
