<svg width="29" height="39" viewBox="0 0 29 39" fill="none" xmlns="http://www.w3.org/2000/svg">
<path d="M10.2566 0.119831C2.29201 1.15505 2.68686 8.14763 2.67674 9.49149C2.66324 10.8321 3.40232 21.8113 4.71175 24.2225C5.77481 26.1804 10.4489 25.1291 10.4489 25.1291L14.1646 24.5665L17.0636 24.1357C17.0636 24.1357 18.6396 23.8753 19.3044 22.6182C20.9851 19.4483 21.083 11.9799 20.2393 6.85842C20.2156 6.73304 19.2606 -1.05042 10.2566 0.119831Z" fill="#312D2D"/>
<path d="M10.2566 0.119831C2.29201 1.15505 2.68686 8.14763 2.67674 9.49149C2.66324 10.8321 3.40232 21.8113 4.71175 24.2225C5.77481 26.1804 10.4489 25.1291 10.4489 25.1291L14.1646 24.5665L17.0636 24.1357C17.0636 24.1357 18.6396 23.8753 19.3044 22.6182C20.9851 19.4483 21.083 11.9799 20.2393 6.85842C20.2156 6.73304 19.2606 -1.05042 10.2566 0.119831Z" fill="url(#paint0_radial_67_71)"/>
<path d="M28.6392 32.7905C27.6402 29.238 26.4827 26.5952 24.0595 23.7339C23.064 22.5572 21.164 21.0173 18.4641 20.5736C16.7733 20.2971 11.134 20.3389 9.47698 20.4707C4.32364 20.8854 2.67336 22.4608 1.1412 27.7366C0.456109 30.0931 0.0173835 32.3372 0.000509412 34.1408C-0.0264891 37.1275 1.0197 38.047 3.13571 38.4264C4.47214 38.6675 8.39029 38.6 10.5974 37.8895C12.241 37.3622 15.528 37.6612 16.9151 38.7929C17.1614 38.9954 17.617 39.0115 17.9815 38.9954C17.9815 38.9954 19.5407 38.8443 21.5926 38.6353C23.3981 38.4489 25.3791 38.3428 27.1036 37.7962C29.898 36.9153 28.8349 33.4882 28.6392 32.7905ZM21.4407 34.0829C21.8693 32.4883 21.6702 29.4083 21.6702 29.4083C21.8355 30.5818 24.0123 33.5396 24.0123 33.5396L21.4407 34.0829Z" fill="url(#paint1_linear_67_71)"/>
<path d="M16.9556 20.4385L15.6833 20.3677C15.6833 20.3581 15.447 18.0079 15.447 18.0079L13.0475 18.368L11.0564 18.5416L10.9416 20.3452L9.47698 20.4706C9.01463 21.2744 9.75709 23.3898 8.67715 25.3992C7.95494 26.743 5.90643 27.6786 6.10217 29.3375C6.56114 33.2373 10.4219 34.0089 13.6921 33.8642C16.9623 33.7163 18.4641 33.0637 18.4641 33.0637C15.4673 28.0001 16.9556 20.4385 16.9556 20.4385Z" fill="url(#paint2_linear_67_71)"/>
<path d="M12.6493 31.2633C12.5649 31.2633 12.4806 31.2376 12.4097 31.1893C12.2477 31.0736 12.2241 30.8678 12.3591 30.7264C13.4829 29.5368 13.4829 27.4182 12.6324 26.2608C12.4806 26.055 12.3084 25.8557 12.4299 25.7592C12.5481 25.666 12.71 25.7367 12.845 25.875C14.0903 27.1481 14.6371 29.5561 13.1083 31.0961C13.0273 31.1733 12.7573 31.2633 12.6493 31.2633Z" fill="#EDBD82"/>
<path d="M16.2232 35.7161L13.1117 36.4523L9.23062 38.0855C9.23062 38.0855 11.053 38.6095 12.0958 38.7928C14.222 39.1625 16.9252 38.7992 16.9252 38.7992C16.9252 38.7992 16.3481 37.8412 16.23 37.0856C16.1085 36.3301 16.2232 35.7161 16.2232 35.7161Z" fill="url(#paint3_linear_67_71)"/>
<path d="M11.5289 38.6771L16.2468 37.1982C16.2401 37.1596 16.23 37.121 16.2232 37.0824C16.1051 36.3269 16.2198 35.7161 16.2198 35.7161L13.1083 36.4523L9.22723 38.0855C9.22723 38.0855 10.5029 38.452 11.5289 38.6771Z" fill="url(#paint4_linear_67_71)"/>
<path d="M3.35508 33.5267C4.10766 33.4367 4.90411 33.5299 5.56558 33.6489C6.15955 33.7421 7.08087 33.9961 8.06631 34.1086C8.29918 34.1247 8.53204 34.1311 8.75478 34.1311C9.81109 33.8579 10.0575 33.1795 10.4084 32.0703C10.7864 30.8808 10.6852 29.7202 10.0743 28.7621C9.15975 27.3379 7.57022 26.4988 6.11567 26.6756C5.58245 26.7399 4.64763 26.8621 4.16503 27.1803C2.96697 27.9712 2.3865 29.09 2.16377 30.1156C2.08277 30.4853 1.73517 32.5269 3.35508 33.5267Z" fill="#C5E1A5"/>
<path d="M3.70944 26.7816C2.85561 27.4214 2.36289 28.3409 2.51138 29.0836C2.76112 28.6656 2.92986 28.0773 3.9423 27.4986C6.16968 26.219 8.59279 27.1674 9.50737 29.3054C10.5299 31.6973 8.9269 34.1439 8.9269 34.1439C9.97984 33.9575 10.2836 33.4656 10.2836 33.4656C11.8697 31.8484 12.0722 29.6558 10.4557 27.6433C8.8459 25.6307 6.02794 25.0455 3.70944 26.7816Z" fill="#FAFAFA"/>
<path d="M9.93934 33.517C10.3983 32.9512 11.0024 31.5655 11.5424 30.736C12.4198 29.389 14.2861 28.5659 16.4392 29.0964C19.0108 29.7298 19.895 31.035 20.3608 31.3212C20.8265 31.6073 22.821 30.7457 24.1878 33.7581C24.1878 33.7581 22.5814 33.8321 21.8659 34.086C20.6915 34.504 18.7813 35.5103 17.5327 35.6132C14.3738 35.8736 11.5761 34.0346 11.5761 34.0346C10.6244 33.9896 8.93027 34.1375 8.93027 34.1375C8.93027 34.1375 9.48036 34.0828 9.93934 33.517Z" fill="#BDBDBD"/>
<path d="M5.56896 32.4304C7.19225 32.5107 8.86616 31.498 9.80435 30.2185C10.0912 30.3374 10.4321 30.2892 10.7122 30.1606C10.9923 30.0288 11.2251 29.8198 11.4479 29.6108C11.6639 30.2956 11.5458 30.7425 11.5458 30.7425C11.7685 31.109 12.2545 31.138 12.7033 30.8711C13.169 30.5946 13.7866 31.916 13.7866 31.916C14.7687 31.5012 15.8858 30.63 16.1355 30.4725C16.3852 30.3149 17.0804 30.6364 16.9725 30.9643C16.8442 31.363 16.7058 31.5238 16.5978 31.9288C17.0636 31.7134 17.7622 31.3148 17.9545 31.2055C18.4405 30.929 19.0446 31.1508 18.9737 31.9288C18.9568 32.0992 18.7172 33.4656 18.67 33.4495C19.9794 33.9093 22.254 33.1184 23.2091 33.845C22.9391 33.8771 21.7714 34.0797 21.056 34.4269C17.9916 35.909 17.2391 35.6036 16.5945 35.7386C15.8081 35.9058 11.0463 34.533 10.1115 34.2918C9.423 34.1118 8.55905 34.1986 7.83009 34.1279C6.24393 33.9768 4.81975 33.6006 2.91974 33.9896C2.66662 34.0411 1.45844 34.2822 1.41119 34.3947C1.78917 33.4849 1.42807 32.7744 1.58331 31.8067C1.72505 30.9258 2.1199 30.6814 2.09291 30.5818C2.09966 30.585 2.30552 32.2664 5.56896 32.4304Z" fill="url(#paint5_linear_67_71)"/>
<path d="M11.4985 34.1921C11.5255 32.6071 12.5514 32.4174 12.7809 30.9868C12.7944 30.8935 13.5538 30.4724 13.655 31.4079C13.6955 31.8002 13.5909 32.2117 13.4154 32.5685C13.3344 32.7325 13.3749 32.9511 14.0802 32.6361C15.1264 32.1699 15.5955 31.3501 16.1321 30.7424C16.2739 30.5817 16.5472 30.5399 16.6957 30.6042C16.9286 30.7039 17.0534 30.8839 16.8948 31.3276C16.5877 32.186 15.6934 32.9929 15.6934 32.9929C16.4629 32.9286 17.2559 32.2631 17.8263 31.768C18.0659 31.559 18.238 31.3147 18.5384 31.3501C18.886 31.3887 18.94 31.9288 18.7476 32.2599C18.6396 32.4528 18.6126 32.5235 18.6126 32.5235C18.6126 32.5235 18.9636 32.9608 18.8556 33.2951C18.778 33.5395 18.5586 33.8481 18.5586 33.8481C18.3764 34.4975 17.9478 34.8962 16.7295 35.6839C14.9611 36.8316 12.3422 37.2206 12.3422 37.2206C12.4705 35.3752 11.4985 34.1921 11.4985 34.1921Z" fill="url(#paint6_linear_67_71)"/>
<path d="M18.859 31.736C18.7341 32.0864 18.4979 32.469 18.3021 32.723C17.6272 33.5974 16.3819 34.0057 16.4426 34.1279C16.5034 34.2501 17.8567 33.845 18.3966 33.067C18.994 32.2053 18.859 31.736 18.859 31.736Z" fill="#EDBD82"/>
<path d="M18.8286 32.8644C18.8286 32.8644 18.8994 33.4559 17.9579 34.2597C17.536 34.623 16.6991 35.0152 16.6991 35.0152C16.6991 35.0152 17.5225 34.9605 18.1064 34.4333C18.9062 33.7099 18.8691 33.5042 18.9028 33.2855C18.9332 33.0766 18.8286 32.8644 18.8286 32.8644Z" fill="#EDBD82"/>
<path d="M12.187 34.5909C11.5289 33.6489 10.8202 33.9865 9.97646 34.0765C9.6896 34.1087 8.85603 34.1633 8.06632 34.1054C7.08087 33.9929 6.15955 33.7421 5.56558 33.6457C4.22578 33.4078 2.34601 33.2663 1.38082 34.5459C0.415619 35.8254 1.1412 37.4104 2.51138 37.9731C4.67126 38.8604 8.46455 38.4714 11.2218 37.7319C13.223 37.1918 12.8518 35.5393 12.187 34.5909Z" fill="url(#paint7_linear_67_71)"/>
<path d="M10.4456 2.64036C6.68604 3.24478 3.6757 6.46618 4.67465 12.1117C5.47785 16.648 8.89991 18.8567 11.62 19.31C12.268 19.4193 12.8788 19.4258 13.4019 19.3422C13.9216 19.2586 14.492 19.0625 15.0623 18.7603C17.4787 17.4871 19.9592 14.3268 19.156 9.78725C18.157 4.13854 14.2051 2.03594 10.4456 2.64036Z" fill="#F9DDBD"/>
<path d="M14.4312 14.8862C13.8069 15.3781 11.5491 15.7189 10.7932 15.4296C10.3612 15.2656 10.0136 15.6675 10.233 15.9858C10.4489 16.2976 11.8124 16.8956 12.8754 16.7349C13.9419 16.5741 15.0286 15.6128 15.1332 15.2495C15.2445 14.8862 14.7889 14.6033 14.4312 14.8862Z" fill="#444444"/>
<path d="M13.0982 12.9316C13.0745 12.9252 13.0509 12.9252 13.0239 12.9252L11.4951 13.1534C11.4715 13.1599 11.4512 13.1695 11.4276 13.1792C11.2994 13.2531 11.2454 13.401 11.3331 13.5392C11.4209 13.6775 11.7955 14.0376 12.4097 13.9475C13.0239 13.8543 13.2602 13.401 13.3006 13.2435C13.3445 13.0891 13.2467 12.9638 13.0982 12.9316Z" fill="#DBA689"/>
<path d="M8.4814 12.3946C8.03255 12.4621 7.6107 12.4171 7.30359 12.2949C7.17198 12.2403 7.10786 12.2949 7.15173 12.4235C7.32047 12.9283 7.93806 13.2466 8.60627 13.1469C9.27448 13.0472 9.76046 12.565 9.75708 12.0345C9.75708 11.8995 9.67946 11.8641 9.57147 11.9542C9.31836 12.1631 8.93363 12.3271 8.4814 12.3946Z" fill="#312D2D"/>
<path d="M15.6225 11.324C15.1737 11.3916 14.7518 11.3466 14.4447 11.2244C14.3131 11.1697 14.249 11.2244 14.2928 11.353C14.4616 11.8577 15.0792 12.176 15.7474 12.0764C16.4156 11.9767 16.9016 11.4944 16.8982 10.964C16.8982 10.8289 16.8206 10.7936 16.7126 10.8836C16.4595 11.0926 16.0714 11.2565 15.6225 11.324Z" fill="#312D2D"/>
<path d="M9.7301 9.96404C9.48374 9.739 8.95389 9.43679 8.04269 9.57182C7.1315 9.70685 6.72314 10.1505 6.56453 10.4366C6.49366 10.562 6.53753 10.6906 6.61177 10.7614C6.68264 10.8257 6.86151 10.8675 7.04038 10.7806C7.21924 10.6938 7.55672 10.4559 8.17094 10.3595C8.78853 10.2727 9.18676 10.3981 9.3825 10.4302C9.57823 10.4624 9.74023 10.3691 9.7841 10.2888C9.8381 10.1987 9.8381 10.0669 9.7301 9.96404Z" fill="#454140"/>
<path d="M16.8442 8.89983C16.5978 8.67479 16.068 8.37258 15.1568 8.50761C14.2456 8.64264 13.8372 9.0863 13.6786 9.37244C13.6078 9.49782 13.6516 9.62642 13.7259 9.69715C13.7968 9.76145 13.979 9.80324 14.1545 9.71644C14.33 9.62964 14.6708 9.39173 15.285 9.29528C15.9026 9.20847 16.3009 9.33386 16.4966 9.36601C16.6957 9.39816 16.8543 9.30492 16.8982 9.22455C16.9522 9.13453 16.9522 8.9995 16.8442 8.89983Z" fill="#454140"/>
<path d="M19.6554 7.75548C19.4664 6.12871 18.1671 -0.23695 10.1654 0.807917C2.74086 1.77884 3.34495 8.87108 3.44282 10.4593C3.51369 11.6488 3.68243 13.9925 3.85455 15.301C4.03341 16.677 5.53521 16.9728 5.53521 16.9728C5.53521 16.9728 5.52846 14.9602 5.43059 13.0248C5.34284 11.308 5.35972 9.89023 6.17642 9.60088C10.9383 7.91945 13.2601 4.92952 13.2601 4.92952C14.2287 6.3216 16.7227 7.44363 17.6238 7.87765C18.3629 8.23452 18.5822 10.1281 18.7003 10.9287L18.4742 16.6449C18.4742 16.6449 19.9423 15.7929 20.0435 14.3816C20.1346 13.0859 19.8444 9.38226 19.6554 7.75548Z" fill="#312D2D"/>
<path d="M19.6554 7.75548C19.4664 6.12871 18.1671 -0.23695 10.1654 0.807917C2.74086 1.77884 3.34495 8.87108 3.44282 10.4593C3.51369 11.6488 3.68243 13.9925 3.85455 15.301C4.03341 16.677 5.53521 16.9728 5.53521 16.9728C5.53521 16.9728 5.52846 14.9602 5.43059 13.0248C5.34284 11.308 5.35972 9.89023 6.17642 9.60088C10.9383 7.91945 13.2601 4.92952 13.2601 4.92952C14.2287 6.3216 16.7227 7.44363 17.6238 7.87765C18.3629 8.23452 18.5822 10.1281 18.7003 10.9287L18.4742 16.6449C18.4742 16.6449 19.9423 15.7929 20.0435 14.3816C20.1346 13.0859 19.8444 9.38226 19.6554 7.75548Z" fill="url(#paint8_radial_67_71)"/>
<path d="M21.3327 28.2863C21.3327 28.2863 22.9796 30.7393 24.1439 32.0253C25.3082 33.3113 25.8245 33.8482 25.8245 33.8482C25.8245 33.8482 25.1968 33.8417 24.262 33.8803C24.262 33.8803 23.6444 32.4593 23.0336 32.1571C23.0302 32.1571 21.552 29.8134 21.3327 28.2863Z" fill="url(#paint9_linear_67_71)"/>
<defs>
<radialGradient id="paint0_radial_67_71" cx="0" cy="0" r="1" gradientUnits="userSpaceOnUse" gradientTransform="translate(11.9971 12.0986) rotate(85.4092) scale(12.0118 10.6813)">
<stop offset="0.7989" stop-color="#454140" stop-opacity="0"/>
<stop offset="1" stop-color="#454140"/>
</radialGradient>
<linearGradient id="paint1_linear_67_71" x1="14.502" y1="20.3681" x2="14.502" y2="38.6141" gradientUnits="userSpaceOnUse">
<stop stop-color="#651FFF"/>
<stop offset="1" stop-color="#530EEB"/>
</linearGradient>
<linearGradient id="paint2_linear_67_71" x1="12.2771" y1="32.1291" x2="12.2771" y2="18.588" gradientUnits="userSpaceOnUse">
<stop offset="0.5" stop-color="#F9DDBD"/>
<stop offset="1" stop-color="#FFD29C"/>
</linearGradient>
<linearGradient id="paint3_linear_67_71" x1="6.01345" y1="37.3361" x2="13.707" y2="37.3361" gradientUnits="userSpaceOnUse">
<stop offset="0.5" stop-color="#F9DDBD"/>
<stop offset="1" stop-color="#FFD29C"/>
</linearGradient>
<linearGradient id="paint4_linear_67_71" x1="12.531" y1="36.3941" x2="13.3108" y2="38.6367" gradientUnits="userSpaceOnUse">
<stop offset="0.2105" stop-color="#212121" stop-opacity="0.4"/>
<stop offset="0.709" stop-color="#252525" stop-opacity="0"/>
</linearGradient>
<linearGradient id="paint5_linear_67_71" x1="11.6845" y1="35.6144" x2="12.8673" y2="30.4497" gradientUnits="userSpaceOnUse">
<stop offset="0.2105" stop-color="#212121" stop-opacity="0.4"/>
<stop offset="1" stop-color="#252525" stop-opacity="0"/>
</linearGradient>
<linearGradient id="paint6_linear_67_71" x1="11.5003" y1="34.1961" x2="19.0598" y2="32.9725" gradientUnits="userSpaceOnUse">
<stop offset="0.5" stop-color="#F9DDBD"/>
<stop offset="1" stop-color="#FFD29C"/>
</linearGradient>
<linearGradient id="paint7_linear_67_71" x1="10.1369" y1="35.9875" x2="2.29941" y2="35.9875" gradientUnits="userSpaceOnUse">
<stop offset="0.2944" stop-color="#651FFF"/>
<stop offset="1" stop-color="#641EFE" stop-opacity="0"/>
</linearGradient>
<radialGradient id="paint8_radial_67_71" cx="0" cy="0" r="1" gradientUnits="userSpaceOnUse" gradientTransform="translate(11.9863 12.4748) rotate(-96.6446) scale(12.8875 10.7733)">
<stop offset="0.7895" stop-color="#454140" stop-opacity="0"/>
<stop offset="1" stop-color="#454140"/>
</radialGradient>
<linearGradient id="paint9_linear_67_71" x1="23.1219" y1="32.8702" x2="23.91" y2="29.4289" gradientUnits="userSpaceOnUse">
<stop offset="0.2105" stop-color="#212121" stop-opacity="0.4"/>
<stop offset="1" stop-color="#252525" stop-opacity="0"/>
</linearGradient>
</defs>
</svg>
