<svg width="78" height="71" viewBox="0 0 78 71" fill="none" xmlns="http://www.w3.org/2000/svg">
<mask id="mask0_1_155" style="mask-type:luminance" maskUnits="userSpaceOnUse" x="33" y="15" width="30" height="27">
<path d="M33.6036 15.1464H62.2759V41.2455H33.6036V15.1464Z" fill="white"/>
</mask>
<g mask="url(#mask0_1_155)">
<path d="M62.2759 28.1959C62.2759 28.4092 62.2702 28.6229 62.2586 28.8362C62.2473 29.0495 62.23 29.2625 62.2066 29.4748C62.1837 29.6874 62.1551 29.8994 62.1209 30.1106C62.0863 30.3219 62.046 30.5321 62.0005 30.7417C61.9546 30.9512 61.9031 31.1594 61.8463 31.3666C61.7891 31.5737 61.7267 31.7795 61.6586 31.9839C61.5905 32.1883 61.5168 32.391 61.4378 32.592C61.3588 32.793 61.2745 32.9923 61.1846 33.1895C61.0947 33.3871 60.9999 33.5822 60.8995 33.7753C60.7991 33.9681 60.6937 34.1588 60.5832 34.3475C60.4726 34.5358 60.3567 34.7214 60.2363 34.9046C60.1156 35.0878 59.9903 35.2682 59.8598 35.4459C59.7293 35.6233 59.5942 35.7979 59.4547 35.9694C59.3147 36.141 59.1707 36.3094 59.0217 36.4745C58.8728 36.6395 58.7197 36.8011 58.5621 36.9593C58.4044 37.1175 58.2427 37.2723 58.0768 37.4233C57.9109 37.5743 57.7413 37.7215 57.5671 37.865C57.3933 38.0084 57.2158 38.1478 57.0345 38.2834C56.8532 38.4186 56.6681 38.5501 56.4797 38.6775C56.2912 38.8045 56.0997 38.9274 55.9045 39.0462C55.7093 39.1647 55.511 39.2791 55.3098 39.3886C55.1089 39.4985 54.9047 39.6037 54.6978 39.7043C54.4909 39.805 54.2814 39.9012 54.0692 39.9926C53.8571 40.0837 53.6427 40.1703 53.426 40.2522C53.2093 40.3337 52.9904 40.4107 52.7696 40.4826C52.5484 40.5545 52.3257 40.6216 52.1012 40.6836C51.8766 40.7456 51.6509 40.8024 51.423 40.8541C51.1954 40.9061 50.9667 40.9531 50.7365 40.9945C50.5066 41.0363 50.2753 41.0729 50.0432 41.1041C49.8111 41.1356 49.5783 41.1616 49.3451 41.1825C49.1115 41.2034 48.8775 41.2191 48.6432 41.2297C48.4088 41.24 48.1745 41.2455 47.9397 41.2455C47.705 41.2455 47.4707 41.24 47.2363 41.2297C47.002 41.2191 46.768 41.2034 46.5344 41.1825C46.3012 41.1616 46.0684 41.1356 45.8363 41.1041C45.6042 41.0729 45.3729 41.0363 45.143 40.9945C44.9128 40.9531 44.6841 40.9061 44.4565 40.8541C44.229 40.8024 44.0029 40.7456 43.7783 40.6836C43.5538 40.6216 43.3311 40.5545 43.1099 40.4826C42.8891 40.4107 42.6702 40.3337 42.4535 40.2522C42.2368 40.1703 42.0224 40.0837 41.8103 39.9923C41.5981 39.9012 41.3886 39.805 41.1817 39.7043C40.9748 39.6037 40.7709 39.4985 40.5697 39.3886C40.3685 39.2791 40.1702 39.1647 39.975 39.0462C39.7801 38.9274 39.5883 38.8045 39.3998 38.6775C39.2114 38.5501 39.0263 38.4186 38.845 38.2834C38.6637 38.1478 38.4862 38.0084 38.3124 37.865C38.1382 37.7215 37.9686 37.5743 37.8027 37.4233C37.6368 37.2723 37.475 37.1175 37.3174 36.9593C37.1598 36.8011 37.0067 36.6395 36.8578 36.4745C36.7088 36.3094 36.5647 36.141 36.4248 35.9694C36.2853 35.7979 36.1502 35.6233 36.0197 35.4459C35.8895 35.2682 35.7639 35.0878 35.6432 34.9046C35.5228 34.7214 35.4069 34.5358 35.2963 34.3475C35.1858 34.1588 35.0804 33.9681 34.98 33.7753C34.8796 33.5822 34.7848 33.3871 34.6949 33.1895C34.605 32.9923 34.5207 32.793 34.4417 32.592C34.3627 32.391 34.289 32.1883 34.2209 31.9839C34.1528 31.7795 34.0904 31.5737 34.0332 31.3666C33.9764 31.1594 33.9249 30.9512 33.879 30.7417C33.8335 30.5321 33.7932 30.3219 33.759 30.1106C33.7244 29.8994 33.6958 29.6874 33.6729 29.4748C33.6495 29.2625 33.6326 29.0495 33.6209 28.8362C33.6093 28.6229 33.6036 28.4092 33.6036 28.1959C33.6036 27.9823 33.6093 27.769 33.6209 27.5556C33.6326 27.3423 33.6495 27.1294 33.6729 26.9167C33.6958 26.7041 33.7244 26.4921 33.759 26.2809C33.7932 26.07 33.8335 25.8594 33.879 25.6498C33.9249 25.4406 33.9764 25.2321 34.0332 25.025C34.0904 24.8178 34.1528 24.612 34.2209 24.4076C34.289 24.2032 34.3627 24.0005 34.4417 23.7995C34.5207 23.5985 34.605 23.3993 34.6949 23.202C34.7848 23.0048 34.8796 22.8096 34.98 22.6165C35.0804 22.4234 35.1858 22.2327 35.2963 22.0444C35.4069 21.8561 35.5228 21.6701 35.6432 21.487C35.7639 21.3038 35.8895 21.1233 36.0197 20.946C36.1502 20.7683 36.2853 20.5936 36.4248 20.4221C36.5647 20.2505 36.7088 20.0824 36.8578 19.9174C37.0067 19.7524 37.1598 19.5904 37.3174 19.4322C37.475 19.274 37.6368 19.1193 37.8027 18.9683C37.9686 18.8173 38.1382 18.67 38.3124 18.5269C38.4862 18.3834 38.6637 18.2437 38.845 18.1085C39.0263 17.9729 39.2114 17.8414 39.3998 17.7144C39.5883 17.587 39.7801 17.4641 39.975 17.3456C40.1702 17.2268 40.3685 17.1128 40.5697 17.0029C40.7709 16.893 40.9748 16.7879 41.1817 16.6872C41.3886 16.5865 41.5981 16.4907 41.8103 16.3992C42.0224 16.3078 42.2368 16.2212 42.4535 16.1397C42.6702 16.0579 42.8891 15.9812 43.1099 15.9093C43.3311 15.837 43.5538 15.7702 43.7783 15.7083C44.0029 15.6463 44.229 15.5891 44.4565 15.5374C44.6841 15.4854 44.9128 15.4388 45.143 15.397C45.3729 15.3553 45.6042 15.319 45.8363 15.2875C46.0684 15.2563 46.3012 15.2299 46.5344 15.2091C46.768 15.1882 47.002 15.1724 47.2363 15.1621C47.4707 15.1515 47.705 15.1464 47.9397 15.1464C48.1745 15.1464 48.4088 15.1515 48.6432 15.1621C48.8775 15.1724 49.1115 15.1882 49.3451 15.2091C49.5783 15.2299 49.8111 15.2563 50.0432 15.2875C50.2753 15.319 50.5066 15.3553 50.7365 15.397C50.9667 15.4388 51.1954 15.4854 51.423 15.5374C51.6509 15.5891 51.8766 15.6463 52.1012 15.7083C52.3257 15.7702 52.5484 15.837 52.7696 15.9093C52.9904 15.9812 53.2093 16.0579 53.426 16.1397C53.6427 16.2212 53.8571 16.3078 54.0692 16.3992C54.2814 16.4907 54.4909 16.5865 54.6978 16.6872C54.9047 16.7879 55.1089 16.893 55.3098 17.0029C55.511 17.1128 55.7093 17.2268 55.9045 17.3456C56.0997 17.4641 56.2912 17.587 56.4797 17.7144C56.6681 17.8414 56.8532 17.9729 57.0345 18.1085C57.2158 18.2437 57.3933 18.3834 57.5671 18.5269C57.7413 18.67 57.9109 18.8173 58.0768 18.9683C58.2427 19.1193 58.4044 19.274 58.5621 19.4322C58.7197 19.5904 58.8728 19.7524 59.0217 19.9174C59.1707 20.0824 59.3147 20.2505 59.4547 20.4221C59.5942 20.5936 59.7293 20.7683 59.8598 20.946C59.9903 21.1233 60.1156 21.3038 60.2363 21.487C60.3567 21.6701 60.4726 21.8561 60.5832 22.0444C60.6937 22.2327 60.7991 22.4234 60.8995 22.6165C60.9999 22.8096 61.0947 23.0048 61.1846 23.202C61.2745 23.3993 61.3588 23.5985 61.4378 23.7995C61.5168 24.0005 61.5905 24.2032 61.6586 24.4076C61.7267 24.612 61.7891 24.8178 61.8463 25.025C61.9031 25.2321 61.9546 25.4406 62.0005 25.6498C62.046 25.8594 62.0863 26.07 62.1205 26.2809C62.1551 26.4921 62.1837 26.7041 62.2066 26.9167C62.23 27.1294 62.2473 27.3423 62.2586 27.5556C62.2702 27.769 62.2759 27.9823 62.2759 28.1959Z" fill="#FFB300"/>
</g>
<path d="M61.4449 28.1959C61.4449 28.3969 61.4393 28.5979 61.4284 28.7989C61.4178 28.9999 61.4013 29.2005 61.3799 29.4008C61.358 29.6008 61.331 29.8004 61.2986 29.9997C61.2663 30.1986 61.2283 30.3969 61.1854 30.5941C61.1421 30.7913 61.0936 30.9875 61.0402 31.1827C60.9864 31.3779 60.9273 31.5717 60.8634 31.7644C60.7991 31.9569 60.7299 32.1479 60.6554 32.3373C60.5809 32.5266 60.5015 32.7142 60.4169 32.9002C60.3323 33.0861 60.2427 33.27 60.1483 33.4518C60.0535 33.6336 59.9542 33.8133 59.85 33.9907C59.7458 34.1681 59.6371 34.343 59.5235 34.5156C59.4099 34.6882 59.2914 34.8583 59.1688 35.0254C59.0458 35.1929 58.9187 35.3572 58.787 35.5188C58.6553 35.6804 58.5196 35.839 58.3792 35.9944C58.2389 36.1499 58.0949 36.3022 57.9463 36.4512C57.7977 36.6005 57.6454 36.746 57.4893 36.8884C57.3332 37.0305 57.1729 37.1692 57.0093 37.3044C56.8453 37.4394 56.6783 37.5708 56.5071 37.6986C56.3363 37.8263 56.1622 37.9499 55.9846 38.0697C55.8071 38.1896 55.6265 38.3053 55.4426 38.4172C55.259 38.5289 55.0724 38.6364 54.8829 38.7398C54.6933 38.8432 54.5011 38.9425 54.3058 39.0373C54.111 39.1322 53.9139 39.2226 53.7138 39.3085C53.514 39.3945 53.312 39.4759 53.1078 39.553C52.9035 39.63 52.6974 39.7026 52.4894 39.7704C52.2814 39.8382 52.0715 39.9012 51.8601 39.9594C51.6487 40.018 51.4358 40.0717 51.2213 40.1203C51.0069 40.1693 50.7914 40.2135 50.5744 40.2525C50.3577 40.2919 50.1399 40.3261 49.9213 40.3559C49.7028 40.3854 49.4835 40.41 49.2634 40.4295C49.0434 40.4494 48.8233 40.4641 48.6025 40.474C48.3817 40.484 48.1609 40.4888 47.9397 40.4888C47.7186 40.4888 47.4978 40.484 47.277 40.474C47.0562 40.4641 46.8361 40.4494 46.6161 40.4295C46.396 40.41 46.1767 40.3854 45.9582 40.3559C45.7396 40.3261 45.5218 40.2919 45.3051 40.2525C45.0881 40.2135 44.8726 40.1693 44.6582 40.1203C44.4437 40.0717 44.2308 40.018 44.0194 39.9594C43.808 39.9012 43.5981 39.8382 43.3901 39.7704C43.1821 39.7026 42.976 39.63 42.7717 39.553C42.5675 39.4759 42.3655 39.3945 42.1657 39.3085C41.966 39.2226 41.7685 39.1322 41.5737 39.0373C41.3784 38.9425 41.1862 38.8432 40.9966 38.7398C40.8071 38.6364 40.6205 38.5289 40.4369 38.4172C40.253 38.3053 40.0724 38.1896 39.8949 38.0697C39.7173 37.9499 39.5432 37.8263 39.3724 37.6986C39.2012 37.5708 39.0342 37.4394 38.8702 37.3044C38.7066 37.1692 38.5467 37.0305 38.3902 36.8884C38.2341 36.746 38.0818 36.6005 37.9332 36.4512C37.7846 36.3022 37.6406 36.1499 37.5003 35.9944C37.3599 35.839 37.2242 35.6804 37.0925 35.5188C36.9608 35.3572 36.8337 35.1929 36.7107 35.0254C36.5881 34.8583 36.4696 34.6882 36.356 34.5156C36.2424 34.343 36.1337 34.1681 36.0295 33.9907C35.9253 33.8133 35.826 33.6336 35.7312 33.4518C35.6368 33.27 35.5472 33.0861 35.4626 32.9002C35.378 32.7142 35.2986 32.5266 35.2241 32.3373C35.1496 32.1479 35.0804 31.9569 35.0161 31.7644C34.9522 31.5717 34.8931 31.3779 34.8393 31.1827C34.7859 30.9875 34.7374 30.7913 34.6941 30.5941C34.6512 30.3969 34.6132 30.1986 34.5809 29.9997C34.5485 29.8004 34.5215 29.6008 34.4996 29.4008C34.4782 29.2005 34.4617 28.9999 34.4511 28.7989C34.4402 28.5979 34.4346 28.3969 34.4346 28.1959C34.4346 27.9946 34.4402 27.7936 34.4511 27.5926C34.4617 27.3916 34.4782 27.191 34.4996 26.991C34.5215 26.7907 34.5485 26.5911 34.5809 26.3922C34.6132 26.1929 34.6512 25.995 34.6941 25.7974C34.7374 25.6002 34.7859 25.404 34.8393 25.2088C34.8931 25.0137 34.9522 24.8199 35.0161 24.6274C35.0804 24.4347 35.1496 24.244 35.2241 24.0543C35.2986 23.8649 35.378 23.6773 35.4626 23.4914C35.5472 23.3054 35.6368 23.1216 35.7312 22.9398C35.826 22.7579 35.9253 22.5782 36.0295 22.4008C36.1337 22.2235 36.2424 22.0485 36.356 21.8759C36.4696 21.7033 36.5881 21.5335 36.7107 21.3661C36.8337 21.199 36.9608 21.0343 37.0925 20.873C37.2242 20.7114 37.3599 20.5529 37.5003 20.3971C37.6406 20.2416 37.7846 20.0893 37.9332 19.9403C38.0818 19.7914 38.2341 19.6455 38.3902 19.5034C38.5467 19.361 38.7066 19.2223 38.8702 19.0874C39.0342 18.9522 39.2012 18.8207 39.3724 18.6933C39.5432 18.5656 39.7173 18.4416 39.8949 18.3218C40.0724 18.202 40.253 18.0862 40.4369 17.9746C40.6205 17.8627 40.8071 17.7551 40.9966 17.6517C41.1862 17.5483 41.3784 17.449 41.5737 17.3542C41.7685 17.2593 41.966 17.1689 42.1657 17.083C42.3655 16.9971 42.5675 16.9156 42.7717 16.8385C42.976 16.7615 43.1821 16.6892 43.3901 16.6215C43.5981 16.5537 43.808 16.4907 44.0194 16.4321C44.2308 16.3736 44.4437 16.3201 44.6582 16.2712C44.8726 16.2222 45.0881 16.1784 45.3051 16.139C45.5218 16.0996 45.7396 16.0654 45.9582 16.0359C46.1767 16.0062 46.396 15.9819 46.6161 15.962C46.8361 15.9421 47.0562 15.9274 47.277 15.9175C47.4978 15.9075 47.7186 15.9028 47.9397 15.9028C48.1609 15.9028 48.3817 15.9075 48.6025 15.9175C48.8233 15.9274 49.0434 15.9421 49.2634 15.962C49.4835 15.9819 49.7028 16.0062 49.9213 16.0359C50.1399 16.0654 50.3577 16.0996 50.5744 16.139C50.7914 16.1784 51.0069 16.2222 51.2213 16.2712C51.4358 16.3201 51.6487 16.3736 51.8601 16.4321C52.0715 16.4907 52.2814 16.5537 52.4894 16.6215C52.6974 16.6892 52.9035 16.7615 53.1078 16.8385C53.312 16.9156 53.514 16.9971 53.7138 17.083C53.9139 17.1689 54.111 17.2593 54.3058 17.3542C54.5011 17.449 54.6933 17.5483 54.8829 17.6517C55.0724 17.7551 55.259 17.8627 55.4426 17.9746C55.6265 18.0862 55.8071 18.202 55.9846 18.3218C56.1622 18.4416 56.3363 18.5656 56.5071 18.6933C56.6783 18.8207 56.8453 18.9522 57.0093 19.0874C57.1729 19.2223 57.3332 19.361 57.4893 19.5034C57.6454 19.6455 57.7977 19.7914 57.9463 19.9403C58.0949 20.0893 58.2389 20.2416 58.3792 20.3971C58.5196 20.5529 58.6553 20.7114 58.787 20.873C58.9187 21.0343 59.0458 21.199 59.1688 21.3661C59.2914 21.5335 59.4099 21.7033 59.5235 21.8759C59.6371 22.0485 59.7458 22.2235 59.85 22.4008C59.9542 22.5782 60.0535 22.7579 60.1483 22.9398C60.2427 23.1216 60.3323 23.3054 60.4169 23.4914C60.5015 23.6773 60.5809 23.8649 60.6554 24.0543C60.7299 24.244 60.7991 24.4347 60.8634 24.6274C60.9273 24.8199 60.9864 25.0137 61.0402 25.2088C61.0936 25.404 61.1421 25.6002 61.1854 25.7974C61.2283 25.995 61.2663 26.1929 61.2986 26.3922C61.331 26.5911 61.358 26.7907 61.3799 26.991C61.4013 27.191 61.4178 27.3916 61.4284 27.5926C61.4393 27.7936 61.4449 27.9946 61.4449 28.1959Z" fill="#FFCA28"/>
<path d="M59.3671 28.1959C59.3671 28.3661 59.3625 28.5363 59.3535 28.7061C59.3441 28.8763 59.3306 29.0461 59.3121 29.2153C59.2937 29.3847 59.2708 29.5536 59.2433 29.722C59.2158 29.8905 59.1839 30.0582 59.1474 30.225C59.1109 30.3921 59.0703 30.5582 59.0248 30.7232C58.9792 30.8882 58.9292 31.0526 58.875 31.2152C58.8209 31.3782 58.7622 31.5398 58.699 31.7001C58.6362 31.8603 58.5688 32.0192 58.4974 32.1763C58.4255 32.3338 58.3499 32.4893 58.2698 32.643C58.1901 32.7971 58.1058 32.9491 58.0178 33.0991C57.9298 33.2494 57.8376 33.3973 57.7413 33.5435C57.645 33.6894 57.5453 33.8332 57.4411 33.9746C57.3373 34.1164 57.2297 34.2554 57.1184 34.392C57.007 34.529 56.8919 34.6632 56.7731 34.7947C56.6546 34.9261 56.5323 35.0552 56.4067 35.1812C56.2814 35.3072 56.1524 35.4305 56.02 35.551C55.888 35.6715 55.7526 35.7886 55.6138 35.903C55.4753 36.0174 55.3339 36.1287 55.1891 36.2365C55.0446 36.3444 54.8972 36.4491 54.7471 36.5505C54.597 36.6522 54.4439 36.7501 54.2886 36.8446C54.1328 36.9391 53.9748 37.0302 53.8146 37.1178C53.6544 37.2052 53.4915 37.289 53.3267 37.3695C53.1616 37.4496 52.9946 37.5263 52.8257 37.5989C52.6564 37.6718 52.4856 37.7407 52.313 37.8057C52.1399 37.8711 51.9658 37.9321 51.7894 37.9896C51.6133 38.0468 51.4358 38.1002 51.2571 38.1498C51.078 38.1991 50.8979 38.2447 50.7166 38.2858C50.5349 38.3272 50.3524 38.3645 50.1693 38.3977C49.9857 38.4309 49.8014 38.4601 49.6167 38.485C49.4316 38.51 49.2458 38.5309 49.06 38.5477C48.8738 38.5641 48.6872 38.5768 48.5006 38.585C48.3137 38.5936 48.1267 38.5977 47.9398 38.5977C47.7528 38.5977 47.5659 38.5936 47.3789 38.585C47.1923 38.5768 47.0058 38.5641 46.8196 38.5477C46.6337 38.5309 46.4479 38.51 46.2629 38.485C46.0782 38.4601 45.8938 38.4309 45.7103 38.3977C45.5271 38.3645 45.3447 38.3272 45.163 38.2858C44.9817 38.2447 44.8015 38.1991 44.6224 38.1498C44.4438 38.1002 44.2662 38.0468 44.0902 37.9896C43.9138 37.9321 43.7396 37.8711 43.5666 37.8057C43.3939 37.7407 43.2231 37.6718 43.0539 37.5989C42.885 37.5263 42.718 37.4496 42.5528 37.3695C42.3881 37.289 42.2252 37.2052 42.0649 37.1178C41.9047 37.0302 41.7467 36.9391 41.591 36.8446C41.4356 36.7501 41.2829 36.6522 41.1324 36.5505C40.9824 36.4491 40.8349 36.3444 40.6905 36.2365C40.5456 36.1287 40.4042 36.0174 40.2658 35.903C40.127 35.7886 39.9916 35.6715 39.8595 35.551C39.7271 35.4305 39.5981 35.3072 39.4728 35.1812C39.3472 35.0552 39.225 34.9261 39.1065 34.7947C38.9876 34.6632 38.8725 34.529 38.7612 34.392C38.6498 34.2554 38.5422 34.1164 38.4384 33.9746C38.3342 33.8332 38.2345 33.6894 38.1382 33.5435C38.0419 33.3973 37.9498 33.2494 37.8618 33.0991C37.7737 32.9491 37.6895 32.7971 37.6097 32.643C37.5296 32.4893 37.454 32.3338 37.3822 32.1763C37.3107 32.0192 37.2434 31.8603 37.1805 31.7001C37.1173 31.5398 37.0587 31.3782 37.0045 31.2152C36.9503 31.0526 36.9003 30.8882 36.8548 30.7232C36.8096 30.5582 36.7686 30.3921 36.7322 30.225C36.6957 30.0582 36.6637 29.8905 36.6362 29.722C36.6088 29.5536 36.5858 29.3847 36.5674 29.2153C36.549 29.0461 36.5354 28.8763 36.526 28.7061C36.517 28.5363 36.5125 28.3661 36.5125 28.1959C36.5125 28.0254 36.517 27.8556 36.526 27.6854C36.5354 27.5152 36.549 27.3458 36.5674 27.1763C36.5858 27.0068 36.6088 26.838 36.6362 26.6695C36.6637 26.5011 36.6957 26.3336 36.7322 26.1665C36.7686 25.9994 36.8096 25.8334 36.8548 25.6683C36.9003 25.5033 36.9503 25.3393 37.0045 25.1763C37.0587 25.0133 37.1173 24.8517 37.1805 24.6915C37.2434 24.5312 37.3107 24.3724 37.3822 24.2152C37.454 24.058 37.5296 23.9022 37.6097 23.7485C37.6895 23.5944 37.7737 23.4427 37.8618 23.2924C37.9498 23.1425 38.0419 22.9942 38.1382 22.8483C38.2345 22.7021 38.3342 22.5583 38.4384 22.4169C38.5422 22.2755 38.6498 22.1361 38.7612 21.9995C38.8725 21.8629 38.9876 21.7287 39.1065 21.5969C39.225 21.4654 39.3472 21.3366 39.4728 21.2103C39.5981 21.0843 39.7271 20.961 39.8595 20.8405C39.9916 20.7203 40.127 20.6029 40.2658 20.4885C40.4042 20.3742 40.5456 20.2632 40.6905 20.155C40.8349 20.0472 40.9824 19.9424 41.1324 19.841C41.2829 19.7397 41.4356 19.6418 41.591 19.5469C41.7467 19.4524 41.9047 19.3613 42.0649 19.274C42.2252 19.1864 42.3881 19.1025 42.5528 19.0224C42.718 18.9419 42.885 18.8655 43.0539 18.7926C43.2231 18.72 43.3939 18.6509 43.5666 18.5858C43.7396 18.5207 43.9138 18.4595 44.0902 18.4019C44.2662 18.3448 44.4438 18.2913 44.6224 18.242C44.8015 18.1924 44.9817 18.1472 45.163 18.1058C45.3447 18.0643 45.5271 18.027 45.7103 17.9938C45.8938 17.9606 46.0782 17.9315 46.2629 17.9065C46.4479 17.8815 46.6337 17.8609 46.8196 17.8442C47.0058 17.8274 47.1923 17.8151 47.3789 17.8065C47.5659 17.7983 47.7528 17.7942 47.9398 17.7942C48.1267 17.7942 48.3137 17.7983 48.5006 17.8065C48.6872 17.8151 48.8738 17.8274 49.06 17.8442C49.2458 17.8609 49.4316 17.8815 49.6167 17.9065C49.8014 17.9315 49.9857 17.9606 50.1693 17.9938C50.3524 18.027 50.5349 18.0643 50.7166 18.1058C50.8979 18.1472 51.078 18.1924 51.2571 18.242C51.4358 18.2913 51.6133 18.3448 51.7894 18.4019C51.9658 18.4595 52.1399 18.5207 52.313 18.5858C52.4856 18.6509 52.6564 18.72 52.8257 18.7926C52.9946 18.8655 53.1616 18.9419 53.3267 19.0224C53.4915 19.1025 53.6544 19.1864 53.8146 19.274C53.9748 19.3613 54.1328 19.4524 54.2886 19.5469C54.4439 19.6418 54.597 19.7397 54.7471 19.841C54.8972 19.9424 55.0446 20.0472 55.1891 20.155C55.3339 20.2632 55.4753 20.3742 55.6138 20.4885C55.7526 20.6029 55.888 20.7203 56.02 20.8405C56.1524 20.961 56.2814 21.0843 56.4067 21.2103C56.5323 21.3366 56.6546 21.4654 56.7731 21.5969C56.8919 21.7287 57.007 21.8629 57.1184 21.9995C57.2297 22.1361 57.3373 22.2755 57.4411 22.4169C57.5453 22.5583 57.645 22.7021 57.7413 22.8483C57.8376 22.9942 57.9298 23.1425 58.0178 23.2924C58.1058 23.4427 58.1901 23.5944 58.2698 23.7485C58.3499 23.9022 58.4255 24.058 58.4974 24.2152C58.5688 24.3724 58.6362 24.5312 58.699 24.6915C58.7622 24.8517 58.8209 25.0133 58.875 25.1763C58.9292 25.3393 58.9792 25.5033 59.0248 25.6683C59.0703 25.8334 59.1109 25.9994 59.1474 26.1665C59.1839 26.3336 59.2158 26.5011 59.2433 26.6695C59.2708 26.838 59.2937 27.0068 59.3121 27.1763C59.3306 27.3458 59.3441 27.5152 59.3535 27.6854C59.3625 27.8556 59.3671 28.0254 59.3671 28.1959Z" fill="#FFA000"/>
<mask id="mask1_1_155" style="mask-type:luminance" maskUnits="userSpaceOnUse" x="16" y="12" width="30" height="27">
<path d="M16.3512 12.198H45.0234V38.2971H16.3512V12.198Z" fill="white"/>
</mask>
<g mask="url(#mask1_1_155)">
<path d="M45.0234 25.2475C45.0234 25.4612 45.0178 25.6745 45.0061 25.8878C44.9945 26.1011 44.9775 26.3141 44.9542 26.5267C44.9313 26.739 44.9027 26.951 44.8684 27.1622C44.8338 27.3735 44.7936 27.5837 44.7481 27.7933C44.7022 28.0028 44.6506 28.211 44.5938 28.4181C44.5367 28.6253 44.4742 28.8311 44.4061 29.0355C44.3381 29.2399 44.2643 29.4426 44.1853 29.6436C44.1063 29.8449 44.0221 30.0439 43.9322 30.2414C43.8423 30.4386 43.7475 30.6338 43.6471 30.8269C43.5466 31.02 43.4413 31.2108 43.3307 31.3991C43.2201 31.5874 43.1043 31.773 42.9839 31.9562C42.8631 32.1393 42.7375 32.3198 42.6074 32.4975C42.4768 32.6749 42.3418 32.8495 42.2022 33.021C42.0623 33.1926 41.9182 33.361 41.7693 33.5261C41.6203 33.6911 41.4672 33.8527 41.3096 34.0109C41.152 34.1694 40.9903 34.3239 40.8244 34.4748C40.6585 34.6258 40.4888 34.7731 40.3147 34.9165C40.1409 35.06 39.9633 35.1994 39.782 35.335C39.6007 35.4705 39.4157 35.6017 39.2272 35.7291C39.0388 35.8561 38.8473 35.979 38.6521 36.0978C38.4568 36.2163 38.2586 36.3307 38.0574 36.4406C37.8561 36.5501 37.6522 36.6556 37.4454 36.7563C37.2385 36.8569 37.0289 36.9528 36.8168 37.0442C36.6046 37.1353 36.3902 37.2219 36.1736 37.3038C35.9569 37.3852 35.738 37.4623 35.5172 37.5342C35.296 37.6061 35.0733 37.6732 34.8487 37.7352C34.6242 37.7972 34.3985 37.854 34.1705 37.906C33.9429 37.9577 33.7142 38.0046 33.484 38.0464C33.2542 38.0879 33.0229 38.1245 32.7908 38.1556C32.5587 38.1871 32.3258 38.2132 32.0926 38.2341C31.859 38.2553 31.6251 38.2707 31.3907 38.2813C31.1564 38.2919 30.922 38.2971 30.6873 38.2971C30.4526 38.2971 30.2182 38.2919 29.9839 38.2813C29.7495 38.2707 29.5156 38.2553 29.282 38.2341C29.0488 38.2132 28.8159 38.1871 28.5838 38.1556C28.3517 38.1245 28.1204 38.0879 27.8906 38.0464C27.6604 38.0046 27.4317 37.9577 27.2041 37.906C26.9765 37.854 26.7504 37.7972 26.5259 37.7352C26.3013 37.6732 26.0786 37.6061 25.8574 37.5342C25.6366 37.4623 25.4177 37.3852 25.2011 37.3038C24.9844 37.2219 24.77 37.1353 24.5578 37.0442C24.3457 36.9528 24.1361 36.8569 23.9293 36.7563C23.7224 36.6556 23.5185 36.5501 23.3173 36.4406C23.116 36.3307 22.9178 36.2163 22.7226 36.0978C22.5277 35.979 22.3359 35.8561 22.1474 35.7291C21.959 35.6017 21.7739 35.4705 21.5926 35.335C21.4113 35.1994 21.2337 35.06 21.0599 34.9165C20.8858 34.7731 20.7161 34.6258 20.5502 34.4748C20.3844 34.3239 20.2226 34.1694 20.065 34.0109C19.9074 33.8527 19.7543 33.6911 19.6053 33.5261C19.4564 33.361 19.3123 33.1926 19.1724 33.021C19.0328 32.8495 18.8978 32.6749 18.7673 32.4975C18.6371 32.3198 18.5115 32.1393 18.3907 31.9562C18.2704 31.773 18.1545 31.5874 18.0439 31.3991C17.9333 31.2108 17.828 31.02 17.7276 30.8269C17.6271 30.6338 17.5323 30.4386 17.4424 30.2414C17.3525 30.0439 17.2683 29.8449 17.1893 29.6436C17.1103 29.4426 17.0366 29.2399 16.9685 29.0355C16.9004 28.8311 16.8379 28.6253 16.7808 28.4181C16.724 28.211 16.6724 28.0028 16.6265 27.7933C16.581 27.5837 16.5408 27.3735 16.5065 27.1622C16.4719 26.951 16.4434 26.739 16.4204 26.5267C16.3971 26.3141 16.3802 26.1011 16.3685 25.8878C16.3568 25.6745 16.3512 25.4612 16.3512 25.2475C16.3512 25.0339 16.3568 24.8205 16.3685 24.6072C16.3802 24.3939 16.3971 24.1809 16.4204 23.9683C16.4434 23.756 16.4719 23.5441 16.5065 23.3328C16.5408 23.1216 16.581 22.911 16.6265 22.7018C16.6724 22.4922 16.724 22.2837 16.7808 22.0766C16.8379 21.8694 16.9004 21.6636 16.9685 21.4596C17.0366 21.2551 17.1103 21.0524 17.1893 20.8511C17.2683 20.6501 17.3525 20.4508 17.4424 20.2536C17.5323 20.0564 17.6271 19.8612 17.7276 19.6681C17.828 19.475 17.9333 19.2843 18.0439 19.096C18.1545 18.9076 18.2704 18.7217 18.3907 18.5385C18.5115 18.3554 18.6371 18.1753 18.7673 17.9975C18.8978 17.8198 19.0328 17.6456 19.1724 17.474C19.3123 17.3025 19.4564 17.134 19.6053 16.969C19.7543 16.8039 19.9074 16.6423 20.065 16.4838C20.2226 16.3256 20.3844 16.1712 20.5502 16.0202C20.7161 15.8692 20.8858 15.722 21.0599 15.5785C21.2337 15.435 21.4113 15.2957 21.5926 15.1601C21.7739 15.0245 21.959 14.8934 22.1474 14.766C22.3359 14.639 22.5277 14.5157 22.7226 14.3972C22.9178 14.2784 23.116 14.1644 23.3173 14.0545C23.5185 13.9446 23.7224 13.8394 23.9293 13.7388C24.1361 13.6381 24.3457 13.5422 24.5578 13.4508C24.77 13.3594 24.9844 13.2731 25.2011 13.1913C25.4177 13.1095 25.6366 13.0328 25.8574 12.9608C26.0786 12.8889 26.3013 12.8218 26.5259 12.7599C26.7504 12.6979 26.9765 12.641 27.2041 12.589C27.4317 12.5373 27.6604 12.4904 27.8906 12.4486C28.1204 12.4072 28.3517 12.3706 28.5838 12.3391C28.8159 12.3079 29.0488 12.2819 29.282 12.2606C29.5156 12.2398 29.7495 12.224 29.9839 12.2137C30.2182 12.2031 30.4526 12.198 30.6873 12.198C30.922 12.198 31.1564 12.2031 31.3907 12.2137C31.6251 12.224 31.859 12.2398 32.0926 12.2606C32.3258 12.2819 32.5587 12.3079 32.7908 12.3391C33.0229 12.3706 33.2542 12.4072 33.484 12.4486C33.7142 12.4904 33.9429 12.5373 34.1705 12.589C34.3985 12.641 34.6242 12.6979 34.8487 12.7599C35.0733 12.8218 35.296 12.8889 35.5172 12.9608C35.738 13.0328 35.9569 13.1095 36.1736 13.1913C36.3902 13.2731 36.6046 13.3594 36.8168 13.4508C37.0289 13.5422 37.2385 13.6381 37.4454 13.7388C37.6522 13.8394 37.8561 13.9446 38.0574 14.0545C38.2586 14.1644 38.4568 14.2784 38.6521 14.3972C38.8473 14.5157 39.0388 14.639 39.2272 14.766C39.4157 14.8934 39.6007 15.0245 39.782 15.1601C39.9633 15.2957 40.1409 15.435 40.3147 15.5785C40.4888 15.722 40.6585 15.8692 40.8244 16.0202C40.9903 16.1712 41.152 16.3256 41.3096 16.4838C41.4672 16.6423 41.6203 16.8039 41.7693 16.969C41.9182 17.134 42.0623 17.3025 42.2022 17.474C42.3418 17.6456 42.4768 17.8198 42.6074 17.9975C42.7379 18.1753 42.8631 18.3554 42.9839 18.5385C43.1043 18.7217 43.2201 18.9076 43.3307 19.096C43.4413 19.2843 43.5466 19.475 43.6471 19.6681C43.7475 19.8612 43.8423 20.0564 43.9322 20.2536C44.0221 20.4508 44.1063 20.6501 44.1853 20.8511C44.2643 21.0524 44.3381 21.2551 44.4061 21.4596C44.4742 21.6636 44.5367 21.8694 44.5938 22.0766C44.6506 22.2837 44.7022 22.4922 44.7481 22.7018C44.7936 22.911 44.8338 23.1216 44.8681 23.3328C44.9027 23.5441 44.9313 23.756 44.9542 23.9683C44.9775 24.1809 44.9945 24.3939 45.0061 24.6072C45.0178 24.8205 45.0234 25.0339 45.0234 25.2475Z" fill="#FFB300"/>
</g>
<path d="M44.1925 25.2475C44.1925 25.4485 44.1868 25.6498 44.1759 25.8508C44.1654 26.0515 44.1489 26.2521 44.1274 26.4524C44.1056 26.6527 44.0785 26.8523 44.0462 27.0513C44.0138 27.2502 43.9758 27.4485 43.9329 27.6457C43.8897 27.8429 43.8412 28.0394 43.7877 28.2346C43.734 28.4294 43.6749 28.6236 43.6109 28.816C43.5466 29.0084 43.4774 29.1995 43.4029 29.3888C43.3285 29.5782 43.2491 29.7658 43.1644 29.9518C43.0798 30.1377 42.9903 30.3215 42.8959 30.5034C42.8011 30.6852 42.7018 30.8649 42.5976 31.0423C42.4934 31.2197 42.3847 31.395 42.2711 31.5675C42.1575 31.7401 42.039 31.9099 41.9164 32.077C41.7934 32.2445 41.6662 32.4088 41.5346 32.5704C41.4029 32.732 41.2671 32.8906 41.1268 33.046C40.9865 33.2015 40.8424 33.3538 40.6938 33.5031C40.5453 33.6521 40.3929 33.7976 40.2368 33.94C40.0807 34.0821 39.9205 34.2208 39.7568 34.356C39.5928 34.4913 39.4258 34.6224 39.2547 34.7501C39.0839 34.8779 38.9097 35.0015 38.7322 35.1213C38.5546 35.2411 38.3741 35.3569 38.1901 35.4688C38.0066 35.5805 37.82 35.6883 37.6304 35.7917C37.4408 35.8951 37.2486 35.9941 37.0534 36.0889C36.8585 36.1838 36.6614 36.2742 36.4613 36.3601C36.2616 36.4464 36.0596 36.5279 35.8553 36.6049C35.6511 36.6816 35.4449 36.7542 35.2369 36.822C35.0289 36.8898 34.819 36.9528 34.6076 37.0113C34.3962 37.0696 34.1833 37.1233 33.9689 37.1723C33.7545 37.2209 33.539 37.2651 33.3219 37.3044C33.1052 37.3435 32.8875 37.3781 32.6689 37.4075C32.4504 37.437 32.2311 37.4616 32.011 37.4815C31.791 37.501 31.5709 37.5157 31.3501 37.5256C31.1293 37.5356 30.9085 37.5407 30.6873 37.5407C30.4661 37.5407 30.2453 37.5356 30.0245 37.5256C29.8037 37.5157 29.5837 37.501 29.3636 37.4815C29.1436 37.4616 28.9243 37.437 28.7057 37.4075C28.4872 37.3781 28.2694 37.3435 28.0527 37.3044C27.8357 37.2651 27.6201 37.2209 27.4057 37.1723C27.1913 37.1233 26.9784 37.0696 26.767 37.0113C26.5556 36.9528 26.3457 36.8898 26.1377 36.822C25.9297 36.7542 25.7235 36.6816 25.5193 36.6049C25.315 36.5279 25.113 36.4464 24.9133 36.3601C24.7136 36.2742 24.5161 36.1838 24.3212 36.0889C24.126 35.9941 23.9338 35.8951 23.7442 35.7917C23.5546 35.6883 23.368 35.5805 23.1845 35.4688C23.0005 35.3569 22.82 35.2411 22.6424 35.1213C22.4649 35.0015 22.2907 34.8779 22.1199 34.7501C21.9488 34.6224 21.7818 34.4913 21.6178 34.356C21.4541 34.2208 21.2943 34.0821 21.1378 33.94C20.9817 33.7976 20.8294 33.6521 20.6808 33.5031C20.5322 33.3538 20.3881 33.2015 20.2478 33.046C20.1075 32.8906 19.9717 32.732 19.8401 32.5704C19.7084 32.4088 19.5813 32.2445 19.4583 32.077C19.3356 31.9099 19.2171 31.7401 19.1035 31.5675C18.9899 31.395 18.8812 31.2197 18.777 31.0423C18.6728 30.8649 18.5735 30.6852 18.4787 30.5034C18.3843 30.3215 18.2948 30.1377 18.2102 29.9518C18.1255 29.7658 18.0462 29.5782 17.9717 29.3888C17.8972 29.1995 17.828 29.0084 17.7637 28.816C17.6997 28.6236 17.6407 28.4294 17.5869 28.2346C17.5335 28.0394 17.4849 27.8429 17.4417 27.6457C17.3988 27.4485 17.3608 27.2502 17.3285 27.0513C17.2961 26.8523 17.269 26.6527 17.2472 26.4524C17.2258 26.2521 17.2092 26.0515 17.1987 25.8508C17.1878 25.6498 17.1821 25.4485 17.1821 25.2475C17.1821 25.0462 17.1878 24.8452 17.1987 24.6442C17.2092 24.4432 17.2258 24.2429 17.2472 24.0426C17.269 23.8423 17.2961 23.6427 17.3285 23.4438C17.3608 23.2448 17.3988 23.0466 17.4417 22.8494C17.4849 22.6518 17.5335 22.4556 17.5869 22.2604C17.6407 22.0653 17.6997 21.8715 17.7637 21.679C17.828 21.4866 17.8972 21.2955 17.9717 21.1062C18.0462 20.9165 18.1255 20.7289 18.2102 20.5433C18.2948 20.3574 18.3843 20.1735 18.4787 19.9917C18.5735 19.8095 18.6728 19.6301 18.777 19.4527C18.8812 19.275 18.9899 19.1001 19.1035 18.9275C19.2171 18.7549 19.3356 18.5851 19.4583 18.4177C19.5813 18.2506 19.7084 18.0862 19.8401 17.9246C19.9717 17.763 20.1075 17.6045 20.2478 17.449C20.3881 17.2932 20.5322 17.1412 20.6808 16.9919C20.8294 16.843 20.9817 16.6971 21.1378 16.555C21.2943 16.4126 21.4541 16.2739 21.6178 16.139C21.7818 16.0038 21.9488 15.8726 22.1199 15.7449C22.2907 15.6172 22.4649 15.4936 22.6424 15.3737C22.82 15.2539 23.0005 15.1378 23.1845 15.0262C23.368 14.9146 23.5546 14.8067 23.7442 14.7033C23.9338 14.5999 24.126 14.501 24.3212 14.4061C24.5161 14.3113 24.7136 14.2209 24.9133 14.1346C25.113 14.0487 25.315 13.9672 25.5193 13.8901C25.7235 13.8131 25.9297 13.7408 26.1377 13.673C26.3457 13.6052 26.5556 13.5422 26.767 13.4837C26.9784 13.4255 27.1913 13.3717 27.4057 13.3228C27.6201 13.2738 27.8357 13.23 28.0527 13.1906C28.2694 13.1516 28.4872 13.117 28.7057 13.0875C28.9243 13.0581 29.1436 13.0334 29.3636 13.0136C29.5837 12.9941 29.8037 12.979 30.0245 12.9694C30.2453 12.9595 30.4661 12.9543 30.6873 12.9543C30.9085 12.9543 31.1293 12.9595 31.3501 12.9694C31.5709 12.979 31.791 12.9941 32.011 13.0136C32.2311 13.0334 32.4504 13.0581 32.6689 13.0875C32.8875 13.117 33.1052 13.1516 33.3219 13.1906C33.539 13.23 33.7545 13.2738 33.9689 13.3228C34.1833 13.3717 34.3962 13.4255 34.6076 13.4837C34.819 13.5422 35.0289 13.6052 35.2369 13.673C35.4449 13.7408 35.6511 13.8131 35.8553 13.8901C36.0596 13.9672 36.2616 14.0487 36.4613 14.1346C36.6614 14.2209 36.8585 14.3113 37.0534 14.4061C37.2486 14.501 37.4408 14.5999 37.6304 14.7033C37.82 14.8067 38.0066 14.9146 38.1901 15.0262C38.3741 15.1378 38.5546 15.2539 38.7322 15.3737C38.9097 15.4936 39.0839 15.6172 39.2547 15.7449C39.4258 15.8726 39.5928 16.0038 39.7568 16.139C39.9205 16.2739 40.0807 16.4126 40.2368 16.555C40.3929 16.6971 40.5453 16.843 40.6938 16.9919C40.8424 17.1412 40.9865 17.2932 41.1268 17.449C41.2671 17.6045 41.4029 17.763 41.5346 17.9246C41.6662 18.0862 41.7934 18.2506 41.9164 18.4177C42.039 18.5851 42.1575 18.7549 42.2711 18.9275C42.3847 19.1001 42.4934 19.275 42.5976 19.4527C42.7018 19.6301 42.8011 19.8095 42.8959 19.9917C42.9903 20.1735 43.0798 20.3574 43.1644 20.5433C43.2491 20.7289 43.3285 20.9165 43.4029 21.1062C43.4774 21.2955 43.5466 21.4866 43.6109 21.679C43.6749 21.8715 43.734 22.0653 43.7877 22.2604C43.8412 22.4556 43.8897 22.6518 43.9329 22.8494C43.9758 23.0466 44.0138 23.2448 44.0462 23.4438C44.0785 23.6427 44.1056 23.8423 44.1274 24.0426C44.1489 24.2429 44.1654 24.4432 44.1759 24.6442C44.1868 24.8452 44.1925 25.0462 44.1925 25.2475Z" fill="#FFCA28"/>
<path d="M42.1146 25.2475C42.1146 25.4177 42.1101 25.5879 42.101 25.758C42.0916 25.9279 42.0781 26.0977 42.0597 26.2672C42.0412 26.4363 42.0183 26.6055 41.9908 26.7736C41.9634 26.9421 41.9314 27.1098 41.8949 27.2769C41.8584 27.4437 41.8178 27.6097 41.7723 27.7748C41.7268 27.9402 41.6767 28.1042 41.6226 28.2671C41.5684 28.4298 41.5097 28.5914 41.4465 28.7516C41.3837 28.9119 41.3164 29.0708 41.2449 29.2279C41.1731 29.3854 41.0975 29.5409 41.0173 29.695C40.9376 29.8487 40.8533 30.0007 40.7653 30.151C40.6773 30.301 40.5851 30.4489 40.4888 30.5951C40.3925 30.741 40.2929 30.8848 40.1887 31.0265C40.0848 31.168 39.9773 31.307 39.8659 31.4439C39.7546 31.5806 39.6395 31.7148 39.5206 31.8463C39.4021 31.9781 39.2799 32.1068 39.1542 32.2328C39.029 32.3592 38.8999 32.4824 38.7675 32.6026C38.6355 32.7231 38.5001 32.8402 38.3613 32.9546C38.2229 33.069 38.0814 33.1802 37.9366 33.2881C37.7922 33.3963 37.6447 33.5007 37.4946 33.6024C37.3442 33.7038 37.1914 33.8017 37.0361 33.8962C36.8804 33.9907 36.7224 34.0818 36.5621 34.1694C36.4019 34.2571 36.239 34.341 36.0742 34.4211C35.9091 34.5012 35.7421 34.5779 35.5732 34.6505C35.4039 34.7234 35.2332 34.7923 35.0605 34.8577C34.8875 34.9227 34.7133 34.984 34.5369 35.0412C34.3609 35.0987 34.1833 35.1521 34.0046 35.2014C33.8256 35.2507 33.6454 35.2963 33.4641 35.3377C33.2824 35.3788 33.1 35.4161 32.9168 35.4493C32.7332 35.4825 32.5489 35.5116 32.3642 35.5366C32.1791 35.5616 31.9933 35.5825 31.8075 35.5993C31.6213 35.6157 31.4347 35.6284 31.2481 35.6366C31.0612 35.6452 30.8742 35.6493 30.6873 35.6493C30.5003 35.6493 30.3134 35.6452 30.1264 35.6366C29.9399 35.6284 29.7533 35.6157 29.5671 35.5993C29.3813 35.5825 29.1955 35.5616 29.0104 35.5366C28.8257 35.5116 28.6414 35.4825 28.4578 35.4493C28.2746 35.4161 28.0922 35.3788 27.9105 35.3377C27.7292 35.2963 27.549 35.2507 27.37 35.2014C27.1913 35.1521 27.0137 35.0987 26.8377 35.0412C26.6613 34.984 26.4871 34.9227 26.3141 34.8577C26.1414 34.7923 25.9707 34.7234 25.8014 34.6505C25.6325 34.5779 25.4655 34.5012 25.3003 34.4211C25.1356 34.341 24.9727 34.2571 24.8125 34.1694C24.6522 34.0818 24.4942 33.9907 24.3385 33.8962C24.1832 33.8017 24.0304 33.7038 23.88 33.6024C23.7299 33.5007 23.5824 33.3963 23.438 33.2881C23.2932 33.1802 23.1517 33.069 23.0133 32.9546C22.8745 32.8402 22.7391 32.7231 22.6071 32.6026C22.4747 32.4824 22.3456 32.3592 22.2204 32.2328C22.0947 32.1068 21.9725 31.9781 21.854 31.8463C21.7351 31.7148 21.62 31.5806 21.5087 31.4439C21.3973 31.307 21.2898 31.168 21.1859 31.0265C21.0817 30.8848 20.9821 30.741 20.8858 30.5951C20.7895 30.4489 20.6973 30.301 20.6093 30.151C20.5213 30.0007 20.437 29.8487 20.3573 29.695C20.2771 29.5409 20.2015 29.3854 20.1297 29.2279C20.0582 29.0708 19.9909 28.9119 19.9281 28.7516C19.8649 28.5914 19.8062 28.4298 19.752 28.2671C19.6979 28.1042 19.6478 27.9402 19.6023 27.7748C19.5572 27.6097 19.5162 27.4437 19.4797 27.2769C19.4432 27.1098 19.4112 26.9421 19.3838 26.7736C19.3563 26.6055 19.3334 26.4363 19.3149 26.2672C19.2965 26.0977 19.283 25.9279 19.2736 25.758C19.2645 25.5879 19.26 25.4177 19.26 25.2475C19.26 25.0774 19.2645 24.9072 19.2736 24.737C19.283 24.5672 19.2965 24.3973 19.3149 24.2279C19.3334 24.0584 19.3563 23.8896 19.3838 23.7211C19.4112 23.553 19.4432 23.3852 19.4797 23.2181C19.5162 23.0514 19.5572 22.8853 19.6023 22.7199C19.6478 22.5549 19.6979 22.3909 19.752 22.2279C19.8062 22.0653 19.8649 21.9036 19.9281 21.7431C19.9909 21.5828 20.0582 21.4243 20.1297 21.2668C20.2015 21.1096 20.2771 20.9542 20.3573 20.8001C20.437 20.6464 20.5213 20.4943 20.6093 20.344C20.6973 20.194 20.7895 20.0458 20.8858 19.8999C20.9821 19.7537 21.0817 19.6103 21.1859 19.4685C21.2898 19.3271 21.3973 19.1877 21.5087 19.0511C21.62 18.9145 21.7351 18.7803 21.854 18.6488C21.9725 18.517 22.0947 18.3882 22.2204 18.2622C22.3456 18.1359 22.4747 18.0126 22.6071 17.8924C22.7391 17.7719 22.8745 17.6545 23.0133 17.5401C23.1517 17.4261 23.2932 17.3148 23.438 17.207C23.5824 17.0988 23.7299 16.994 23.88 16.8926C24.0304 16.7913 24.1832 16.6934 24.3385 16.5989C24.4942 16.504 24.6522 16.4129 24.8125 16.3256C24.9727 16.238 25.1356 16.1541 25.3003 16.074C25.4655 15.9938 25.6325 15.9171 25.8014 15.8442C25.9707 15.7716 26.1414 15.7028 26.3141 15.6374C26.4871 15.5723 26.6613 15.511 26.8377 15.4539C27.0137 15.3963 27.1913 15.3429 27.37 15.2936C27.549 15.2443 27.7292 15.1988 27.9105 15.1573C28.0922 15.1159 28.2746 15.0786 28.4578 15.0457C28.6414 15.0125 28.8257 14.9834 29.0104 14.9584C29.1955 14.9334 29.3813 14.9125 29.5671 14.8958C29.7533 14.879 29.9399 14.8667 30.1264 14.8581C30.3134 14.8499 30.5003 14.8458 30.6873 14.8458C30.8742 14.8458 31.0612 14.8499 31.2481 14.8581C31.4347 14.8667 31.6213 14.879 31.8075 14.8958C31.9933 14.9125 32.1791 14.9334 32.3642 14.9584C32.5489 14.9834 32.7332 15.0125 32.9168 15.0457C33.1 15.0786 33.2824 15.1159 33.4641 15.1573C33.6454 15.1988 33.8256 15.2443 34.0046 15.2936C34.1833 15.3429 34.3609 15.3963 34.5369 15.4539C34.7133 15.511 34.8875 15.5723 35.0605 15.6374C35.2332 15.7028 35.4039 15.7716 35.5732 15.8442C35.7421 15.9171 35.9091 15.9938 36.0742 16.074C36.239 16.1541 36.4019 16.238 36.5621 16.3256C36.7224 16.4129 36.8804 16.504 37.0361 16.5989C37.1914 16.6934 37.3442 16.7913 37.4946 16.8926C37.6447 16.994 37.7922 17.0988 37.9366 17.207C38.0814 17.3148 38.2229 17.4261 38.3613 17.5401C38.5001 17.6545 38.6355 17.7719 38.7675 17.8924C38.8999 18.0126 39.029 18.1359 39.1542 18.2622C39.2799 18.3882 39.4021 18.517 39.5206 18.6488C39.6395 18.7803 39.7546 18.9145 39.8659 19.0511C39.9773 19.1877 40.0848 19.3271 40.1887 19.4685C40.2929 19.6103 40.3925 19.7537 40.4888 19.8999C40.5851 20.0458 40.6773 20.194 40.7653 20.344C40.8533 20.4943 40.9376 20.6464 41.0173 20.8001C41.0975 20.9542 41.1731 21.1096 41.2449 21.2668C41.3164 21.4243 41.3837 21.5828 41.4465 21.7431C41.5097 21.9036 41.5684 22.0653 41.6226 22.2279C41.6767 22.3909 41.7268 22.5549 41.7723 22.7199C41.8178 22.8853 41.8584 23.0514 41.8949 23.2181C41.9314 23.3852 41.9634 23.553 41.9908 23.7211C42.0183 23.8896 42.0412 24.0584 42.0597 24.2279C42.0781 24.3973 42.0916 24.5672 42.101 24.737C42.1101 24.9072 42.1146 25.0774 42.1146 25.2475Z" fill="#FFA000"/>
<mask id="mask2_1_155" style="mask-type:luminance" maskUnits="userSpaceOnUse" x="8" y="22" width="57" height="36">
<path d="M8.95404 22.9298H64.1333V57.6351H8.95404V22.9298Z" fill="white"/>
</mask>
<g mask="url(#mask2_1_155)">
<mask id="mask3_1_155" style="mask-type:luminance" maskUnits="userSpaceOnUse" x="8" y="22" width="57" height="36">
<path d="M10.6874 22.9298H62.3597C63.3171 22.9298 64.0931 23.6362 64.0931 24.5076V56.0573C64.0931 56.9287 63.3171 57.6351 62.3597 57.6351H10.6874C9.73005 57.6351 8.95404 56.9287 8.95404 56.0573V24.5076C8.95404 23.6362 9.73005 22.9298 10.6874 22.9298Z" fill="white"/>
</mask>
<g mask="url(#mask3_1_155)">
<path d="M8.95404 22.9298H64.0592V57.6351H8.95404V22.9298Z" fill="#963105"/>
</g>
</g>
<mask id="mask4_1_155" style="mask-type:luminance" maskUnits="userSpaceOnUse" x="8" y="22" width="57" height="39">
<path d="M8.45526 22.0889H64.5719V60.4815H8.45526V22.0889Z" fill="white"/>
</mask>
<g mask="url(#mask4_1_155)">
<path d="M13.1441 22.103H59.8835C62.4775 22.103 64.5723 23.9982 64.5723 26.3478V56.1619C64.5723 58.5005 62.4775 60.4066 59.8835 60.4066H13.1441C10.5501 60.4066 8.45526 58.5114 8.45526 56.1619V26.3478C8.45526 24.0092 10.5501 22.103 13.1441 22.103ZM10.7935 56.1619C10.7935 57.3257 11.8411 58.2786 13.1441 58.2786H59.8835C61.1865 58.2786 62.2341 57.3257 62.2341 56.1619V26.3478C62.2341 25.1843 61.1865 24.2311 59.8835 24.2311H13.1441C11.8411 24.2311 10.7935 25.1843 10.7935 26.3478V56.1619Z" fill="black"/>
</g>
<mask id="mask5_1_155" style="mask-type:luminance" maskUnits="userSpaceOnUse" x="38" y="34" width="27" height="14">
<path d="M38.8074 34.7988H64.5719V47.684H38.8074V34.7988Z" fill="white"/>
</mask>
<g mask="url(#mask5_1_155)">
<path d="M45.5745 34.8707C41.8599 34.8707 38.8522 37.7304 38.8522 41.2547C38.8522 44.7794 41.8599 47.6388 45.5745 47.6388H64.5723V45.5107H45.5745C43.102 45.5107 41.0929 43.6043 41.0929 41.2547C41.0929 38.9052 43.102 36.9987 45.5745 36.9987H64.5723V34.8707H45.5745Z" fill="black"/>
</g>
<path fill-rule="evenodd" clip-rule="evenodd" d="M48.205 41.2547C48.205 42.4295 47.1574 43.3827 45.8668 43.3827C44.5758 43.3827 43.5286 42.4295 43.5286 41.2547C43.5286 40.0799 44.5758 39.1267 45.8668 39.1267C47.1574 39.1267 48.205 40.0799 48.205 41.2547Z" fill="black"/>
<path d="M68.8596 21.8884C68.7633 21.8884 68.687 21.8638 68.6309 21.8145C68.5745 21.7652 68.5467 21.6994 68.5467 21.6172C68.5467 21.5378 68.5745 21.4727 68.6309 21.4214C68.687 21.3693 68.7633 21.3433 68.8596 21.3433C68.9578 21.3433 69.0345 21.368 69.0898 21.4173C69.1459 21.4666 69.1741 21.532 69.1741 21.6131C69.1741 21.6953 69.1455 21.7621 69.0883 21.8131C69.0319 21.8634 68.9559 21.8884 68.8596 21.8884Z" fill="white"/>
</svg>
