<svg width="24" height="24" viewBox="0 0 24 24" fill="none" xmlns="http://www.w3.org/2000/svg">
<path d="M15.75 7.5V3.75H20.25V21C20.2497 21.3599 20.1631 21.7144 19.9975 22.0339C19.832 22.3534 19.5923 22.6286 19.2985 22.8364C19.0047 23.0442 18.6654 23.1786 18.309 23.2283C17.9526 23.278 17.5894 23.2415 17.25 23.122" stroke="white" stroke-width="1.5" stroke-linecap="round" stroke-linejoin="round"/>
<path d="M21.75 3.75H14.25" stroke="white" stroke-width="1.5" stroke-linecap="round" stroke-linejoin="round"/>
<path d="M6.75 0.75H12.75" stroke="white" stroke-width="1.5" stroke-linecap="round" stroke-linejoin="round"/>
<path d="M11.25 8.4V0.75H8.25002V8.4C6.42895 8.77172 4.81078 9.80638 3.70922 11.3034C2.60766 12.8004 2.10119 14.6531 2.288 16.5023C2.4748 18.3515 3.34158 20.0655 4.72029 21.3119C6.09899 22.5583 7.8914 23.2485 9.75002 23.2485C11.6086 23.2485 13.401 22.5583 14.7797 21.3119C16.1585 20.0655 17.0252 18.3515 17.212 16.5023C17.3988 14.6531 16.8924 12.8004 15.7908 11.3034C14.6893 9.80638 13.0711 8.77172 11.25 8.4Z" stroke="white" stroke-width="1.5" stroke-linecap="round" stroke-linejoin="round"/>
<path d="M17.1 17.25H2.40002" stroke="white" stroke-width="1.5" stroke-linecap="round" stroke-linejoin="round"/>
</svg>
