<svg width="18" height="23" viewBox="0 0 18 23" fill="none" xmlns="http://www.w3.org/2000/svg">
<path d="M13.0636 2.4983H15.5017C15.9328 2.4983 16.3463 2.66956 16.651 2.97437C16.9558 3.27921 17.1271 3.69263 17.1271 4.12373V20.378C17.1271 20.8091 16.9558 21.2226 16.651 21.5273C16.3463 21.8321 15.9328 22.0034 15.5017 22.0034H2.49828C2.06719 22.0034 1.65376 21.8321 1.34893 21.5273C1.04411 21.2226 0.872854 20.8091 0.872854 20.378V4.12373C0.872854 3.69263 1.04411 3.27921 1.34893 2.97437C1.65376 2.66956 2.06719 2.4983 2.49828 2.4983H4.93642" stroke="white" stroke-width="1.71" stroke-linecap="round" stroke-linejoin="round"/>
<path d="M11.4381 0.872854H6.56184C5.66415 0.872854 4.93641 1.60058 4.93641 2.49828V3.31099C4.93641 4.20869 5.66415 4.93642 6.56184 4.93642H11.4381C12.3358 4.93642 13.0635 4.20869 13.0635 3.31099V2.49828C13.0635 1.60058 12.3358 0.872854 11.4381 0.872854Z" stroke="white" stroke-width="1.71" stroke-linecap="round" stroke-linejoin="round"/>
<path d="M7.86663 8.52852C7.48118 8.52852 7.16871 8.84099 7.16871 9.22646V11.1894H5.20576C4.82031 11.1894 4.50784 11.5019 4.50784 11.8874V14.1556C4.50784 14.5411 4.82031 14.8536 5.20576 14.8536H7.16871V16.8165C7.16871 17.2019 7.48118 17.5144 7.86663 17.5144H10.1349C10.5204 17.5144 10.8328 17.2019 10.8328 16.8165V14.8536H12.7958C13.1812 14.8536 13.4937 14.5411 13.4937 14.1556V11.8874C13.4937 11.5019 13.1812 11.1894 12.7958 11.1894H10.8328V9.22646C10.8328 8.84099 10.5204 8.52852 10.1349 8.52852H7.86663Z" stroke="white" stroke-width="1.71" stroke-linecap="round" stroke-linejoin="round"/>
</svg>
