<svg width="35" height="31" viewBox="0 0 35 31" fill="none" xmlns="http://www.w3.org/2000/svg">
<path d="M6.39596 21.8339C-4.20277 17.4457 -0.0199513 2.63367 7.33738 0.186313C10.3895 -0.828936 13.7574 2.53925 13.7358 4.6305C13.7264 5.53473 13.2511 6.41635 12.756 7.33485C12.1058 8.54084 11.4214 9.81042 11.712 11.2781C12.2241 13.8639 12.7976 18.2269 11.3198 20.298C9.84194 22.369 8.35577 22.6453 6.39596 21.8339Z" fill="#C94747"/>
<path d="M27.6625 0.186313C35.0199 2.63367 39.2028 17.4457 28.604 21.8339C26.6441 22.6453 25.158 22.369 23.6802 20.298C22.2024 18.2269 22.7759 13.8639 23.2879 11.2781C23.5785 9.81042 22.8942 8.54084 22.244 7.33485C21.7488 6.41635 21.2735 5.53473 21.2642 4.6305C21.2426 2.53925 24.6105 -0.828936 27.6625 0.186313Z" fill="#C94747"/>
<path d="M22.0734 14.1979C22.1403 15.1534 22.1409 15.1533 22.1415 15.1533L22.1426 15.1532L22.1448 15.153L22.1486 15.1527L22.154 15.1524L22.1568 15.1521C22.1551 15.1523 22.1468 15.1532 22.1329 15.1554C22.1049 15.1598 22.0558 15.169 21.993 15.1864C21.8651 15.2221 21.6965 15.2872 21.5314 15.4027C21.2488 15.6003 20.8332 16.0391 20.8332 17.1463V31C20.8332 31.0001 20.8332 31.0001 19.8577 31.0001C18.8821 31.0001 18.8821 30.9997 18.8821 30.9996V17.1463C18.8821 15.4547 19.5744 14.4194 20.3996 13.8425C20.7885 13.5707 21.1738 13.4236 21.4613 13.3436C21.6063 13.3033 21.7304 13.279 21.8234 13.2643C21.8701 13.2569 21.9095 13.252 21.9402 13.2486C21.9556 13.2469 21.969 13.2455 21.98 13.2446L21.9949 13.2433L22.0012 13.243L22.0039 13.2428L22.0052 13.2427C22.0059 13.2426 22.0064 13.2426 22.0734 14.1979Z" fill="#C94747"/>
<path d="M12.9267 14.1979C12.8598 15.1534 12.8591 15.1533 12.8585 15.1533L12.8574 15.1532L12.8552 15.153L12.8515 15.1527L12.846 15.1524C12.8442 15.1522 12.8432 15.1521 12.843 15.1521C12.8446 15.1523 12.8532 15.1532 12.8671 15.1554C12.8952 15.1598 12.9443 15.169 13.007 15.1864C13.1349 15.2221 13.3035 15.2872 13.4686 15.4027C13.7512 15.6003 14.1668 16.0391 14.1668 17.1463V31C14.1668 31.0001 14.1668 31.0001 15.1424 31.0001C16.118 31.0001 16.118 30.9997 16.118 30.9996V17.1463C16.118 15.4547 15.4256 14.4194 14.6004 13.8425C14.2116 13.5707 13.8263 13.4236 13.5387 13.3436C13.3938 13.3033 13.2697 13.279 13.1766 13.2643C13.1299 13.2569 13.0906 13.252 13.0598 13.2486C13.0443 13.2469 13.0311 13.2455 13.02 13.2446L13.005 13.2433L12.9989 13.243L12.9962 13.2428L12.9948 13.2427C12.9942 13.2426 12.9935 13.2426 12.9267 14.1979Z" fill="#C94747"/>
</svg>
