<svg width="23" height="23" viewBox="0 0 23 23" fill="none" xmlns="http://www.w3.org/2000/svg">
<path d="M10.6956 2.88769C11.9043 1.67902 13.5436 1 15.2529 1C16.9622 1 18.6015 1.67902 19.8102 2.88769C21.0188 4.09635 21.6979 5.73565 21.6979 7.44496C21.6979 9.15427 21.0188 10.7936 19.8102 12.0022L12.0022 19.8102C10.7936 21.0188 9.15427 21.6979 7.44496 21.6979C5.73565 21.6979 4.09635 21.0188 2.88769 19.8102C1.67902 18.6015 1 16.9622 1 15.2529C1 13.5436 1.67902 11.9043 2.88769 10.6956L10.6956 2.88769Z" stroke="white" stroke-width="1.71" stroke-linecap="round" stroke-linejoin="round"/>
<path d="M7.18994 6.39325L16.3044 15.5078" stroke="white" stroke-width="1.71" stroke-linecap="round" stroke-linejoin="round"/>
<path d="M9 15C9 18.8659 12.1341 22 16 22C19.8659 22 23 18.8659 23 15C23 11.1338 19.8659 8 16 8C12.1341 8 9 11.1338 9 15Z" fill="white"/>
<path fill-rule="evenodd" clip-rule="evenodd" d="M16.0001 20.4444C12.9932 20.4444 10.5557 18.0069 10.5557 15C10.5557 11.9931 12.9932 9.55554 16.0001 9.55554C19.007 9.55554 21.4446 11.9931 21.4446 15C21.4446 18.0069 19.007 20.4444 16.0001 20.4444ZM13.3557 12.4971C13.3557 12.3733 13.4048 12.2546 13.4923 12.1671C13.5799 12.0796 13.6986 12.0304 13.8223 12.0304H18.1779C18.3017 12.0304 18.4204 12.0796 18.5079 12.1671C18.5954 12.2546 18.6446 12.3733 18.6446 12.4971C18.6446 12.6209 18.5954 12.7396 18.5079 12.8271C18.4204 12.9146 18.3017 12.9638 18.1779 12.9638H17.1126C17.2215 13.1423 17.3062 13.3489 17.3547 13.586H18.1779C18.3017 13.586 18.4204 13.6352 18.5079 13.7227C18.5954 13.8102 18.6446 13.9289 18.6446 14.0527C18.6446 14.1764 18.5954 14.2951 18.5079 14.3826C18.4204 14.4702 18.3017 14.5193 18.1779 14.5193H17.3541C17.2854 14.8624 17.1264 15.1809 16.8936 15.4421C16.5931 15.7799 16.207 15.9903 15.853 16.1231C15.7867 16.148 15.7204 16.1704 15.6554 16.1906C16.1634 16.488 16.855 16.8191 17.6689 17.0222C17.7874 17.0537 17.8887 17.1305 17.951 17.2361C18.0133 17.3417 18.0315 17.4676 18.0018 17.5865C17.972 17.7054 17.8967 17.8078 17.792 17.8717C17.6873 17.9355 17.5618 17.9556 17.4424 17.9275C16.4518 17.6799 15.6302 17.2686 15.0578 16.9211C14.8274 16.7816 14.604 16.6311 14.3882 16.47C14.3882 16.47 14.42 16.5058 14.1406 16.2671C13.813 15.9871 14.014 15.4782 14.4442 15.4558C14.5553 15.4499 14.6658 15.4408 14.7756 15.4271C15.0315 15.3967 15.2831 15.337 15.5254 15.2492C15.7929 15.1487 16.0294 15.009 16.1958 14.822C16.2757 14.7329 16.3394 14.6304 16.384 14.5193H13.8223C13.6986 14.5193 13.5799 14.4702 13.4923 14.3826C13.4048 14.2951 13.3557 14.1764 13.3557 14.0527C13.3557 13.9289 13.4048 13.8102 13.4923 13.7227C13.5799 13.6352 13.6986 13.586 13.8223 13.586H16.3843C16.3324 13.4572 16.2522 13.3418 16.1498 13.2481C15.9864 13.0969 15.7845 13.0095 15.6271 12.9638H13.8223C13.6986 12.9638 13.5799 12.9146 13.4923 12.8271C13.4048 12.7396 13.3557 12.6209 13.3557 12.4971Z" fill="#4496FF"/>
</svg>
