<svg width="24" height="24" viewBox="0 0 24 24" fill="none" xmlns="http://www.w3.org/2000/svg">
<path fill-rule="evenodd" clip-rule="evenodd" d="M21.5382 15.1068H17.5033C15.6125 15.1068 14.0736 13.6581 14.0726 11.8781C14.0726 10.0962 15.6115 8.64669 17.5033 8.64575H21.5382C21.9508 8.64575 22.2857 8.9612 22.2857 9.34987C22.2857 9.73855 21.9508 10.054 21.5382 10.054H17.5033C16.4358 10.0549 15.5677 10.8726 15.5677 11.8772C15.5677 12.8808 16.4368 13.6985 17.5033 13.6985H21.5382C21.9508 13.6985 22.2857 14.014 22.2857 14.4026C22.2857 14.7913 21.9508 15.1068 21.5382 15.1068Z" fill="black"/>
<path fill-rule="evenodd" clip-rule="evenodd" d="M17.9595 12.523H17.6485C17.2358 12.523 16.9009 12.2075 16.9009 11.8189C16.9009 11.4302 17.2358 11.1147 17.6485 11.1147H17.9595C18.3721 11.1147 18.707 11.4302 18.707 11.8189C18.707 12.2075 18.3721 12.523 17.9595 12.523Z" fill="black"/>
<mask id="mask0_692_2537" style="mask-type:luminance" maskUnits="userSpaceOnUse" x="1" y="3" width="22" height="18">
<path fill-rule="evenodd" clip-rule="evenodd" d="M1.71429 3H22.2856V21H1.71429V3Z" fill="white"/>
</mask>
<g mask="url(#mask0_692_2537)">
<path fill-rule="evenodd" clip-rule="evenodd" d="M7.69234 4.40813C5.22042 4.40813 3.209 6.30268 3.209 8.63097V15.3689C3.209 17.6972 5.22042 19.5918 7.69234 19.5918H16.3082C18.7801 19.5918 20.7905 17.6972 20.7905 15.3689V8.63097C20.7905 6.30268 18.7801 4.40813 16.3082 4.40813H7.69234ZM16.3081 21.0001H7.69225C4.39603 21.0001 1.71381 18.4737 1.71381 15.369V8.63107C1.71381 5.52544 4.39603 3 7.69225 3H16.3081C19.6043 3 22.2855 5.52544 22.2855 8.63107V15.369C22.2855 18.4737 19.6043 21.0001 16.3081 21.0001Z" fill="black"/>
</g>
<path fill-rule="evenodd" clip-rule="evenodd" d="M12.364 8.66874H6.9826C6.56995 8.66874 6.23505 8.35329 6.23505 7.96462C6.23505 7.57594 6.56995 7.2605 6.9826 7.2605H12.364C12.7766 7.2605 13.1116 7.57594 13.1116 7.96462C13.1116 8.35329 12.7766 8.66874 12.364 8.66874Z" fill="black"/>
</svg>
