<svg width="24" height="24" viewBox="0 0 24 24" fill="none" xmlns="http://www.w3.org/2000/svg">
<g clip-path="url(#clip0_666_3755)">
<path d="M7.22356 12.7961C10.3012 12.7961 12.7961 10.3012 12.7961 7.22362C12.7961 4.14601 10.3012 1.65112 7.22356 1.65112C4.14595 1.65112 1.65106 4.14601 1.65106 7.22362C1.65106 10.3012 4.14595 12.7961 7.22356 12.7961Z" fill="#FF83A0"/>
<path d="M18.4402 9.78457C17.4082 9.77007 16.4111 10.1586 15.661 10.8676L13.4957 13.0329L19.1002 18.6372L21.2655 16.472C21.9744 15.7219 22.3629 14.7249 22.3484 13.6929C22.334 12.6609 21.9174 11.6752 21.1876 10.9453C20.4579 10.2155 19.4722 9.79909 18.4402 9.78457Z" fill="#FF83A0"/>
<path fill-rule="evenodd" clip-rule="evenodd" d="M13.4958 13.033L10.8528 15.6759C10.1473 16.4299 9.76386 17.4293 9.78395 18.4616C9.80403 19.494 10.2261 20.4778 10.9603 21.2038C11.6946 21.9296 12.6831 22.3406 13.7156 22.3488C14.7481 22.3573 15.7431 21.9624 16.489 21.2484L19.1002 18.6372L13.4958 13.033Z" fill="white"/>
<path d="M15.6611 10.8676C16.4111 10.1586 17.4082 9.77007 18.4402 9.78457C19.4722 9.79909 20.4579 10.2155 21.1878 10.9453C21.9176 11.6752 22.334 12.6609 22.3484 13.6929C22.3629 14.7249 21.9745 15.7219 21.2655 16.472L16.489 21.2483C15.7431 21.9624 14.7481 22.3573 13.7156 22.3488C12.6831 22.3405 11.6946 21.9296 10.9603 21.2038C10.2261 20.4777 9.80403 19.494 9.78395 18.4616C9.76386 17.4293 10.1473 16.4299 10.8528 15.6759L15.6611 10.8676Z" stroke="white" stroke-width="1.71" stroke-linecap="round" stroke-linejoin="round"/>
<path d="M13.4957 13.033L19.1002 18.6372" stroke="white" stroke-width="1.71" stroke-linecap="round" stroke-linejoin="round"/>
<path d="M7.22356 12.7961C10.3012 12.7961 12.7961 10.3012 12.7961 7.22362C12.7961 4.14601 10.3012 1.65112 7.22356 1.65112C4.14595 1.65112 1.65106 4.14601 1.65106 7.22362C1.65106 10.3012 4.14595 12.7961 7.22356 12.7961Z" stroke="white" stroke-width="1.71" stroke-linecap="round" stroke-linejoin="round"/>
<path d="M1.65106 7.22363H12.7961" stroke="white" stroke-width="1.71" stroke-linecap="round" stroke-linejoin="round"/>
</g>
<defs>
<clipPath id="clip0_666_3755">
<rect width="24" height="24" fill="white"/>
</clipPath>
</defs>
</svg>
