<svg width="137" height="105" viewBox="0 0 137 105" fill="none" xmlns="http://www.w3.org/2000/svg">
<path d="M101.949 37.0184C101.693 36.3079 101.064 35.7226 100.178 35.3651C100.37 33.7609 100.085 31.7952 99.5952 30.1774C99.181 28.8461 98.5289 27.3579 97.5319 25.8074C96.4774 24.2752 95.1779 22.6442 93.3537 21.1428C91.6227 19.5877 89.3909 18.1714 86.873 16.9248C64.9085 6.24147 34.581 18.8773 36.9357 35.3696C36.0557 35.7271 35.432 36.3079 35.1756 37.0138C29.9773 37.0852 25.7985 40.048 25.7985 43.7075C25.7985 47.367 29.9773 50.3338 35.1756 50.4052C35.5892 51.5582 37.011 52.4337 38.7889 52.4337C40.8925 52.4337 42.5885 51.2407 42.5885 49.7661V37.6574C42.5885 36.8173 42.0058 36.0978 41.1489 35.6107C42.099 31.4423 44.9254 27.0364 48.8882 24.302C54.7042 19.9544 64.7975 17.4433 75.8937 19.3376C80.1657 20.3119 84.367 21.9515 87.8693 24.579C91.7687 27.2643 94.9327 31.2899 95.9641 35.6107C93.7204 36.8887 94.5251 37.9926 94.5251 49.7661C94.5251 50.6867 95.236 51.4594 96.2442 51.9379V52.9654C96.2442 53.6135 96.005 54.252 95.5445 54.8019C90.5795 60.7355 90.2531 61.3386 82.753 63.1798C80.393 63.756 77.7298 64.0061 75.0368 64.5115C72.5546 62.6304 68.1776 63.8679 68.1776 66.3835C68.1776 69.5605 74.6464 70.2886 75.8997 67.1117C77.7179 66.7724 79.5883 66.5709 81.3484 66.1602C91.0221 63.9034 94.1868 62.563 99.3091 55.0698C99.7934 54.3594 100.05 53.573 100.05 52.7734V52.1121C101.005 51.7632 101.681 51.1516 101.949 50.4006C107.142 50.3292 111.314 47.367 111.314 43.7075C111.314 40.0525 107.142 37.0943 101.949 37.0184Z" fill="#100F0D"/>
<path d="M68.5681 80.3066C71.6746 76.964 74.3788 74.0909 77.0301 71.1915C80.136 67.7907 83.2657 66.6919 88.1726 67.9609C94.4082 69.5736 100.58 71.3788 106.618 73.3942C111.798 75.1234 114.706 78.2153 114.386 82.7999C114.223 85.0563 114.386 87.3218 114.345 89.5827C114.24 95.811 110.54 98.7109 102.492 98.7423C92.1004 98.7915 81.7098 98.7601 71.3192 98.7601C59.2438 98.7601 47.1631 98.7823 35.0937 98.7469C26.4572 98.7155 22.8148 95.8869 22.7686 89.3011C22.7508 87.1471 22.908 84.9889 22.7336 82.8445C22.3491 78.0725 25.5541 75.0069 30.8395 73.2554C36.8829 71.2538 43.0841 69.5159 49.3309 67.9295C54.6573 66.5709 56.307 67.179 59.6052 70.7221C62.4435 73.7739 65.3049 76.8167 68.5681 80.3066Z" fill="#100F0D"/>
<path d="M90.5795 40.5482C90.0087 46.1694 87.6949 53.3497 80.0078 58.8812C73.4928 63.5686 63.5508 63.6846 57.1401 58.8858C48.2585 52.2326 45.4559 43.7743 46.8308 34.6415C47.5476 29.8649 51.3472 26.1026 57.7288 24.503C67.2163 22.1211 76.4064 21.8846 84.7575 26.9736C89.6354 29.9409 90.7486 34.0156 90.5795 40.5482Z" fill="#100F0D"/>
<path d="M49.3444 62.1363C49.2506 62.1363 49.1766 62.116 49.1225 62.0755C49.0676 62.035 49.0405 61.9818 49.0405 61.9155C49.0405 61.8497 49.0676 61.7955 49.1225 61.7534C49.1766 61.7104 49.2506 61.6886 49.3444 61.6886C49.4409 61.6886 49.5162 61.7089 49.5691 61.7494C49.6233 61.7899 49.651 61.8441 49.651 61.9114C49.651 61.9778 49.6233 62.0319 49.5691 62.0735C49.5142 62.1155 49.4396 62.1363 49.3444 62.1363Z" fill="white"/>
</svg>
