<svg width="28" height="29" viewBox="0 0 28 29" fill="none" xmlns="http://www.w3.org/2000/svg">
<path fill-rule="evenodd" clip-rule="evenodd" d="M13.9998 6.29158C14.414 6.29158 14.7498 6.62737 14.7498 7.04158V13.2916H20.9998C21.414 13.2916 21.7498 13.6274 21.7498 14.0416C21.7498 14.4558 21.414 14.7916 20.9998 14.7916H14.7498V21.0416C14.7498 21.4558 14.414 21.7916 13.9998 21.7916C13.5855 21.7916 13.2498 21.4558 13.2498 21.0416V14.7916H6.99976C6.58554 14.7916 6.24976 14.4558 6.24976 14.0416C6.24976 13.6274 6.58554 13.2916 6.99976 13.2916H13.2498V7.04158C13.2498 6.62737 13.5855 6.29158 13.9998 6.29158Z" fill="#090F47"/>
</svg>
