<svg width="23" height="23" viewBox="0 0 23 23" fill="none" xmlns="http://www.w3.org/2000/svg">
<path d="M23 6.67151V12.0569H18.315C18.1772 12.0455 17.8787 11.8732 17.8098 11.7469L16.6156 9.48479C16.1448 8.58913 15.3295 8.08389 14.4568 8.12982C13.5841 8.17575 12.8377 8.76137 12.4588 9.71445L10.8742 13.6875L10.6445 13.0904C10.0819 11.6321 8.47426 10.5297 6.88963 10.5297L0.0344032 10.5642V6.67151C0.0344032 2.49177 2.52617 0 6.70591 0H16.3285C20.5082 0 23 2.49177 23 6.67151Z" fill="#240046"/>
<path d="M23 16.2941V13.7794H18.315C17.5457 13.7794 16.6385 13.2282 16.2826 12.5507L15.0884 10.2886C14.7668 9.67999 14.3075 9.71444 14.0549 10.346L11.4139 17.0175C11.1268 17.7639 10.6445 17.7639 10.346 17.0175L9.03692 13.7105C8.72688 12.9067 7.76233 12.2521 6.90112 12.2521L0.0344032 12.2866V16.2941C0.0344032 20.4049 2.44579 22.8852 6.49922 22.9541C6.62553 22.9656 6.76332 22.9656 6.88963 22.9656H16.0759C16.2481 22.9656 16.4204 22.9656 16.5811 22.9541C20.6116 22.8622 23 20.3934 23 16.2941Z" fill="#240046"/>
<path d="M0.0344484 12.2864V16.0872C0.0114828 15.7198 0 15.3293 0 14.9274V12.2864H0.0344484Z" fill="#240046"/>
</svg>
