<svg width="133" height="16" viewBox="0 0 133 16" fill="none" xmlns="http://www.w3.org/2000/svg">
<path d="M3.92525 12.1598C3.09073 12.1598 2.40004 11.9822 1.85316 11.6271C1.30629 11.2685 0.920987 10.7713 0.697266 10.1357C0.477095 9.49645 0.436257 8.75249 0.574751 7.90376C0.709695 7.0657 0.990234 6.33239 1.41637 5.70383C1.84251 5.07528 2.38406 4.587 3.04102 4.23899C3.69798 3.88743 4.43839 3.71165 5.26225 3.71165C6.09322 3.71165 6.78214 3.89098 7.32901 4.24964C7.87589 4.60476 8.26119 5.10192 8.48491 5.74112C8.70863 6.38033 8.75124 7.12429 8.61275 7.97301C8.47425 8.80753 8.19016 9.53906 7.76048 10.1676C7.33079 10.7962 6.78924 11.2862 6.13583 11.6378C5.48242 11.9858 4.74556 12.1598 3.92525 12.1598ZM4.14897 10.402C4.53249 10.402 4.87163 10.2937 5.16637 10.0771C5.46467 9.85689 5.71147 9.55859 5.90678 9.18217C6.10565 8.8022 6.24414 8.37251 6.32227 7.89311C6.40039 7.42081 6.40572 7.00178 6.33825 6.63601C6.27077 6.26669 6.12873 5.9755 5.91211 5.76243C5.69904 5.54936 5.40607 5.44283 5.0332 5.44283C4.64968 5.44283 4.30877 5.55291 4.01048 5.77308C3.71218 5.9897 3.46538 6.288 3.27006 6.66797C3.07475 7.04794 2.93803 7.4794 2.85991 7.96236C2.78533 8.43111 2.78001 8.85014 2.84393 9.21946C2.90785 9.58523 3.04812 9.87464 3.26474 10.0877C3.48136 10.2972 3.7761 10.402 4.14897 10.402ZM12.4853 7.26989L11.6969 12H9.43306L10.7967 3.81818H12.954L12.7196 5.26172H12.8102C13.0694 4.78232 13.4352 4.40412 13.9075 4.12713C14.3833 3.85014 14.9249 3.71165 15.5321 3.71165C16.1003 3.71165 16.5744 3.83594 16.9544 4.08452C17.3379 4.3331 17.6078 4.68643 17.764 5.14453C17.9238 5.60263 17.9505 6.15128 17.8439 6.79048L16.9703 12H14.7012L15.5055 7.19531C15.5872 6.6946 15.5233 6.30398 15.3137 6.02344C15.1078 5.73935 14.7757 5.5973 14.3176 5.5973C14.0123 5.5973 13.7317 5.663 13.476 5.79439C13.2203 5.92578 13.0055 6.11754 12.8315 6.36967C12.661 6.61825 12.5456 6.91832 12.4853 7.26989ZM23.12 15.0682C22.8288 15.0682 22.5625 15.0451 22.321 14.9989C22.0795 14.9563 21.8807 14.9013 21.7244 14.8338L22.5234 13.1399C22.7756 13.2216 23.0046 13.2642 23.2106 13.2678C23.4201 13.2713 23.6119 13.218 23.7859 13.108C23.9599 12.9979 24.1197 12.8168 24.2653 12.5646L24.4677 12.2184L22.9336 3.81818H25.2347L25.9272 9.83736H26.0124L28.7237 3.81818H31.2113L26.5291 12.8842C26.2983 13.3281 26.0249 13.7134 25.7088 14.0401C25.3963 14.3668 25.0252 14.619 24.5955 14.7965C24.1694 14.9776 23.6776 15.0682 23.12 15.0682ZM34.4526 12.1598C33.6181 12.1598 32.9274 11.9822 32.3805 11.6271C31.8336 11.2685 31.4483 10.7713 31.2246 10.1357C31.0044 9.49645 30.9636 8.75249 31.1021 7.90376C31.237 7.0657 31.5176 6.33239 31.9437 5.70383C32.3699 5.07528 32.9114 4.587 33.5684 4.23899C34.2253 3.88743 34.9657 3.71165 35.7896 3.71165C36.6206 3.71165 37.3095 3.89098 37.8564 4.24964C38.4032 4.60476 38.7885 5.10192 39.0123 5.74112C39.236 6.38033 39.2786 7.12429 39.1401 7.97301C39.0016 8.80753 38.7175 9.53906 38.2878 10.1676C37.8581 10.7962 37.3166 11.2862 36.6632 11.6378C36.0098 11.9858 35.2729 12.1598 34.4526 12.1598ZM34.6763 10.402C35.0598 10.402 35.399 10.2937 35.6937 10.0771C35.992 9.85689 36.2388 9.55859 36.4341 9.18217C36.633 8.8022 36.7715 8.37251 36.8496 7.89311C36.9277 7.42081 36.9331 7.00178 36.8656 6.63601C36.7981 6.26669 36.6561 5.9755 36.4395 5.76243C36.2264 5.54936 35.9334 5.44283 35.5605 5.44283C35.177 5.44283 34.8361 5.55291 34.5378 5.77308C34.2395 5.9897 33.9927 6.288 33.7974 6.66797C33.6021 7.04794 33.4654 7.4794 33.3873 7.96236C33.3127 8.43111 33.3074 8.85014 33.3713 9.21946C33.4352 9.58523 33.5755 9.87464 33.7921 10.0877C34.0087 10.2972 34.3034 10.402 34.6763 10.402ZM45.7718 8.51634L46.5549 3.81818H48.824L47.4604 12H45.2818L45.5268 10.5138H45.4416C45.1895 10.9933 44.8219 11.3786 44.339 11.6697C43.856 11.9609 43.3074 12.1065 42.693 12.1065C42.1461 12.1065 41.6845 11.9822 41.3081 11.7337C40.9352 11.4851 40.6706 11.1317 40.5144 10.6737C40.3581 10.2156 40.3315 9.6669 40.4345 9.0277L41.3081 3.81818H43.5772L42.7782 8.62287C42.7037 9.10582 42.7711 9.48757 42.9806 9.76811C43.1902 10.0487 43.5098 10.1889 43.9395 10.1889C44.2129 10.1889 44.4775 10.1268 44.7331 10.0025C44.9924 9.87464 45.2161 9.68643 45.4043 9.43785C45.5925 9.18928 45.715 8.8821 45.7718 8.51634ZM49.2755 12L50.6391 3.81818H52.839L52.5993 5.24574H52.6846C52.9189 4.73793 53.2332 4.3544 53.6274 4.09517C54.0251 3.83239 54.453 3.70099 54.9111 3.70099C55.0248 3.70099 55.1437 3.7081 55.268 3.7223C55.3959 3.73295 55.5095 3.75071 55.6089 3.77557L55.268 5.79439C55.1686 5.75888 55.0265 5.73047 54.8419 5.70916C54.6608 5.6843 54.4885 5.67188 54.3252 5.67188C53.9949 5.67188 53.6878 5.74467 53.4037 5.89027C53.1196 6.03232 52.8799 6.23118 52.6846 6.48686C52.4928 6.74254 52.3667 7.03729 52.3064 7.37109L51.5447 12H49.2755ZM64.6537 3.81818L64.3714 5.52273H59.3216L59.604 3.81818H64.6537ZM59.3909 12L60.8557 3.22692C60.9516 2.63388 61.1469 2.14204 61.4417 1.75142C61.74 1.36079 62.1075 1.06783 62.5443 0.872513C62.9846 0.677201 63.4605 0.579545 63.9719 0.579545C64.3199 0.579545 64.6341 0.606178 64.9147 0.659446C65.1988 0.712713 65.4047 0.760653 65.5326 0.803267L64.8561 2.50781C64.7709 2.4794 64.6661 2.45277 64.5418 2.42791C64.4175 2.40305 64.2861 2.39062 64.1476 2.39062C63.8174 2.39062 63.5741 2.46875 63.4179 2.625C63.2652 2.7777 63.1622 2.99254 63.1089 3.26953L61.6547 12H59.3909ZM64.671 12L66.0346 3.81818H68.3038L66.9402 12H64.671ZM67.4036 2.75284C67.0662 2.75284 66.7875 2.64098 66.5673 2.41726C66.3507 2.18999 66.2619 1.9201 66.301 1.6076C66.34 1.288 66.4927 1.01811 66.7591 0.79794C67.0254 0.574218 67.3272 0.462357 67.6646 0.462357C68.002 0.462357 68.2772 0.574218 68.4902 0.79794C68.7033 1.01811 68.7921 1.288 68.7566 1.6076C68.7211 1.9201 68.5701 2.18999 68.3038 2.41726C68.041 2.64098 67.7409 2.75284 67.4036 2.75284ZM68.7579 12L70.1215 3.81818H72.3215L72.0818 5.24574H72.167C72.4014 4.73793 72.7156 4.3544 73.1098 4.09517C73.5075 3.83239 73.9355 3.70099 74.3936 3.70099C74.5072 3.70099 74.6262 3.7081 74.7504 3.7223C74.8783 3.73295 74.9919 3.75071 75.0914 3.77557L74.7504 5.79439C74.651 5.75888 74.509 5.73047 74.3243 5.70916C74.1432 5.6843 73.971 5.67188 73.8076 5.67188C73.4774 5.67188 73.1702 5.74467 72.8861 5.89027C72.602 6.03232 72.3623 6.23118 72.167 6.48686C71.9752 6.74254 71.8492 7.03729 71.7888 7.37109L71.0271 12H68.7579ZM82.6673 6.15128L80.6058 6.27912C80.5952 6.09801 80.5455 5.93643 80.4567 5.79439C80.3714 5.64879 80.2454 5.53338 80.0785 5.44815C79.9151 5.36293 79.7092 5.32031 79.4606 5.32031C79.0877 5.32031 78.7557 5.40554 78.4645 5.57599C78.1733 5.74645 78.0082 5.96484 77.9691 6.23118C77.9371 6.40163 77.9815 6.54545 78.1023 6.66264C78.223 6.77983 78.4663 6.87926 78.832 6.96094L80.2702 7.25923C81.0373 7.42259 81.5913 7.69425 81.9322 8.07422C82.2766 8.45419 82.3991 8.95135 82.2997 9.5657C82.2109 10.0877 81.9819 10.544 81.6126 10.9347C81.2433 11.3217 80.7745 11.6236 80.2063 11.8402C79.6381 12.0533 79.0078 12.1598 78.3153 12.1598C77.2038 12.1598 76.3587 11.9325 75.7798 11.478C75.201 11.0234 74.9222 10.4073 74.9435 9.62962L77.1594 9.51243C77.1772 9.84624 77.2944 10.0984 77.511 10.2688C77.7276 10.4357 78.0241 10.521 78.4006 10.5245C78.8232 10.5316 79.1818 10.4446 79.4766 10.2635C79.7749 10.0788 79.9435 9.85511 79.9826 9.59233C80.011 9.40767 79.9577 9.25852 79.8228 9.14489C79.6914 9.03125 79.4499 8.93714 79.0984 8.86257L77.7347 8.58026C76.9606 8.42045 76.4048 8.13459 76.0675 7.72266C75.7301 7.31072 75.6147 6.78693 75.7212 6.15128C75.8065 5.64347 76.0178 5.20845 76.3551 4.84624C76.696 4.48047 77.1346 4.19993 77.6708 4.00462C78.2106 3.8093 78.8196 3.71165 79.4979 3.71165C80.5597 3.71165 81.3587 3.93004 81.8949 4.36683C82.4347 4.80362 82.6921 5.39844 82.6673 6.15128ZM89.034 3.81818L88.7517 5.52273H83.8192L84.1068 3.81818H89.034ZM85.545 1.85795H87.8142L86.5464 9.4858C86.5109 9.69531 86.5162 9.85866 86.5624 9.97585C86.6086 10.0895 86.6849 10.1694 86.7915 10.2156C86.9015 10.2617 87.0329 10.2848 87.1856 10.2848C87.2922 10.2848 87.4005 10.2759 87.5106 10.2582C87.6207 10.2369 87.7041 10.2209 87.7609 10.2102L87.8461 11.8988C87.7183 11.9379 87.5461 11.9805 87.3295 12.0266C87.1164 12.0728 86.8643 12.1012 86.5731 12.1119C86.0191 12.1332 85.5503 12.0604 85.1668 11.8935C84.7833 11.723 84.5081 11.462 84.3412 11.1104C84.1743 10.7589 84.1388 10.3168 84.2346 9.78409L85.545 1.85795ZM96.3276 12.1598C95.4931 12.1598 94.8024 11.9822 94.2555 11.6271C93.7086 11.2685 93.3233 10.7713 93.0996 10.1357C92.8794 9.49645 92.8386 8.75249 92.9771 7.90376C93.112 7.0657 93.3926 6.33239 93.8187 5.70383C94.2449 5.07528 94.7864 4.587 95.4434 4.23899C96.1003 3.88743 96.8407 3.71165 97.6646 3.71165C98.4956 3.71165 99.1845 3.89098 99.7314 4.24964C100.278 4.60476 100.664 5.10192 100.887 5.74112C101.111 6.38033 101.154 7.12429 101.015 7.97301C100.877 8.80753 100.593 9.53906 100.163 10.1676C99.7331 10.7962 99.1916 11.2862 98.5382 11.6378C97.8848 11.9858 97.1479 12.1598 96.3276 12.1598ZM96.5513 10.402C96.9348 10.402 97.274 10.2937 97.5687 10.0771C97.867 9.85689 98.1138 9.55859 98.3091 9.18217C98.508 8.8022 98.6465 8.37251 98.7246 7.89311C98.8027 7.42081 98.8081 7.00178 98.7406 6.63601C98.6731 6.26669 98.5311 5.9755 98.3145 5.76243C98.1014 5.54936 97.8084 5.44283 97.4355 5.44283C97.052 5.44283 96.7111 5.55291 96.4128 5.77308C96.1145 5.9897 95.8677 6.288 95.6724 6.66797C95.4771 7.04794 95.3404 7.4794 95.2623 7.96236C95.1877 8.43111 95.1824 8.85014 95.2463 9.21946C95.3102 9.58523 95.4505 9.87464 95.6671 10.0877C95.8837 10.2972 96.1784 10.402 96.5513 10.402ZM101.819 12L103.183 3.81818H105.383L105.143 5.24574H105.229C105.463 4.73793 105.777 4.3544 106.171 4.09517C106.569 3.83239 106.997 3.70099 107.455 3.70099C107.569 3.70099 107.688 3.7081 107.812 3.7223C107.94 3.73295 108.053 3.75071 108.153 3.77557L107.812 5.79439C107.713 5.75888 107.57 5.73047 107.386 5.70916C107.205 5.6843 107.032 5.67188 106.869 5.67188C106.539 5.67188 106.232 5.74467 105.948 5.89027C105.664 6.03232 105.424 6.23118 105.229 6.48686C105.037 6.74254 104.911 7.03729 104.85 7.37109L104.089 12H101.819ZM110.581 12.1332C109.956 12.1332 109.418 11.9734 108.967 11.6538C108.519 11.3306 108.199 10.8565 108.008 10.2315C107.82 9.60298 107.802 8.83239 107.954 7.91974C108.111 6.98224 108.391 6.20277 108.796 5.58132C109.201 4.95632 109.68 4.48935 110.234 4.1804C110.788 3.8679 111.365 3.71165 111.965 3.71165C112.42 3.71165 112.788 3.78977 113.068 3.94602C113.352 4.09872 113.571 4.29048 113.723 4.52131C113.876 4.74858 113.983 4.9723 114.043 5.19247H114.112L114.799 1.09091H117.063L115.252 12H113.015L113.233 10.6896H113.137C112.995 10.9169 112.807 11.1424 112.573 11.3661C112.342 11.5863 112.061 11.7692 111.731 11.9148C111.404 12.0604 111.021 12.1332 110.581 12.1332ZM111.582 10.3274C111.944 10.3274 112.271 10.228 112.562 10.0291C112.853 9.8267 113.098 9.54439 113.297 9.18217C113.496 8.81996 113.634 8.3956 113.713 7.90909C113.794 7.42259 113.796 7 113.718 6.64133C113.64 6.28267 113.487 6.00568 113.26 5.81037C113.036 5.61506 112.74 5.5174 112.37 5.5174C111.997 5.5174 111.667 5.61861 111.38 5.82102C111.095 6.02344 110.859 6.30398 110.671 6.66264C110.486 7.02131 110.355 7.43679 110.277 7.90909C110.199 8.38494 110.193 8.80575 110.261 9.17152C110.328 9.53374 110.472 9.81783 110.692 10.0238C110.913 10.2262 111.209 10.3274 111.582 10.3274ZM120.82 12.1598C119.982 12.1598 119.287 11.9893 118.737 11.6484C118.187 11.304 117.8 10.8175 117.576 10.1889C117.356 9.55682 117.318 8.8093 117.464 7.94638C117.606 7.10476 117.892 6.36612 118.322 5.73047C118.755 5.09482 119.298 4.59943 119.952 4.24432C120.605 3.8892 121.333 3.71165 122.135 3.71165C122.675 3.71165 123.164 3.79865 123.6 3.97266C124.041 4.14311 124.406 4.40234 124.698 4.75035C124.989 5.09482 125.188 5.52628 125.294 6.04474C125.404 6.56321 125.403 7.17045 125.289 7.86648L125.188 8.4897H118.284L118.503 7.08345H123.275C123.329 6.75675 123.307 6.46733 123.211 6.2152C123.116 5.96307 122.956 5.76598 122.732 5.62393C122.508 5.47834 122.233 5.40554 121.906 5.40554C121.573 5.40554 121.26 5.48722 120.969 5.65057C120.678 5.81392 120.433 6.02876 120.234 6.2951C120.039 6.55788 119.912 6.84375 119.856 7.1527L119.605 8.5483C119.534 8.97798 119.548 9.33487 119.648 9.61896C119.751 9.90305 119.928 10.1161 120.181 10.2582C120.433 10.3967 120.752 10.4659 121.139 10.4659C121.392 10.4659 121.628 10.4304 121.848 10.3594C122.072 10.2884 122.27 10.1836 122.444 10.0451C122.618 9.90305 122.76 9.72727 122.871 9.51776L124.943 9.65625C124.751 10.1605 124.46 10.6009 124.069 10.9773C123.678 11.3501 123.208 11.6413 122.657 11.8509C122.111 12.0568 121.498 12.1598 120.82 12.1598ZM126.092 12L127.456 3.81818H129.655L129.416 5.24574H129.501C129.735 4.73793 130.05 4.3544 130.444 4.09517C130.842 3.83239 131.269 3.70099 131.728 3.70099C131.841 3.70099 131.96 3.7081 132.084 3.7223C132.212 3.73295 132.326 3.75071 132.425 3.77557L132.084 5.79439C131.985 5.75888 131.843 5.73047 131.658 5.70916C131.477 5.6843 131.305 5.67188 131.142 5.67188C130.811 5.67188 130.504 5.74467 130.22 5.89027C129.936 6.03232 129.696 6.23118 129.501 6.48686C129.309 6.74254 129.183 7.03729 129.123 7.37109L128.361 12H126.092Z" fill="#9468AC"/>
</svg>
