<svg width="18" height="23" viewBox="0 0 18 23" fill="none" xmlns="http://www.w3.org/2000/svg">
<path d="M12.9411 2.59216H15.3293C15.7515 2.59216 16.1566 2.75991 16.4551 3.05849C16.7536 3.35708 16.9214 3.76204 16.9214 4.18431V20.1057C16.9214 20.528 16.7536 20.933 16.4551 21.2315C16.1566 21.5301 15.7515 21.6979 15.3293 21.6979H2.59214C2.16987 21.6979 1.76491 21.5301 1.46632 21.2315C1.16775 20.933 1 20.528 1 20.1057V4.18431C1 3.76204 1.16775 3.35708 1.46632 3.05849C1.76491 2.75991 2.16987 2.59216 2.59214 2.59216H4.98036" stroke="white" stroke-width="1.71" stroke-linecap="round" stroke-linejoin="round"/>
<path d="M11.349 1H6.57261C5.6933 1 4.98047 1.71283 4.98047 2.59214V3.38821C4.98047 4.26752 5.6933 4.98036 6.57261 4.98036H11.349C12.2283 4.98036 12.9412 4.26752 12.9412 3.38821V2.59214C12.9412 1.71283 12.2283 1 11.349 1Z" stroke="white" stroke-width="1.71" stroke-linecap="round" stroke-linejoin="round"/>
<path d="M7.85057 8.4989C7.47301 8.4989 7.16693 8.80497 7.16693 9.18255V11.1053H5.24418C4.86662 11.1053 4.56055 11.4114 4.56055 11.789V14.0108C4.56055 14.3883 4.86662 14.6944 5.24418 14.6944H7.16693V16.6171C7.16693 16.9946 7.47301 17.3008 7.85057 17.3008H10.0724C10.45 17.3008 10.756 16.9946 10.756 16.6171V14.6944H12.6788C13.0563 14.6944 13.3624 14.3884 13.3624 14.0108V11.789C13.3624 11.4114 13.0563 11.1053 12.6788 11.1053H10.756V9.18255C10.756 8.80497 10.45 8.4989 10.0724 8.4989H7.85057Z" stroke="white" stroke-width="1.71" stroke-linecap="round" stroke-linejoin="round"/>
</svg>
