<svg width="21" height="36" viewBox="0 0 21 36" fill="none" xmlns="http://www.w3.org/2000/svg">
<path d="M5.6121 15.2038L10.8601 14.8431C10.8601 17.7282 17.2813 19.0505 17.2813 21.3344C17.2813 22.9573 15.7377 23.378 15.7377 23.378C15.7377 23.378 20.6153 25.1811 20.6153 30.2299C20.6153 34.2569 17.343 36 13.4533 36H7.0939C7.0939 36 6.6617 34.7979 7.46435 30.5304C9.00789 22.1759 2.77198 23.5583 5.6121 15.2038Z" fill="#E84D88"/>
<path d="M17.6517 26.8641L17.2813 26.0226L16.6021 25.8423C14.9351 25.8423 14.4412 26.8641 13.5768 26.8641V30.29C13.5768 30.29 14.2559 30.8911 16.9108 30.8911C18.2074 30.8911 19.0718 30.0496 19.4422 28.2465C19.8744 26.804 17.6517 26.8641 17.6517 26.8641Z" fill="#FFDD67"/>
<path d="M16.6021 25.8423C16.6021 25.8423 17.343 26.0226 17.343 26.4433C17.343 26.6837 16.4786 26.3832 15.8612 27.0444C16.7256 26.6236 17.7134 26.8641 17.7134 26.8641C18.0839 26.5034 17.7752 25.8423 16.6021 25.8423Z" fill="#EBA352"/>
<path opacity="0.3" d="M14.1942 26.5635C10.6131 25.8423 7.03213 24.7003 7.03213 24.7003L7.5878 29.2682L7.46432 29.9895C7.46432 29.9895 9.62528 31.1315 14.1324 31.4921V31.1315C14.1324 31.1315 17.4665 31.6123 18.5161 30.4102C16.8491 31.1315 14.1942 30.29 14.1942 30.29V26.5635ZM8.14348 17.7281L5.61207 22.0557L6.41471 23.5583L8.14348 17.7281Z" fill="#231F20"/>
<path d="M4.19204 15.2037C4.19204 15.2037 -0.562066 22.2961 0.0553513 25.2412C0.734509 28.6071 13.8237 30.5304 13.8237 30.5304L14.009 26.6837C14.009 26.6837 5.92081 24.8205 4.8712 23.4381C5.55036 21.9355 8.14351 17.668 8.14351 17.668L4.19204 15.2037Z" fill="#E84D88"/>
<path d="M12.7124 14.6026L7.52607 5.70715L7.40259 14.9032C9.56355 15.8047 10.7984 14.9032 10.7984 14.9032C11.4775 13.7011 12.7124 14.6026 12.7124 14.6026Z" fill="#EBA352"/>
<path d="M5.36512 4.26474C7.46434 0.237734 10.8601 0.478152 10.8601 0.478152C15.1203 -1.38509 19.6892 2.64192 20.5536 4.92589C22.3441 9.55395 18.2074 11.4172 17.6517 10.9965L8.82266 8.29175C8.82266 8.29175 7.03215 10.0949 7.83479 13.7012C8.63743 17.2473 4.93293 19.8919 4.93293 19.8919C4.93293 19.8919 1.29017 12.1986 5.36512 4.26474Z" fill="#FFB300"/>
<path d="M19.6274 6.2481C19.7509 4.98591 17.096 5.22633 15.676 6.60873C12.5889 9.67407 11.6628 8.89271 11.6628 8.89271C11.848 8.65229 11.9715 8.35176 12.0332 8.05124C12.3419 6.84915 11.9097 5.70716 10.9836 5.52685C10.0575 5.34653 9.00786 6.188 8.69915 7.39009C8.39044 8.47197 8.76089 9.49375 9.50179 9.85438C8.39044 13.1601 9.44005 13.2202 11.0453 14.4223C14.5029 17.1871 15.0585 16.4659 15.429 15.384C15.6142 14.9032 15.9847 15.1436 16.4169 15.0835C16.4169 15.0835 16.4786 14.783 16.7873 14.0016C17.0343 13.2202 17.8369 13.3404 17.59 12.9197C17.343 12.499 17.2195 12.2586 17.4047 12.0181C17.4665 11.8979 18.2691 12.2586 18.5161 11.8378C18.9483 11.1767 17.8369 10.9964 18.0221 9.67407C18.0221 8.95281 19.3805 8.8326 19.6274 6.2481Z" fill="#FFDD67"/>
<path d="M16.4169 13.3405C16.6638 13.3405 16.8491 13.2804 17.0343 13.2203C17.2195 13.1602 17.4047 13.04 17.4047 12.7395C17.5282 12.7996 17.5282 12.9799 17.5282 13.1602C17.4665 13.3405 17.343 13.4608 17.2195 13.581C17.096 13.7012 16.9726 13.7613 16.8491 13.8214C16.9108 13.9416 16.9108 14.1219 16.8491 14.3022C16.7873 14.4825 16.7256 14.6027 16.6638 14.723C16.5404 14.8432 16.4786 14.9634 16.3551 15.0235C16.3551 14.723 16.4169 14.4825 16.4169 14.3022C16.4169 14.2421 16.3551 14.1219 16.3551 14.0618C16.2934 14.0017 16.2317 13.8815 16.1699 13.8214L15.8612 13.3405H16.4169Z" fill="#C94747"/>
<path d="M10.9219 6.24811C11.1689 6.36832 11.3541 6.54863 11.4158 6.78905C11.5393 7.02947 11.5393 7.32999 11.4776 7.57041C11.4158 7.81083 11.3541 7.99114 11.2306 8.17146C11.3541 8.17146 11.4158 8.23156 11.4776 8.29167C11.3541 8.29167 11.2306 8.35177 11.1689 8.41188C11.1071 8.47198 10.9836 8.53208 10.9219 8.59219C10.8602 8.65229 10.7984 8.7124 10.7367 8.83261C10.6749 8.89271 10.6749 9.01292 10.6132 9.19323C10.4897 9.13313 10.428 8.95282 10.428 8.83261C10.428 8.65229 10.4897 8.47198 10.6132 8.35177C10.7367 8.23156 10.8602 8.11135 11.0454 8.11135H11.1689C11.2306 7.63051 11.2306 7.26989 11.1071 6.90926C11.0454 6.72895 10.9219 6.54863 10.7367 6.42842C10.6132 6.30821 10.428 6.1279 10.2427 6.00769C10.428 6.0678 10.6749 6.1279 10.9219 6.24811Z" fill="#664E27"/>
<path d="M17.343 9.49384C17.4047 9.25343 17.4665 9.13322 17.59 9.01301C17.7134 8.8928 17.8369 8.71248 17.9604 8.53217C18.0839 8.35186 18.1456 8.05133 18.1456 7.81092C18.0839 7.5705 17.9604 7.39018 17.7752 7.33008C17.8369 7.51039 17.8369 7.75081 17.8369 7.87102C17.8369 8.05133 17.7752 8.17154 17.6517 8.35186C17.59 8.53217 17.4047 8.71248 17.343 8.8928C17.2195 9.01301 17.1578 9.31353 17.343 9.49384Z" fill="#EBA352"/>
<path d="M15.6142 7.81084C15.7995 7.99116 15.8612 8.23158 15.9847 8.47199C16.0464 8.71241 16.1699 8.95283 16.3551 9.13315C16.4786 9.37356 16.7256 9.55388 16.9726 9.67409C17.2195 9.7943 17.59 9.7943 17.8369 9.61398C17.343 9.43367 17.096 9.13314 16.8491 8.77252C16.7256 8.5922 16.6021 8.41189 16.4169 8.17147C16.1699 7.93105 15.923 7.75074 15.6142 7.81084Z" fill="#664E27"/>
</svg>
