<svg width="58" height="40" viewBox="0 0 58 40" fill="none" xmlns="http://www.w3.org/2000/svg">
<path d="M47.1424 34.4517C47.1424 31.3931 49.5666 28.9034 52.5711 28.9034C55.5639 28.9034 57.9999 31.3811 57.9999 34.4517C57.9999 37.5103 55.5756 40 52.5711 40C49.5784 40 47.1424 37.5103 47.1424 34.4517ZM24.7659 40C27.7589 40 30.1947 37.5221 30.1947 34.4517C30.1947 31.3931 27.7704 28.9034 24.7659 28.9034C21.7617 28.9034 19.3372 31.3811 19.3372 34.4517C19.3372 37.5103 21.7732 40 24.7659 40Z" fill="#00BF63"/>
<path d="M41.4698 28.5121C41.4698 28.5121 40.9595 29.8754 42.305 29.8754C45.3443 29.8754 45.321 31.6894 45.321 31.6894H38.7671L39.5792 28.5121H41.4698Z" fill="#7ED957"/>
<path d="M45.7271 35.5542C44.5669 32.448 45.7386 28.8678 48.6387 27.137C51.5385 25.4059 55.1693 26.1291 57.2458 28.6782L45.7271 35.5542Z" fill="#7ED957"/>
<path d="M34.7653 24.8131C32.2945 29.2944 35.5308 31.6894 35.5308 31.6894H42.3865C43.2449 31.3575 45.1471 29.3894 46.3884 26.4731C47.6297 23.5565 43.3376 14.4042 43.3376 14.4042C45.1471 12.0686 49.8684 13.1356 49.8684 13.1356V18.1031L47.1424 17.3205L51.0516 25.5008L43.8131 34.4517H18.4788L23.722 24.8131H34.7653Z" fill="#00BF63"/>
<path d="M49.8682 34.4517C49.8682 32.9223 51.0745 31.6894 52.5709 31.6894C54.0674 31.6894 55.2737 32.9223 55.2737 34.4517C55.2737 35.9809 54.0674 37.2139 52.5709 37.2139C51.0745 37.2139 49.8682 35.9809 49.8682 34.4517ZM24.7657 37.2139C26.2622 37.2139 27.4687 35.9809 27.4687 34.4517C27.4687 32.9223 26.2622 31.6894 24.7657 31.6894C23.2695 31.6894 22.063 32.9223 22.063 34.4517C22.063 35.9809 23.2695 37.2139 24.7657 37.2139Z" fill="#C1FF72"/>
<path d="M36.5746 24.8131H21.2393V21.8019H36.5746V24.8131ZM25.6241 26.3308C21.4945 26.3308 17.1445 29.9704 17.1445 34.4517H32.0969C32.0969 28.9507 31.0995 26.3308 25.6241 26.3308ZM40.6461 13.9182C39.5325 13.3372 38.6277 7.58727 35.3217 7.78893C32.0042 7.97858 30.5773 14.9852 30.1945 16.8345L35.3333 17.3205C35.7161 15.3762 36.853 12.8868 36.853 12.8868C36.853 12.8868 37.5141 16.2418 39.1846 16.5381C40.159 16.7042 42.0033 16.9412 43.3836 17.1073L43.7202 14.5939C42.5948 14.4636 41.2493 14.2263 40.6461 13.9182Z" fill="#7ED957"/>
<mask id="mask0_328_160" style="mask-type:luminance" maskUnits="userSpaceOnUse" x="33" y="0" width="14" height="18">
<path d="M33.5085 0H46.0065V17.3517H33.5085V0Z" fill="white"/>
</mask>
<g mask="url(#mask0_328_160)">
<path d="M40.1937 3.40234C40.1937 5.28751 38.6972 6.80492 36.8644 6.80492C35.0201 6.80492 33.5352 5.27549 33.5352 3.40234C33.5352 1.5292 35.0201 0 36.8644 0C38.6972 0 40.1937 1.5292 40.1937 3.40234ZM45.5296 14.7955C45.5296 14.7955 44.7175 14.7362 43.7316 14.6057L43.3953 17.1191C44.3927 17.2376 45.1467 17.3206 45.1467 17.3206C46.098 16.4432 46.2373 16.2536 45.5296 14.7955Z" fill="#C1FF72"/>
</g>
<path d="M27.1439 21.8019H15.1497V9.92291H27.1439V21.8019ZM19.6389 25.5008C19.6389 25.335 19.4996 25.1927 19.3371 25.1927H10.1035C9.94126 25.1927 9.80203 25.335 9.80203 25.5008C9.80203 25.6669 9.94126 25.809 10.1035 25.809H19.3371C19.5112 25.809 19.6389 25.6669 19.6389 25.5008ZM16.5996 28.0261C16.5996 27.86 16.4604 27.7177 16.2981 27.7177H2.29681C2.13453 27.7177 1.9953 27.86 1.9953 28.0261C1.9953 28.1919 2.13453 28.3342 2.29681 28.3342H16.2981C16.4604 28.3342 16.5996 28.204 16.5996 28.0261ZM19.6389 32.4125C19.6389 32.2466 19.4996 32.1043 19.3371 32.1043H7.81848C7.65597 32.1043 7.51674 32.2466 7.51674 32.4125C7.51674 32.5786 7.65597 32.7209 7.81848 32.7209H19.3371C19.5112 32.7209 19.6389 32.5786 19.6389 32.4125ZM22.3649 30.5393C22.3649 30.3735 22.2257 30.2312 22.0632 30.2312H11.716C11.5537 30.2312 11.4145 30.3735 11.4145 30.5393C11.4145 30.7054 11.5537 30.8477 11.716 30.8477H22.0632C22.2372 30.8477 22.3649 30.7054 22.3649 30.5393ZM13.9432 18.9805C13.9432 18.8144 13.8039 18.6721 13.6417 18.6721H0.301737C0.139228 18.6721 0 18.8144 0 18.9805C0 19.1464 0.139228 19.2887 0.301737 19.2887H13.6299C13.8039 19.2887 13.9432 19.1464 13.9432 18.9805ZM13.398 16.2536C13.398 16.0877 13.2588 15.9454 13.0965 15.9454H4.29212C4.12961 15.9454 3.99038 16.0877 3.99038 16.2536C3.99038 16.4197 4.12961 16.562 4.29212 16.562H13.0965C13.2588 16.562 13.398 16.4197 13.398 16.2536Z" fill="#C1FF72"/>
<mask id="mask1_328_160" style="mask-type:luminance" maskUnits="userSpaceOnUse" x="30" y="0" width="14" height="29">
<path d="M30.0369 0H43.1135V28.5283H30.0369V0Z" fill="white"/>
</mask>
<g mask="url(#mask1_328_160)">
<path d="M42.2817 2.12216L33.5352 3.56843C33.5352 3.50906 33.5237 3.46171 33.5237 3.40234C33.5237 1.5292 35.0202 0 36.8645 0C38.2681 0 39.4628 0.889105 39.9501 2.13394L42.2236 1.76643L42.2817 2.12216ZM30.1944 16.8345C29.8118 18.6839 30.2873 21.8019 32.0968 21.8019H36.5745C39.2424 21.8019 40.008 24.4339 38.8596 28.5121H41.806C43.2328 22.8689 43.7084 21.2092 41.806 20.2371C39.9038 19.2649 34.9506 19.2649 35.3332 17.3206L30.1944 16.8345Z" fill="#00BF63"/>
</g>
</svg>
