<svg width="23" height="23" viewBox="0 0 23 23" fill="none" xmlns="http://www.w3.org/2000/svg">
<path d="M10.6175 2.76008C11.8339 1.54374 13.4836 0.860405 15.2037 0.860405C16.9239 0.860405 18.5735 1.54374 19.79 2.76008C21.0062 3.9764 21.6896 5.62611 21.6896 7.34626C21.6896 9.06642 21.0062 10.7161 19.79 11.9325L11.9325 19.79C10.7161 21.0062 9.06642 21.6896 7.34626 21.6896C5.62611 21.6896 3.9764 21.0062 2.76008 19.79C1.54374 18.5735 0.860405 16.9239 0.860405 15.2037C0.860405 13.4836 1.54374 11.8339 2.76008 10.6175L10.6175 2.76008Z" stroke="white" stroke-width="1.71" stroke-linecap="round" stroke-linejoin="round"/>
<path d="M7.08962 6.28794L16.262 15.4603" stroke="white" stroke-width="1.71" stroke-linecap="round" stroke-linejoin="round"/>
<path d="M8.91117 14.9492C8.91117 18.8396 12.0652 21.9937 15.9556 21.9937C19.846 21.9937 23 18.8396 23 14.9492C23 11.0585 19.846 7.90482 15.9556 7.90482C12.0652 7.90482 8.91117 11.0585 8.91117 14.9492Z" fill="white"/>
<path fill-rule="evenodd" clip-rule="evenodd" d="M15.9556 20.4282C12.9296 20.4282 10.4766 17.9752 10.4766 14.9492C10.4766 11.9233 12.9296 9.47023 15.9556 9.47023C18.9815 9.47023 21.4346 11.9233 21.4346 14.9492C21.4346 17.9752 18.9815 20.4282 15.9556 20.4282ZM13.2943 12.4305C13.2943 12.3059 13.3438 12.1864 13.4319 12.0984C13.52 12.0103 13.6394 11.9608 13.764 11.9608H18.1472C18.2717 11.9608 18.3912 12.0103 18.4792 12.0984C18.5673 12.1864 18.6168 12.3059 18.6168 12.4305C18.6168 12.555 18.5673 12.6745 18.4792 12.7625C18.3912 12.8506 18.2717 12.9001 18.1472 12.9001H17.0752C17.1847 13.0798 17.2699 13.2877 17.3187 13.5263H18.1472C18.2717 13.5263 18.3912 13.5757 18.4792 13.6638C18.5673 13.7519 18.6168 13.8713 18.6168 13.9959C18.6168 14.1204 18.5673 14.2399 18.4792 14.328C18.3912 14.416 18.2717 14.4655 18.1472 14.4655H17.3181C17.249 14.8107 17.089 15.1313 16.8548 15.3941C16.5523 15.7341 16.1638 15.9458 15.8075 16.0795C15.7408 16.1045 15.6741 16.1271 15.6087 16.1474C16.1199 16.4467 16.8159 16.7798 17.635 16.9843C17.7542 17.016 17.8562 17.0933 17.9188 17.1995C17.9815 17.3058 17.9999 17.4325 17.9699 17.5521C17.94 17.6718 17.8642 17.7749 17.7588 17.8391C17.6535 17.9033 17.5271 17.9235 17.407 17.8954C16.4102 17.6461 15.5833 17.2322 15.0072 16.8825C14.7754 16.7422 14.5506 16.5907 14.3335 16.4286C14.3335 16.4286 14.3654 16.4646 14.0843 16.2244C13.7546 15.9426 13.9568 15.4304 14.3898 15.4079C14.5016 15.4019 14.6127 15.3929 14.7233 15.3791C14.9808 15.3485 15.234 15.2884 15.4778 15.2C15.7471 15.0989 15.985 14.9583 16.1525 14.7701C16.2329 14.6804 16.297 14.5773 16.3419 14.4655H13.764C13.6394 14.4655 13.52 14.416 13.4319 14.328C13.3438 14.2399 13.2943 14.1204 13.2943 13.9959C13.2943 13.8713 13.3438 13.7519 13.4319 13.6638C13.52 13.5757 13.6394 13.5263 13.764 13.5263H16.3422C16.2899 13.3967 16.2093 13.2805 16.1062 13.1862C15.9418 13.0341 15.7386 12.9461 15.5802 12.9001H13.764C13.6394 12.9001 13.52 12.8506 13.4319 12.7625C13.3438 12.6745 13.2943 12.555 13.2943 12.4305Z" fill="#4496FF"/>
</svg>
