<svg width="93" height="32" viewBox="0 0 93 32" fill="none" xmlns="http://www.w3.org/2000/svg">
<rect x="7" y="2" width="80" height="28" rx="14" fill="white" fill-opacity="0.3" stroke="#541919" stroke-width="3"/>
<path d="M18.5438 9.36364H20.9756V17.4773C20.9756 18.2273 20.807 18.8788 20.4699 19.4318C20.1366 19.9848 19.6726 20.411 19.0779 20.7102C18.4832 21.0095 17.7919 21.1591 17.004 21.1591C16.3032 21.1591 15.6669 21.036 15.0949 20.7898C14.5267 20.5398 14.076 20.161 13.7426 19.6534C13.4093 19.142 13.2445 18.5 13.2483 17.7273H15.6972C15.7048 18.0341 15.7673 18.2973 15.8847 18.517C16.0059 18.733 16.1707 18.8996 16.379 19.017C16.5911 19.1307 16.8411 19.1875 17.129 19.1875C17.432 19.1875 17.6877 19.1231 17.896 18.9943C18.1082 18.8617 18.2691 18.6686 18.379 18.4148C18.4888 18.161 18.5438 17.8485 18.5438 17.4773V9.36364ZM26.4994 21.1705C25.6168 21.1705 24.8536 20.983 24.2096 20.608C23.5695 20.2292 23.0752 19.7027 22.7267 19.0284C22.3782 18.3504 22.2039 17.5644 22.2039 16.6705C22.2039 15.7689 22.3782 14.9811 22.7267 14.3068C23.0752 13.6288 23.5695 13.1023 24.2096 12.7273C24.8536 12.3485 25.6168 12.1591 26.4994 12.1591C27.382 12.1591 28.1433 12.3485 28.7835 12.7273C29.4274 13.1023 29.9236 13.6288 30.2721 14.3068C30.6206 14.9811 30.7949 15.7689 30.7949 16.6705C30.7949 17.5644 30.6206 18.3504 30.2721 19.0284C29.9236 19.7027 29.4274 20.2292 28.7835 20.608C28.1433 20.983 27.382 21.1705 26.4994 21.1705ZM26.5108 19.2955C26.9123 19.2955 27.2475 19.1818 27.5164 18.9545C27.7854 18.7235 27.988 18.4091 28.1244 18.0114C28.2646 17.6136 28.3346 17.161 28.3346 16.6534C28.3346 16.1458 28.2646 15.6932 28.1244 15.2955C27.988 14.8977 27.7854 14.5833 27.5164 14.3523C27.2475 14.1212 26.9123 14.0057 26.5108 14.0057C26.1055 14.0057 25.7646 14.1212 25.488 14.3523C25.2153 14.5833 25.0089 14.8977 24.8687 15.2955C24.7324 15.6932 24.6642 16.1458 24.6642 16.6534C24.6642 17.161 24.7324 17.6136 24.8687 18.0114C25.0089 18.4091 25.2153 18.7235 25.488 18.9545C25.7646 19.1818 26.1055 19.2955 26.5108 19.2955ZM31.9607 21V12.2727H34.3812V21H31.9607ZM33.1766 11.1477C32.8168 11.1477 32.5081 11.0284 32.2505 10.7898C31.9967 10.5473 31.8698 10.2576 31.8698 9.92045C31.8698 9.58712 31.9967 9.30114 32.2505 9.0625C32.5081 8.82008 32.8168 8.69886 33.1766 8.69886C33.5365 8.69886 33.8433 8.82008 34.0971 9.0625C34.3547 9.30114 34.4835 9.58712 34.4835 9.92045C34.4835 10.2576 34.3547 10.5473 34.0971 10.7898C33.8433 11.0284 33.5365 11.1477 33.1766 11.1477ZM38.3326 15.9545V21H35.9121V12.2727H38.2189V13.8125H38.3212C38.5144 13.3049 38.8382 12.9034 39.2928 12.608C39.7473 12.3087 40.2985 12.1591 40.9462 12.1591C41.5523 12.1591 42.0807 12.2917 42.5314 12.5568C42.9822 12.822 43.3326 13.2008 43.5826 13.6932C43.8326 14.1818 43.9576 14.7652 43.9576 15.4432V21H41.5371V15.875C41.5409 15.3409 41.4045 14.9242 41.128 14.625C40.8515 14.322 40.4708 14.1705 39.986 14.1705C39.6602 14.1705 39.3723 14.2405 39.1223 14.3807C38.8761 14.5208 38.6829 14.7254 38.5428 14.9943C38.4064 15.2595 38.3363 15.5795 38.3326 15.9545ZM51.1728 15.9545V21H48.7523V12.2727H51.0592V13.8125H51.1614C51.3546 13.3049 51.6785 12.9034 52.133 12.608C52.5876 12.3087 53.1387 12.1591 53.7864 12.1591C54.3925 12.1591 54.9209 12.2917 55.3717 12.5568C55.8224 12.822 56.1728 13.2008 56.4228 13.6932C56.6728 14.1818 56.7978 14.7652 56.7978 15.4432V21H54.3773V15.875C54.3811 15.3409 54.2448 14.9242 53.9683 14.625C53.6917 14.322 53.3111 14.1705 52.8262 14.1705C52.5005 14.1705 52.2126 14.2405 51.9626 14.3807C51.7164 14.5208 51.5232 14.7254 51.383 14.9943C51.2467 15.2595 51.1766 15.5795 51.1728 15.9545ZM62.2407 21.1705C61.3581 21.1705 60.5948 20.983 59.9509 20.608C59.3107 20.2292 58.8164 19.7027 58.4679 19.0284C58.1194 18.3504 57.9452 17.5644 57.9452 16.6705C57.9452 15.7689 58.1194 14.9811 58.4679 14.3068C58.8164 13.6288 59.3107 13.1023 59.9509 12.7273C60.5948 12.3485 61.3581 12.1591 62.2407 12.1591C63.1232 12.1591 63.8846 12.3485 64.5247 12.7273C65.1687 13.1023 65.6649 13.6288 66.0134 14.3068C66.3619 14.9811 66.5361 15.7689 66.5361 16.6705C66.5361 17.5644 66.3619 18.3504 66.0134 19.0284C65.6649 19.7027 65.1687 20.2292 64.5247 20.608C63.8846 20.983 63.1232 21.1705 62.2407 21.1705ZM62.252 19.2955C62.6535 19.2955 62.9888 19.1818 63.2577 18.9545C63.5266 18.7235 63.7293 18.4091 63.8657 18.0114C64.0058 17.6136 64.0759 17.161 64.0759 16.6534C64.0759 16.1458 64.0058 15.6932 63.8657 15.2955C63.7293 14.8977 63.5266 14.5833 63.2577 14.3523C62.9888 14.1212 62.6535 14.0057 62.252 14.0057C61.8467 14.0057 61.5058 14.1212 61.2293 14.3523C60.9566 14.5833 60.7501 14.8977 60.61 15.2955C60.4736 15.6932 60.4054 16.1458 60.4054 16.6534C60.4054 17.161 60.4736 17.6136 60.61 18.0114C60.7501 18.4091 60.9566 18.7235 61.2293 18.9545C61.5058 19.1818 61.8467 19.2955 62.252 19.2955ZM69.2048 21L66.8298 12.2727H69.2787L70.631 18.1364H70.7105L72.1196 12.2727H74.523L75.9548 18.1023H76.0287L77.3582 12.2727H79.8014L77.4321 21H74.8696L73.3696 15.5114H73.2616L71.7616 21H69.2048Z" fill="#541919"/>
</svg>
