<svg width="95" height="93" viewBox="0 0 95 93" fill="none" xmlns="http://www.w3.org/2000/svg">
<mask id="mask0_1_150" style="mask-type:luminance" maskUnits="userSpaceOnUse" x="0" y="0" width="95" height="93">
<path d="M0.700012 0.569138H94.3V92.35H0.700012V0.569138Z" fill="white"/>
</mask>
<g mask="url(#mask0_1_150)">
<mask id="mask1_1_150" style="mask-type:luminance" maskUnits="userSpaceOnUse" x="0" y="0" width="95" height="93">
<path d="M4.411 15.2915C-3.17854 29.2911 2.16816 42.9167 8.88709 50.1484L48.1732 92.35L86.6304 50.2994C92.8793 42.52 95.275 34.268 93.9446 25.0792C92.1068 12.3684 82.7518 2.50671 71.1951 1.09791C64.1072 0.243779 57.2602 2.48966 51.9163 7.46154C50.4781 8.79959 49.1922 10.2949 48.0722 11.9204C46.7428 10.0694 45.1838 8.37632 43.4206 6.87591C37.2755 1.6469 29.4535 -0.429036 21.9396 1.18572C14.8234 2.72467 8.4357 7.8646 4.411 15.2915Z" fill="white"/>
</mask>
<g mask="url(#mask1_1_150)">
<path d="M0.700043 0.650085H94.4371V92.3501H0.700043V0.650085Z" fill="#F45858"/>
</g>
</g>
</svg>
