<svg width="18" height="18" viewBox="0 0 18 18" fill="none" xmlns="http://www.w3.org/2000/svg">
<path d="M9.00008 17.9771C7.78509 17.9771 6.60653 17.759 5.49673 17.3292C4.42503 16.9142 3.46249 16.32 2.63609 15.5633C1.80953 14.8065 1.16072 13.9253 0.7075 12.944C0.23812 11.9278 0 10.8486 0 9.73621C0 8.62385 0.23812 7.54457 0.7075 6.52853C1.16072 5.54725 1.80968 4.6659 2.63609 3.90921C3.46249 3.15238 4.42503 2.5583 5.49673 2.14318C6.60653 1.71339 7.78509 1.4955 9.00008 1.4955C10.2149 1.4955 11.3936 1.71339 12.5033 2.14318C13.575 2.5583 14.5375 3.15238 15.3639 3.90921C16.1905 4.6659 16.8393 5.54725 17.2927 6.52853C17.762 7.54457 18 8.62385 18 9.73621C18 10.8487 17.762 11.9278 17.2927 12.944C16.8393 13.9253 16.1905 14.8066 15.3639 15.5633C14.5375 16.3202 13.575 16.9142 12.5033 17.3292C11.3936 17.759 10.2149 17.9771 9.00008 17.9771ZM9.00008 1.88913C4.27457 1.88913 0.430049 5.40934 0.430049 9.73621C0.430049 14.0631 4.27457 17.5833 9.00008 17.5833C13.7256 17.5833 17.5701 14.0631 17.5701 9.73621C17.5701 5.40934 13.7256 1.88913 9.00008 1.88913Z" fill="#191919"/>
<path d="M8.78516 2.71713H9.2152V3.99643H8.78516V2.71713Z" fill="#191919"/>
<path d="M8.78516 15.476H9.2152V16.7553H8.78516V15.476Z" fill="#191919"/>
<path d="M4.98096 3.75596L5.35338 3.55914L6.05189 4.66703L5.67961 4.86385L4.98096 3.75596Z" fill="#191919"/>
<path d="M11.9478 14.8054L12.3202 14.6086L13.0188 15.7165L12.6464 15.9133L11.9478 14.8054Z" fill="#191919"/>
<path d="M2.25439 6.39717L2.46934 6.05616L3.6793 6.69588L3.46435 7.03675L2.25439 6.39717Z" fill="#191919"/>
<path d="M14.321 12.7767L14.536 12.4356L15.746 13.0754L15.531 13.4162L14.321 12.7767Z" fill="#191919"/>
<path d="M1.33447 9.53939H2.73164V9.93302H1.33447V9.53939Z" fill="#191919"/>
<path d="M15.2688 9.53939H16.666V9.93302H15.2688V9.53939Z" fill="#191919"/>
<path d="M2.25293 13.0755L3.46289 12.4358L3.67799 12.7768L2.46788 13.4164L2.25293 13.0755Z" fill="#191919"/>
<path d="M14.321 6.69618L15.531 6.0566L15.746 6.39747L14.536 7.03719L14.321 6.69618Z" fill="#191919"/>
<path d="M4.98096 15.7162L5.67946 14.6082L6.05189 14.8051L5.35323 15.913L4.98096 15.7162Z" fill="#191919"/>
<path d="M11.9478 4.66687L12.6464 3.55884L13.0187 3.75579L12.3202 4.86368L11.9478 4.66687Z" fill="#191919"/>
<path opacity="0.4" d="M16.6095 5.7136L9.00049 9.73617V1.69228C12.2517 1.69228 15.0905 3.30966 16.6095 5.7136Z" fill="#43F30D"/>
</svg>
