<svg width="34" height="31" viewBox="0 0 34 31" fill="none" xmlns="http://www.w3.org/2000/svg">
<path d="M25.0855 15.5C24.5411 15.5 23.9205 15.2629 23.2237 14.7886C22.5269 14.3143 21.8464 13.6735 21.1822 12.8662C20.5181 12.0589 19.9574 11.0246 19.5001 9.76318C19.0428 8.50179 18.8141 7.1849 18.8141 5.8125C18.8141 5.48958 18.825 5.24235 18.8468 5.0708C18.8686 4.89925 18.9394 4.70247 19.0591 4.48047C19.1789 4.25846 19.3912 4.10205 19.6961 4.01123C20.0009 3.92041 20.4038 3.875 20.9046 3.875C21.841 3.875 22.8699 3.67318 23.9913 3.26953C25.1127 2.86589 26.0872 2.42188 26.9147 1.9375C27.7422 1.45312 28.5751 1.00911 29.4134 0.605469C30.2518 0.201823 30.8996 0 31.3569 0C31.9884 0 32.4947 0.171549 32.8758 0.514648C33.2568 0.857747 33.4474 1.33203 33.4474 1.9375C33.4474 3.41081 33.2242 4.86898 32.7778 6.31201C32.3314 7.75505 31.7706 9.01139 31.0956 10.0811C30.4206 11.1507 29.6965 12.1043 28.9235 12.9419C28.1504 13.7795 27.4264 14.4152 26.7514 14.8491C26.0763 15.283 25.521 15.5 25.0855 15.5ZM22.9951 17.4375C22.9951 17.8815 22.6957 18.4062 22.0968 19.0117C21.498 19.6172 20.8012 20.1974 20.0064 20.7524C19.2115 21.3075 18.2861 22.0037 17.23 22.8413C16.1738 23.6789 15.3083 24.4609 14.6332 25.1875C13.9582 25.9342 13.3866 26.797 12.9184 27.7759C12.4502 28.7547 12.1236 29.5368 11.9385 30.1221C11.7534 30.7074 11.6064 31 11.4975 31C10.866 31 10.0658 30.7174 9.09677 30.1523C8.12775 29.5872 7.12608 28.79 6.09173 27.7607C5.05739 26.7314 4.07749 25.5861 3.15202 24.3247C2.22656 23.0633 1.46986 21.6455 0.881913 20.0713C0.293971 18.4971 0 16.9733 0 15.5C0 13.7441 0.511727 12.1245 1.53518 10.6411C2.55864 9.15771 3.95228 7.9821 5.7161 7.11426C7.47993 6.24642 9.40707 5.8125 11.4975 5.8125C11.9766 5.8125 12.3468 5.81755 12.6081 5.82764C12.8694 5.83773 13.245 5.85791 13.735 5.88818C14.2249 5.91846 14.6114 5.97396 14.8945 6.05469C15.1776 6.13542 15.477 6.24642 15.7928 6.3877C16.1085 6.52897 16.3426 6.71566 16.495 6.94775C16.6475 7.17985 16.7237 7.44727 16.7237 7.75C16.7237 8.86003 17.0068 10.0104 17.5729 11.2012C18.1391 12.3919 18.9012 13.502 19.8594 14.5312C20.1425 14.834 20.5616 15.1922 21.1169 15.606C21.6722 16.0197 22.124 16.3779 22.4725 16.6807C22.8209 16.9834 22.9951 17.2357 22.9951 17.4375Z" fill="#C94747" fill-opacity="0.63"/>
</svg>
