<svg width="25" height="26" viewBox="0 0 25 26" fill="none" xmlns="http://www.w3.org/2000/svg">
<path d="M20.8333 8.41653H4.16659V6.3332H20.8333M20.8333 18.8332H4.16659V12.5832H20.8333M20.8333 4.24986H4.16659C3.01034 4.24986 2.08325 5.17695 2.08325 6.3332V18.8332C2.08325 19.3857 2.30275 19.9156 2.69345 20.3063C3.08415 20.697 3.61405 20.9165 4.16659 20.9165H20.8333C21.3858 20.9165 21.9157 20.697 22.3064 20.3063C22.6971 19.9156 22.9166 19.3857 22.9166 18.8332V6.3332C22.9166 5.78066 22.6971 5.25076 22.3064 4.86006C21.9157 4.46936 21.3858 4.24986 20.8333 4.24986Z" fill="#828282"/>
</svg>
