<svg width="139" height="124" viewBox="0 0 139 124" fill="none" xmlns="http://www.w3.org/2000/svg">
<mask id="mask0_1_21" style="mask-type:luminance" maskUnits="userSpaceOnUse" x="67" y="24" width="26" height="20">
<path d="M67.8021 24.3401H92.6419V43.8587H67.8021V24.3401Z" fill="white"/>
</mask>
<g mask="url(#mask0_1_21)">
<path fill-rule="evenodd" clip-rule="evenodd" d="M77.1834 37.5738C77.4166 37.5738 77.5708 37.7113 77.5708 37.9194C77.5708 38.1275 77.4166 38.265 77.1834 38.265H70.4887C70.2555 38.265 70.1013 38.1275 70.1013 37.9194C70.1013 37.7113 70.2555 37.5738 70.4887 37.5738H77.1834ZM68.2458 34.6717H74.9404C75.1737 34.6717 75.3279 34.8098 75.3279 35.0173C75.3279 35.2135 75.1898 35.3474 74.9786 35.3618L74.9404 35.363H68.2458C68.0125 35.363 67.8584 35.2254 67.8584 35.0173C67.8584 34.8212 67.9965 34.6872 68.2076 34.6729L68.2458 34.6717ZM70.4887 31.7696H77.1834C77.4166 31.7696 77.5708 31.9078 77.5708 32.1153C77.5708 32.312 77.4327 32.4454 77.2216 32.4597L77.1834 32.4609H70.4887C70.2575 32.4609 70.1013 32.3222 70.1013 32.1153C70.1013 31.9191 70.2394 31.7852 70.4505 31.7714L70.4887 31.7696ZM91.5352 31.2374C92.2102 32.4143 92.5856 33.7478 92.5856 35.1549C92.5856 39.9586 88.2123 43.864 82.8322 43.8611C80.2401 43.8611 77.8014 42.9635 75.9439 41.3046C75.7897 41.1671 75.7897 40.959 75.9439 40.8215C76.0981 40.6839 76.3307 40.6839 76.4849 40.8215C78.1868 42.3428 80.4318 43.1716 82.8309 43.1716C87.784 43.1716 91.808 39.5782 91.808 35.1549C91.808 33.9481 91.505 32.8 90.9614 31.7708L91.5352 31.2374ZM90.3487 32.3407C90.767 33.215 90.9982 34.1777 90.9982 35.1884C90.9982 39.1973 87.361 42.445 82.8718 42.445C81.2094 42.445 79.622 41.9959 78.2673 41.1671C78.0742 41.0642 78.0347 40.8567 78.1513 40.6839C78.2673 40.5458 78.4999 40.5111 78.7311 40.6122C79.9304 41.3722 81.3629 41.7525 82.8718 41.7525C86.9347 41.7525 90.224 38.8158 90.224 35.1872C90.224 34.3781 90.0604 33.6031 89.7608 32.8873L90.3487 32.3407ZM90.2474 29.3226C90.5927 29.2802 90.9292 29.4404 91.0813 29.7197C91.2342 29.9996 91.1685 30.3344 90.9185 30.5509C88.0722 33.0984 86.015 35.1644 83.1352 37.7406C82.841 38.0073 82.3657 38.027 82.0446 37.7854L78.5555 35.1495C78.3913 35.0269 78.2887 34.8505 78.2706 34.6597C78.2519 34.469 78.3189 34.2794 78.457 34.1335C78.5957 33.9864 78.7935 33.8955 79.0067 33.8799C79.2205 33.8638 79.4323 33.9248 79.5959 34.0486L82.5145 36.2504C85.0792 33.9296 87.0909 31.9448 89.7782 29.5397C89.9029 29.4225 90.0685 29.346 90.2474 29.3226ZM82.8718 27.9323C84.9217 27.9323 86.7946 28.6092 88.2237 29.7275L87.6895 30.2256C86.3991 29.2264 84.7152 28.6218 82.8718 28.6218C81.3233 28.6218 79.8137 29.0374 78.5756 29.8662C78.3819 29.9703 78.1506 29.935 78.0347 29.7974C77.918 29.6599 77.9576 29.4183 78.1118 29.3143C79.5054 28.4155 81.1698 27.9323 82.8718 27.9323ZM84.6133 24.3401C84.8459 24.3401 85.0001 24.4783 85.0001 24.6858C85.0001 24.8819 84.8627 25.0159 84.6515 25.0302L84.6133 25.0314H83.2197V26.4828C85.4941 26.5497 87.5467 27.314 89.1568 28.547L89.2574 28.6248L89.3331 28.6923L88.7928 29.1965C87.1914 27.9383 85.1013 27.1722 82.8309 27.1722C80.3547 27.1722 78.0333 28.071 76.2918 29.6952C76.1376 29.8327 75.9044 29.8327 75.7502 29.6952C75.596 29.557 75.596 29.3495 75.7502 29.212C77.4991 27.5502 79.805 26.6203 82.3067 26.4887L82.4455 26.4828V25.0314H81.0914C80.8581 25.0314 80.7039 24.8939 80.7039 24.6858C80.7039 24.4896 80.8414 24.3557 81.0532 24.3413L81.0914 24.3401H84.6133Z" fill="black"/>
</g>
<mask id="mask1_1_21" style="mask-type:luminance" maskUnits="userSpaceOnUse" x="40" y="34" width="36" height="29">
<path d="M40.3982 34.1006H75.8829V62.821H40.3982V34.1006Z" fill="white"/>
</mask>
<g mask="url(#mask1_1_21)">
<path d="M40.3982 34.1006H75.8628V62.821H40.3982V34.1006Z" fill="#D57176"/>
</g>
<path d="M42.0378 56.2031C42.0378 55.693 41.5746 55.2786 41.0022 55.2786H29.9819C29.4095 55.2786 28.9463 55.693 28.9463 56.2031C28.9463 56.7137 29.4095 57.1276 29.9819 57.1276H41.0022C41.5746 57.1276 42.0378 56.7137 42.0378 56.2031Z" fill="black"/>
<path d="M41.0022 40.6474H29.9819C29.4095 40.6474 28.9463 41.0612 28.9463 41.5719C28.9463 42.082 29.4095 42.4964 29.9819 42.4964H41.0022C41.5746 42.4964 42.0378 42.082 42.0378 41.5719C42.0378 41.0612 41.5746 40.6474 41.0022 40.6474Z" fill="black"/>
<mask id="mask2_1_21" style="mask-type:luminance" maskUnits="userSpaceOnUse" x="22" y="47" width="16" height="3">
<path d="M22.1518 47.916H37.9247V49.9062H22.1518V47.916Z" fill="white"/>
</mask>
<g mask="url(#mask2_1_21)">
<path d="M23.1881 49.8117H36.832C37.4038 49.8117 37.867 49.3973 37.867 48.8872C37.867 48.3765 37.4038 47.9627 36.832 47.9627H23.1881C22.6156 47.9627 22.1518 48.3765 22.1518 48.8872C22.1518 49.3973 22.6156 49.8117 23.1881 49.8117Z" fill="black"/>
</g>
<path d="M89.9693 70.7409C88.8035 70.7409 87.8577 71.584 87.8577 72.6246C87.8577 73.6657 88.8035 74.5088 89.9693 74.5088C91.1356 74.5088 92.0808 73.6657 92.0808 72.6246C92.0808 71.584 91.1356 70.7409 89.9693 70.7409Z" fill="black"/>
<path d="M50.5558 70.7409C49.3894 70.7409 48.4442 71.584 48.4442 72.6246C48.4442 73.6657 49.3894 74.5088 50.5558 74.5088C51.7221 74.5088 52.6666 73.6657 52.6666 72.6246C52.6666 71.584 51.7221 70.7409 50.5558 70.7409Z" fill="black"/>
<path d="M94.3016 59.7252H82.5795V49.2645H86.633L94.3016 56.1086V59.7252ZM80.5075 47.4155V61.573H96.3736V55.3431L87.4904 47.4155H80.5075Z" fill="black"/>
<mask id="mask3_1_21" style="mask-type:luminance" maskUnits="userSpaceOnUse" x="38" y="32" width="64" height="48">
<path d="M38.9543 32.739H101.562V79.2013H38.9543V32.739Z" fill="white"/>
</mask>
<g mask="url(#mask3_1_21)">
<path d="M99.49 70.806C99.49 71.285 99.0536 71.6749 98.5173 71.6749H97.2537C96.7349 68.4984 93.6715 66.0484 89.9692 66.0484C86.267 66.0484 83.2029 68.4984 82.6841 71.6749H57.8396C57.3207 68.4984 54.2573 66.0484 50.5551 66.0484C46.8542 66.0484 43.7914 68.4972 43.2712 71.6731C42.0365 71.6636 41.0337 70.7654 41.0337 69.6609V64.7316H77.3516V44.6354H85.1274C87.5192 44.6354 89.7668 45.466 91.4587 46.9754L96.8683 51.8018C98.5589 53.3105 99.49 55.3168 99.49 57.451V70.806ZM89.9692 77.3529C87.0473 77.3529 84.6703 75.2324 84.6703 72.6245C84.6703 70.0179 87.0473 67.8974 89.9692 67.8974C92.8912 67.8974 95.2675 70.0179 95.2675 72.6245C95.2675 75.2324 92.8912 77.3529 89.9692 77.3529ZM50.5551 77.3529C47.6331 77.3529 45.2574 75.2324 45.2574 72.6245C45.2574 70.0179 47.6331 67.8974 50.5551 67.8974C53.4764 67.8974 55.8534 70.0179 55.8534 72.6245C55.8534 75.2324 53.4764 77.3529 50.5551 77.3529ZM92.9234 45.6682C90.8413 43.8096 88.0722 42.787 85.1274 42.787H77.3516V35.6625C77.3516 34.0497 75.8815 32.7383 74.0737 32.7383H42.2383C40.4317 32.7383 38.9624 34.0497 38.9624 35.6625V38.2441C38.9624 38.7548 39.4249 39.168 39.9973 39.168C40.5705 39.168 41.0337 38.7548 41.0337 38.2441V35.6625C41.0337 35.0693 41.574 34.5867 42.2383 34.5867H74.0737C74.7386 34.5867 75.2803 35.0693 75.2803 35.6625V62.8832H41.0337V59.9811C41.0337 59.4711 40.5705 59.0567 39.9973 59.0567C39.4249 59.0567 38.9624 59.4711 38.9624 59.9811V69.6609C38.9624 71.782 40.8889 73.5072 43.2619 73.5209C43.7546 76.7232 46.8327 79.2013 50.5551 79.2013C54.2774 79.2013 57.3549 76.725 57.849 73.5239H82.6754C83.1694 76.725 86.2476 79.2013 89.9692 79.2013C93.6916 79.2013 96.7691 76.725 97.2631 73.5239H98.5173C100.196 73.5239 101.562 72.3046 101.562 70.806V57.451C101.562 54.8229 100.415 52.3531 98.333 50.4946L92.9234 45.6682Z" fill="black"/>
</g>
<path d="M123.815 34.2386C123.633 34.2386 123.489 34.1931 123.384 34.1023C123.28 34.0114 123.228 33.8912 123.228 33.7411C123.228 33.5946 123.28 33.4744 123.384 33.3799C123.489 33.2842 123.633 33.2364 123.815 33.2364C123.999 33.2364 124.143 33.2818 124.247 33.3727C124.352 33.4624 124.405 33.582 124.405 33.7315C124.405 33.8834 124.352 34.006 124.244 34.0999C124.139 34.1926 123.996 34.2386 123.815 34.2386Z" fill="white"/>
<mask id="mask4_1_21" style="mask-type:luminance" maskUnits="userSpaceOnUse" x="96" y="51" width="3" height="2">
<path d="M96.8482 51.0226H98.4107V52.5146H96.8482V51.0226Z" fill="white"/>
</mask>
<g mask="url(#mask4_1_21)">
<mask id="mask5_1_21" style="mask-type:luminance" maskUnits="userSpaceOnUse" x="96" y="51" width="3" height="2">
<path d="M98.2909 51.9191C97.6863 52.5051 97.4288 52.5392 97.2613 52.4818C97.0944 52.4244 96.9268 52.218 96.8752 52.0685C96.8242 51.9537 96.8624 51.8162 96.914 51.7127C96.9656 51.6093 97.0682 51.4945 97.1969 51.4484C97.339 51.391 97.6346 51.3683 97.7895 51.4371C97.9437 51.5172 98.1112 51.7241 98.1367 51.885C98.1495 52.0339 98.0469 52.2755 97.9182 52.3783C97.7761 52.4818 97.4932 52.5392 97.3256 52.4931C97.1587 52.459 96.9529 52.2868 96.8886 52.1373C96.8369 51.9884 96.8886 51.7701 96.9784 51.6093C97.0816 51.4143 97.339 51.1614 97.5321 51.0813C97.6735 51.0239 97.8404 51.0125 97.9691 51.0466C98.124 51.104 98.3298 51.2648 98.3941 51.4024C98.4457 51.5519 98.2909 51.9191 98.2909 51.9191Z" fill="white"/>
</mask>
<g mask="url(#mask5_1_21)">
<path d="M96.3602 50.5873H98.9088V52.9673H96.3602V50.5873Z" fill="white"/>
</g>
</g>
<mask id="mask6_1_21" style="mask-type:luminance" maskUnits="userSpaceOnUse" x="88" y="53" width="6" height="4">
<path d="M88.6252 53.5958H93.221V56.2682H88.6252V53.5958Z" fill="white"/>
</mask>
<g mask="url(#mask6_1_21)">
<mask id="mask7_1_21" style="mask-type:luminance" maskUnits="userSpaceOnUse" x="88" y="53" width="6" height="4">
<path d="M92.9241 54.6519C90.9681 55.7312 89.8607 56.2479 89.4102 56.2593C89.1917 56.2706 89.063 56.2132 88.947 56.1331C88.8183 56.041 88.7157 55.9035 88.6769 55.7773C88.6252 55.6391 88.638 55.4669 88.6896 55.3407C88.7539 55.2146 88.8572 55.0764 89.0114 55.0077C89.1789 54.9275 89.5262 54.8928 89.7192 54.9736C89.9123 55.0537 90.1181 55.2947 90.157 55.4783C90.1824 55.6625 90.0537 55.9495 89.925 56.0757C89.8225 56.1905 89.6421 56.2479 89.488 56.2593C89.3331 56.2706 89.1401 56.2593 89.0114 56.1672C88.8572 56.0643 88.6769 55.8 88.638 55.6278C88.6252 55.4783 88.6769 55.3294 88.7667 55.2146C88.8954 55.0537 89.1401 54.9389 89.4102 54.8127C89.7963 54.6405 90.466 54.537 90.9808 54.3301C91.5083 54.1352 92.2035 53.6532 92.5252 53.6072C92.6667 53.5838 92.731 53.6072 92.8343 53.6412C92.9496 53.6986 93.0917 53.8135 93.156 53.9283C93.2204 54.0317 93.2331 54.204 93.1942 54.3301C93.156 54.4449 92.9241 54.6519 92.9241 54.6519Z" fill="white"/>
</mask>
<g mask="url(#mask7_1_21)">
<path d="M88.1232 53.1479H93.7077V56.7299H88.1232V53.1479Z" fill="white"/>
</g>
</g>
<mask id="mask8_1_21" style="mask-type:luminance" maskUnits="userSpaceOnUse" x="84" y="54" width="5" height="6">
<path d="M84.5047 54.2643H88.7305V59.6624H84.5047V54.2643Z" fill="white"/>
</mask>
<g mask="url(#mask8_1_21)">
<mask id="mask9_1_21" style="mask-type:luminance" maskUnits="userSpaceOnUse" x="84" y="54" width="5" height="6">
<path d="M84.5069 58.935C85.2536 56.7535 85.4205 56.4778 85.678 56.1334C85.9615 55.7082 86.3603 55.1341 86.7465 54.8244C87.0427 54.5834 87.4543 54.3878 87.699 54.3191C87.8532 54.273 87.9437 54.2617 88.0724 54.2963C88.2393 54.3191 88.4585 54.4339 88.561 54.5373C88.6515 54.6294 88.7159 54.7209 88.7286 54.8471C88.7414 55.008 88.4967 55.4559 88.5228 55.4672C88.5356 55.4786 88.6643 55.295 88.6643 55.295C88.6515 55.2836 88.4451 55.5479 88.3036 55.6053C88.1622 55.6741 87.9691 55.7082 87.815 55.6741C87.6085 55.6281 87.3256 55.4212 87.2358 55.2609C87.1453 55.1341 87.1453 54.9505 87.1842 54.813C87.2224 54.6749 87.3129 54.526 87.4543 54.4339C87.6219 54.3304 87.9691 54.2503 88.1749 54.3077C88.3807 54.3651 88.6381 54.5834 88.7025 54.7783C88.7668 54.9619 88.7025 55.2723 88.5738 55.4212C88.4323 55.5707 88.1106 55.6968 87.8921 55.6855C87.6729 55.6741 87.39 55.4786 87.274 55.3297C87.1715 55.2035 87.158 55.0313 87.1715 54.8931C87.1969 54.7556 87.274 54.5947 87.39 54.5026C87.5059 54.3878 87.7117 54.285 87.8921 54.285C88.0978 54.285 88.4196 54.3878 88.561 54.5373C88.7025 54.6868 88.7414 55.008 88.7025 55.1802C88.6898 55.295 88.6254 55.3871 88.5228 55.4672C88.3941 55.5707 88.1495 55.536 87.9564 55.6741C87.6346 55.8804 87.1969 56.4545 86.914 56.8109C86.6948 57.086 86.5661 57.2815 86.3858 57.6146C86.1418 58.0966 85.9488 59.1526 85.6652 59.4397C85.5365 59.5778 85.3823 59.6239 85.2536 59.6466C85.1377 59.6693 85.0344 59.658 84.9319 59.6239C84.8159 59.5665 84.6483 59.463 84.5712 59.3482C84.5069 59.2334 84.5069 58.935 84.5069 58.935Z" fill="white"/>
</mask>
<g mask="url(#mask9_1_21)">
<path d="M83.9919 53.8254H89.2433V60.1199H83.9919V53.8254Z" fill="white"/>
</g>
</g>
</svg>
