<svg width="222" height="206" viewBox="0 0 222 206" fill="none" xmlns="http://www.w3.org/2000/svg">
<path d="M162.816 103.353H154.766C154.732 103.353 154.698 103.349 154.663 103.341C154.629 103.333 154.597 103.322 154.566 103.307C154.535 103.291 154.507 103.273 154.48 103.251C154.455 103.229 154.432 103.206 154.412 103.179C154.393 103.151 154.377 103.123 154.365 103.092C154.353 103.062 154.344 103.031 154.341 102.998C154.337 102.966 154.338 102.933 154.342 102.902C154.348 102.869 154.356 102.838 154.369 102.807L158.419 93.3229C158.451 93.2464 158.504 93.1858 158.576 93.1401C158.649 93.0944 158.73 93.0715 158.817 93.0715C158.905 93.0715 158.985 93.0944 159.057 93.1401C159.13 93.1858 159.182 93.2464 159.216 93.3229L163.214 102.807C163.227 102.837 163.236 102.868 163.241 102.901C163.245 102.932 163.246 102.965 163.242 102.997C163.238 103.03 163.23 103.062 163.219 103.091C163.206 103.122 163.191 103.151 163.17 103.178C163.151 103.205 163.128 103.229 163.102 103.251C163.076 103.273 163.047 103.291 163.016 103.307C162.985 103.322 162.953 103.333 162.919 103.341C162.886 103.349 162.85 103.353 162.816 103.353Z" fill="black"/>
<path d="M77.3456 98.4719V98.5871C77.3563 99.9382 77.108 101.247 76.6005 102.513L74.0546 100.37C73.9443 100.278 73.8308 100.192 73.712 100.11C73.5932 100.028 73.47 99.9521 73.3437 99.8816C73.2163 99.8111 73.0857 99.7465 72.9529 99.6879C72.8191 99.6302 72.6821 99.5776 72.5429 99.5319C72.4037 99.4862 72.2624 99.4465 72.1189 99.4137C71.9755 99.3799 71.831 99.3541 71.6854 99.3342C71.5387 99.3143 71.392 99.3014 71.2443 99.2955C71.0965 99.2895 70.9488 99.2905 70.801 99.2974C70.6544 99.3044 70.5077 99.3193 70.361 99.3402C70.2154 99.361 70.0709 99.3878 69.9274 99.4226C69.785 99.4564 69.6437 99.4971 69.5045 99.5438C69.3664 99.5905 69.2305 99.6442 69.0966 99.7038C68.9639 99.7634 68.8343 99.8289 68.708 99.9005C68.5817 99.972 68.4596 100.048 68.3419 100.131C68.2241 100.214 68.1106 100.302 68.0014 100.395C67.8933 100.488 67.7894 100.586 67.6909 100.688L67.6599 100.72C67.5614 100.823 67.4683 100.931 67.3805 101.043C67.2927 101.155 67.2113 101.27 67.1364 101.391C67.0614 101.51 66.9929 101.632 66.9308 101.758C66.8687 101.884 66.8141 102.013 66.7659 102.144C66.7178 102.275 66.676 102.407 66.6428 102.542C66.6086 102.676 66.5818 102.812 66.5625 102.949C66.5422 103.087 66.5304 103.225 66.5261 103.364C66.5208 103.502 66.524 103.64 66.5336 103.778C66.5433 103.916 66.5615 104.053 66.5861 104.189C66.6107 104.326 66.6428 104.461 66.6814 104.594C66.721 104.729 66.767 104.86 66.8205 104.989C66.8741 105.118 66.934 105.244 67.0004 105.368C67.0668 105.492 67.1407 105.612 67.2199 105.729C67.3002 105.846 67.3858 105.958 67.4768 106.068C67.5689 106.177 67.6663 106.281 67.7691 106.382C67.8719 106.481 67.98 106.576 68.0935 106.667L70.6383 108.688C69.2176 109.19 67.7477 109.439 66.2285 109.438C59.5843 109.438 55.1135 104.3 55.1135 98.4689V98.3557C55.1135 92.5242 59.5222 87.4437 66.1043 87.4437C72.8127 87.4437 77.3456 92.5778 77.3456 98.4719Z" fill="black"/>
<mask id="mask0_1_105" style="mask-type:luminance" maskUnits="userSpaceOnUse" x="108" y="53" width="101" height="100">
<path d="M108.533 53.4074H208.792V152.827H108.533V53.4074Z" fill="white"/>
</mask>
<g mask="url(#mask0_1_105)">
<path d="M198.214 71.3192L198.164 71.2586C198.138 71.2268 198.112 71.197 198.084 71.1622C197.945 70.9963 197.803 70.8304 197.662 70.6675C197.539 70.5264 197.416 70.3864 197.294 70.2512L197.276 70.2294L197.114 70.0486C197.024 69.9522 196.933 69.8479 196.842 69.7486C196.692 69.5837 196.537 69.4177 196.376 69.2499L196.364 69.2359C195.764 68.5982 195.121 67.9514 194.445 67.3107C194.12 67.0017 193.786 66.6947 193.446 66.3927C192.763 65.7798 192.062 65.1867 191.353 64.6204L191.249 64.54C191.109 64.4267 190.968 64.3164 190.825 64.2071L190.781 64.1734C190.627 64.0512 190.465 63.928 190.288 63.7959L190.121 63.6687C189.987 63.5723 189.853 63.469 189.717 63.3707L189.696 63.3558C189.341 63.0935 188.971 62.8322 188.61 62.5849L188.573 62.559L188.486 62.4994C188.333 62.3911 188.175 62.2878 188.021 62.1835L187.987 62.1607C187.806 62.0375 187.623 61.9173 187.441 61.799L187.415 61.7832C187.229 61.661 187.044 61.5408 186.864 61.4285L186.845 61.4156C186.44 61.1583 186.046 60.9179 185.673 60.6973L185.651 60.6844C185.458 60.5682 185.267 60.4569 185.073 60.3456L185.058 60.3367C184.863 60.2234 184.667 60.1122 184.47 60.0029L184.446 59.99C184.239 59.8748 184.048 59.7694 183.867 59.6731L183.815 59.6443C183.637 59.5479 183.459 59.4515 183.28 59.3552L183.205 59.3154C182.798 59.1028 182.387 58.8952 181.983 58.6995L181.962 58.6886C181.759 58.5922 181.558 58.4959 181.355 58.3995L181.342 58.3935C180.702 58.0905 180.052 57.8004 179.411 57.5263L179.37 57.5084C179.285 57.4716 179.199 57.4359 179.114 57.4011L179.068 57.3832C178.872 57.2998 178.676 57.2193 178.478 57.1418C178.238 57.0454 178.004 56.954 177.771 56.8656L177.738 56.8537C177.647 56.8169 177.555 56.7822 177.461 56.7484L177.428 56.7355C177.202 56.65 176.975 56.5666 176.746 56.4851L176.727 56.4792C176.646 56.4494 176.566 56.4196 176.483 56.3917L176.415 56.3689C176.161 56.2785 175.906 56.1911 175.655 56.1086L175.61 56.0937C175.44 56.0351 175.266 55.9795 175.092 55.9248L175.008 55.898C174.921 55.8682 174.836 55.8424 174.75 55.8156L174.722 55.8076C174.381 55.6993 174.036 55.596 173.699 55.4976H173.683L173.427 55.4241H173.405L173.302 55.3923C173.213 55.3665 173.124 55.3417 173.036 55.3188L172.991 55.3059C172.88 55.2751 172.766 55.2433 172.654 55.2096L172.598 55.1946L172.308 55.1172L171.767 54.9781L171.399 54.8877L171.353 54.8777C171.204 54.842 171.055 54.8052 170.904 54.7714L170.869 54.7625L170.59 54.6989L170.547 54.69C170.315 54.6373 170.081 54.5867 169.847 54.538H169.825C169.624 54.4943 169.422 54.4516 169.219 54.4128L169.154 54.4009C169.026 54.3751 168.897 54.3492 168.765 54.3244L168.247 54.228L167.673 54.1317L167.466 54.0979H167.446L166.958 54.0214C166.784 53.9946 166.611 53.9697 166.441 53.9449H166.415C166.232 53.9191 166.05 53.8932 165.866 53.8694L165.827 53.8644L165.636 53.8396L165.596 53.8346C165.513 53.8227 165.429 53.8128 165.346 53.8028H165.341L165.105 53.774C164.935 53.7522 164.766 53.7343 164.598 53.7174L164.55 53.7124C164.355 53.6896 164.16 53.6707 163.964 53.6518H163.91L163.783 53.6389L163.626 53.626C163.494 53.6121 163.376 53.6022 163.257 53.5932H163.235L162.859 53.5634L162.506 53.5376L162.17 53.5157H162.113C162.009 53.5078 161.91 53.5028 161.809 53.4979H161.784C161.622 53.4879 161.461 53.479 161.298 53.472H161.267C161.085 53.4641 160.903 53.4561 160.721 53.4502H160.666L160.513 53.4452L160.175 53.4353H160.159C159.946 53.4293 159.732 53.4243 159.515 53.4214H159.438C159.208 53.4214 158.978 53.4194 158.747 53.4164C158.347 53.4164 157.949 53.4224 157.551 53.4313H157.475C157.111 53.4392 156.747 53.4512 156.385 53.468L156.187 53.476C155.871 53.4909 155.556 53.5098 155.242 53.5306L154.781 53.5614C154.56 53.5773 154.338 53.5952 154.116 53.6141C153.75 53.6459 153.384 53.6806 153.019 53.7194H153.005C129.397 56.2368 110.731 74.0939 108.864 96.2695C108.855 96.3797 108.846 96.492 108.837 96.6023C108.821 96.8188 108.806 97.0344 108.792 97.252C108.783 97.409 108.774 97.5669 108.767 97.7259C108.76 97.8461 108.754 97.9653 108.749 98.0855C108.739 98.3279 108.73 98.5713 108.724 98.8147L108.717 99.1226C108.714 99.3432 108.711 99.5637 108.711 99.7843C108.711 99.8339 108.711 99.8806 108.711 99.9353C108.711 117.328 119.39 133.483 136.011 141.384C136.075 141.413 136.139 141.445 136.202 141.474C136.465 141.599 136.729 141.72 136.995 141.841C137.297 141.976 137.573 142.148 137.823 142.355C138.072 142.564 138.286 142.799 138.465 143.064C138.643 143.328 138.779 143.609 138.872 143.909C138.965 144.208 139.011 144.514 139.012 144.826V152.803L154.459 146.649C154.97 146.445 155.503 146.357 156.057 146.385C156.253 146.395 156.449 146.402 156.647 146.41H156.751C156.959 146.418 157.165 146.424 157.373 146.43H157.447C157.598 146.43 157.748 146.435 157.899 146.438C158.093 146.438 158.282 146.443 158.472 146.444H159.51C159.725 146.444 159.938 146.436 160.15 146.431H160.292C160.415 146.431 160.538 146.423 160.661 146.419H160.716C160.898 146.412 161.08 146.405 161.262 146.398H161.293C161.455 146.391 161.617 146.382 161.779 146.372H161.803C161.907 146.367 162.006 146.362 162.107 146.354H162.165L162.501 146.332L162.854 146.307L163.216 146.277H163.234C163.359 146.268 163.483 146.257 163.608 146.246L163.777 146.231L163.905 146.218L163.958 146.214C164.155 146.194 164.349 146.175 164.545 146.152H164.592C164.76 146.135 164.929 146.117 165.1 146.096L165.341 146.067C165.425 146.058 165.508 146.047 165.591 146.035H165.631L165.821 146.01H165.861C166.045 145.986 166.227 145.96 166.41 145.934H166.436C166.608 145.91 166.78 145.885 166.954 145.858C167.126 145.831 167.282 145.806 167.444 145.781H167.465L167.671 145.747L168.25 145.65L168.773 145.555C168.9 145.53 169.029 145.504 169.158 145.479L169.224 145.466C169.431 145.428 169.628 145.385 169.83 145.341H169.851C170.085 145.293 170.319 145.242 170.551 145.19L170.594 145.18C170.687 145.16 170.779 145.139 170.87 145.116L170.909 145.108C171.06 145.074 171.208 145.038 171.357 145.002L171.403 144.99C171.526 144.961 171.649 144.931 171.772 144.9L172.326 144.758L172.602 144.685L172.658 144.67C172.771 144.641 172.884 144.609 172.995 144.579L173.039 144.566C173.128 144.543 173.217 144.518 173.306 144.491L173.436 144.455L173.692 144.382H173.707C174.046 144.285 174.39 144.179 174.732 144.072L174.762 144.062C174.847 144.037 174.932 144.01 175.017 143.981L175.101 143.954C175.271 143.9 175.445 143.844 175.618 143.786L175.664 143.77C175.916 143.688 176.171 143.601 176.424 143.511L176.493 143.487C176.574 143.46 176.656 143.43 176.736 143.4L176.755 143.393C176.983 143.313 177.21 143.229 177.437 143.143L177.47 143.131C177.564 143.097 177.656 143.063 177.747 143.026L177.781 143.013C178.014 142.923 178.248 142.833 178.479 142.741C178.687 142.66 178.882 142.579 179.077 142.496L179.122 142.478C179.209 142.444 179.295 142.408 179.379 142.371L179.421 142.353C180.061 142.083 180.71 141.793 181.35 141.486L181.364 141.479C181.571 141.383 181.769 141.287 181.971 141.191L181.993 141.18C182.397 140.987 182.81 140.776 183.219 140.561L183.239 140.55L183.33 140.502C183.475 140.427 183.629 140.345 183.781 140.262L183.921 140.187C184.102 140.09 184.279 139.994 184.459 139.89L184.474 139.882C184.636 139.792 184.797 139.701 184.957 139.609C185.216 139.461 185.47 139.311 185.723 139.162C186.104 138.934 186.488 138.698 186.854 138.465L186.87 138.457C187.039 138.349 187.21 138.241 187.379 138.129L187.496 138.054C187.668 137.942 187.836 137.83 188.006 137.715L188.03 137.699C188.188 137.593 188.348 137.486 188.504 137.377L188.518 137.367C188.733 137.218 188.946 137.069 189.16 136.919C189.341 136.788 189.522 136.657 189.703 136.524L189.729 136.506L190.129 136.209L190.143 136.196L190.297 136.081C190.474 135.95 190.636 135.826 190.791 135.703L190.834 135.669C190.977 135.561 191.117 135.45 191.259 135.338L191.363 135.257C192.07 134.691 192.771 134.101 193.446 133.494C194.807 132.278 196.089 130.993 197.293 129.642C197.507 129.403 197.716 129.16 197.923 128.919L198.027 128.802C198.891 127.784 199.707 126.735 200.476 125.654C201.245 124.574 201.965 123.465 202.634 122.327C203.304 121.191 203.921 120.031 204.486 118.845C205.051 117.661 205.563 116.456 206.02 115.232C206.477 114.007 206.879 112.768 207.225 111.512C207.57 110.257 207.859 108.99 208.092 107.712C208.324 106.434 208.499 105.15 208.615 103.858C208.732 102.567 208.791 101.272 208.792 99.977C208.778 89.4366 205.125 79.5518 198.214 71.3192ZM173.77 118.564H173.506C173.232 118.564 172.96 118.546 172.69 118.509C172.419 118.471 172.154 118.415 171.893 118.341C171.631 118.267 171.377 118.176 171.13 118.067C170.883 117.957 170.646 117.832 170.419 117.69C170.192 117.548 169.978 117.392 169.776 117.22C169.575 117.049 169.387 116.865 169.215 116.668C169.042 116.47 168.886 116.262 168.747 116.044C168.607 115.825 168.486 115.598 168.383 115.362L166.764 111.675H150.757L149.184 115.334C149.082 115.571 148.961 115.801 148.822 116.021C148.684 116.242 148.528 116.451 148.355 116.651C148.183 116.85 147.996 117.036 147.793 117.209C147.591 117.382 147.376 117.54 147.148 117.684C146.921 117.827 146.683 117.954 146.435 118.065C146.186 118.175 145.932 118.267 145.668 118.343C145.405 118.417 145.138 118.474 144.866 118.512C144.594 118.549 144.32 118.568 144.045 118.568C140.085 118.568 137.406 114.813 138.949 111.42L151.937 82.8521C152.043 82.6206 152.166 82.3981 152.306 82.1825C152.446 81.9679 152.603 81.7642 152.776 81.5705C152.948 81.3768 153.136 81.196 153.337 81.0281C153.538 80.8602 153.751 80.7062 153.976 80.5681C154.202 80.4291 154.438 80.3059 154.682 80.1996C154.927 80.0923 155.178 80.0029 155.437 79.9303C155.697 79.8578 155.96 79.8032 156.228 79.7664C156.494 79.7297 156.764 79.7108 157.034 79.7108H160.782C161.053 79.7108 161.321 79.7297 161.589 79.7664C161.857 79.8032 162.12 79.8578 162.379 79.9303C162.638 80.0029 162.89 80.0923 163.135 80.1996C163.379 80.3059 163.615 80.4291 163.84 80.5681C164.065 80.7072 164.278 80.8602 164.48 81.0281C164.681 81.196 164.868 81.3768 165.041 81.5705C165.213 81.7642 165.371 81.9679 165.511 82.1825C165.651 82.3981 165.774 82.6206 165.879 82.8521L178.867 111.419C180.409 114.808 177.731 118.564 173.769 118.564H173.77Z" fill="black"/>
</g>
<mask id="mask1_1_105" style="mask-type:luminance" maskUnits="userSpaceOnUse" x="19" y="53" width="91" height="100">
<path d="M19.0096 53.3607H109.904V152.827H19.0096V53.3607Z" fill="white"/>
</mask>
<g mask="url(#mask1_1_105)">
<path d="M109.5 126.933L109.481 126.904L109.438 126.836C109.334 126.679 109.244 126.528 109.15 126.376L109.143 126.364L109.039 126.189L108.924 126.001L108.811 125.814C108.725 125.673 108.64 125.525 108.555 125.383L108.549 125.373C108.537 125.354 108.526 125.334 108.514 125.314L108.434 125.176C108.423 125.157 108.412 125.139 108.402 125.121C108.317 124.977 108.236 124.832 108.153 124.689L108.061 124.524L107.971 124.365L107.85 124.149C107.597 123.689 107.349 123.224 107.111 122.758L107.092 122.721C106.954 122.454 106.82 122.186 106.691 121.919C106.683 121.903 106.676 121.889 106.668 121.874L106.609 121.752C106.569 121.671 106.528 121.587 106.488 121.505L106.461 121.445C106.383 121.283 106.305 121.12 106.23 120.957L106.198 120.886C106.158 120.801 106.118 120.715 106.08 120.63C105.968 120.386 105.861 120.148 105.76 119.914C105.686 119.741 105.61 119.568 105.536 119.392C105.463 119.217 105.383 119.03 105.308 118.847C105.216 118.625 105.126 118.399 105.038 118.174C104.968 117.991 104.898 117.807 104.824 117.622C104.56 116.927 104.329 116.273 104.117 115.633C104.055 115.451 103.997 115.269 103.938 115.085C103.888 114.929 103.834 114.77 103.787 114.61L103.773 114.565C103.749 114.481 103.722 114.399 103.697 114.315C103.65 114.156 103.603 113.997 103.556 113.834C103.437 113.429 103.32 113.004 103.194 112.527V112.511C103.144 112.319 103.09 112.127 103.047 111.934L103.028 111.868L102.899 111.333C102.863 111.183 102.829 111.033 102.795 110.884L102.772 110.788C102.752 110.691 102.73 110.595 102.71 110.499C102.662 110.276 102.615 110.054 102.57 109.83C102.54 109.689 102.512 109.547 102.484 109.405V109.386C102.474 109.324 102.461 109.264 102.45 109.203C102.419 109.042 102.389 108.881 102.361 108.721L102.34 108.604C102.305 108.405 102.271 108.207 102.236 108.008C102.195 107.767 102.158 107.516 102.12 107.266C102.095 107.095 102.07 106.923 102.045 106.75C102.04 106.715 102.036 106.682 102.032 106.654C102.005 106.461 101.98 106.269 101.957 106.071C101.925 105.815 101.893 105.545 101.865 105.277V105.239C101.844 105.047 101.825 104.854 101.808 104.668C101.792 104.51 101.777 104.352 101.765 104.194C101.755 104.094 101.746 103.995 101.739 103.894C101.708 103.525 101.685 103.165 101.667 102.813C101.667 102.786 101.667 102.758 101.661 102.73C101.656 102.702 101.656 102.643 101.654 102.601C101.642 102.391 101.631 102.182 101.624 101.969C101.624 101.924 101.624 101.878 101.618 101.833C101.618 101.823 101.618 101.813 101.618 101.804L101.603 101.403V101.19C101.603 101.035 101.596 100.879 101.593 100.723C101.593 100.627 101.593 100.53 101.593 100.434C101.593 100.262 101.593 100.087 101.593 99.9165C101.593 99.8678 101.593 99.8201 101.593 99.7734C101.593 99.5012 101.596 99.229 101.602 98.9568C101.602 98.8605 101.602 98.7641 101.602 98.6737C101.61 98.3667 101.62 98.0607 101.633 97.7557C101.633 97.6763 101.641 97.5978 101.645 97.5183C101.66 97.1895 101.678 96.8597 101.7 96.5318V96.4931C101.724 96.1364 101.752 95.7818 101.784 95.4271V95.3824C101.817 95.0138 101.856 94.6473 101.898 94.2797C101.898 94.2797 101.898 94.2737 101.898 94.2717C102.318 90.5394 103.158 86.8915 104.418 83.327L104.428 83.3022C104.551 82.9535 104.678 82.6058 104.81 82.2581C104.81 82.2581 104.81 82.2581 104.81 82.2521C104.822 82.2223 104.832 82.1945 104.843 82.1657C104.913 81.9918 104.979 81.818 105.045 81.6441L105.107 81.4901C105.167 81.3391 105.227 81.1871 105.289 81.0361V81.0282L105.308 80.9845C105.396 80.7699 105.485 80.5563 105.577 80.3407C105.604 80.2771 105.632 80.2126 105.66 80.149C105.735 79.9751 105.81 79.8033 105.886 79.6314L105.978 79.4268L106.069 79.2231C106.091 79.1744 106.115 79.1267 106.136 79.0781C106.288 78.7452 106.445 78.4144 106.604 78.0856L106.634 78.022C106.794 77.6942 106.961 77.3614 107.13 77.0336L107.264 76.7723C107.407 76.4971 107.563 76.204 107.735 75.8881L107.925 75.5424C108.044 75.3298 108.166 75.1142 108.296 74.8887C108.449 74.6235 108.606 74.3602 108.76 74.0969C108.79 74.0463 108.82 73.9966 108.851 73.9459C109.059 73.6042 109.269 73.2644 109.481 72.9277C109.494 72.9058 109.508 72.8849 109.52 72.8651C109.593 72.7508 109.664 72.6376 109.736 72.5233C109.421 72.3227 109.148 72.0803 108.917 71.7981C99.3551 60.0964 84.8238 53.3857 69.0474 53.3857C41.458 53.3857 19.0128 74.2549 19.0128 99.9065C19.0128 117.64 30.115 134.092 47.2971 141.812C47.599 141.947 47.8752 142.119 48.1246 142.326C48.3741 142.535 48.5882 142.771 48.767 143.035C48.9447 143.299 49.0807 143.58 49.1738 143.88C49.2659 144.179 49.313 144.485 49.313 144.797V152.775L64.7607 146.62C65.2714 146.416 65.8045 146.328 66.3591 146.356C67.2434 146.401 68.1481 146.422 69.0474 146.422C84.8238 146.422 99.3551 139.716 108.911 128.02C109.144 127.737 109.418 127.493 109.733 127.292C109.655 127.176 109.577 127.055 109.5 126.933ZM89.5805 98.3558C89.5805 102.629 88.2144 106.67 85.7306 109.962L86.6749 110.706C86.7873 110.796 86.8954 110.89 86.9982 110.988C87.0999 111.088 87.1973 111.191 87.2894 111.299C87.3804 111.408 87.466 111.52 87.5463 111.636C87.6256 111.751 87.6994 111.872 87.7658 111.994C87.8333 112.117 87.8932 112.242 87.9467 112.37C88.0003 112.498 88.0474 112.629 88.087 112.762C88.1266 112.894 88.1598 113.028 88.1844 113.164C88.2101 113.299 88.2283 113.435 88.239 113.573C88.2508 113.71 88.254 113.848 88.2508 113.986C88.2465 114.123 88.2358 114.26 88.2176 114.396C88.1994 114.533 88.1737 114.668 88.1416 114.802C88.1084 114.936 88.0688 115.069 88.0217 115.2C87.9756 115.331 87.9221 115.458 87.8611 115.584C87.8011 115.709 87.7337 115.832 87.6609 115.952C87.587 116.071 87.5078 116.187 87.4221 116.299C87.3365 116.412 87.2444 116.519 87.147 116.623C87.0496 116.727 86.9479 116.826 86.8397 116.92C86.7316 117.015 86.6192 117.104 86.5025 117.187C86.3847 117.272 86.2637 117.35 86.1374 117.423C86.0122 117.495 85.8826 117.562 85.7499 117.624C85.6171 117.684 85.4822 117.739 85.343 117.787C85.2049 117.836 85.0636 117.878 84.9212 117.913C84.7778 117.948 84.6332 117.977 84.4876 118C84.341 118.022 84.1943 118.037 84.0465 118.046C83.8988 118.055 83.751 118.057 83.6033 118.052C83.4556 118.047 83.3078 118.035 83.1611 118.017C83.0145 117.998 82.8689 117.973 82.7254 117.941C82.5809 117.91 82.4396 117.871 82.2993 117.826C82.1591 117.782 82.022 117.73 81.8882 117.672C81.7533 117.615 81.6227 117.551 81.4942 117.482C81.3668 117.412 81.2437 117.336 81.1238 117.256C81.0039 117.175 80.8883 117.089 80.778 116.997L79.3337 115.794C75.6048 118.045 71.073 119.373 66.1043 119.373C52.6907 119.373 42.7545 110.077 42.7545 98.477V98.3558C42.7545 86.7504 52.8149 77.3395 66.2285 77.3395C79.6432 77.3395 89.5805 86.6352 89.5805 98.2356V98.3558Z" fill="black"/>
</g>
<path d="M80.9543 99.4106C80.6288 99.4106 80.3697 99.3262 80.1792 99.1563C79.9907 98.9874 79.8965 98.7619 79.8965 98.4808C79.8965 98.2026 79.9907 97.9751 80.1792 97.7973C80.3697 97.6204 80.6288 97.531 80.9543 97.531C81.2851 97.531 81.5453 97.6165 81.7337 97.7854C81.9221 97.9552 82.0163 98.1817 82.0163 98.4649C82.0163 98.746 81.92 98.9735 81.7294 99.1484C81.5378 99.3232 81.2797 99.4106 80.9543 99.4106Z" fill="white"/>
</svg>
