<svg width="23" height="25" viewBox="0 0 23 25" fill="none" xmlns="http://www.w3.org/2000/svg">
<path d="M15.8046 2.65519V0.862074C15.8046 0.390807 15.4138 0 14.9425 0C14.4713 0 14.0805 0.390807 14.0805 0.862074V2.58622H6.60916V0.862074C6.60916 0.390807 6.21836 0 5.74709 0C5.27582 0 4.88502 0.390807 4.88502 0.862074V2.65519C1.78155 2.94254 0.275797 4.79313 0.0459111 7.54027C0.0229224 7.87361 0.298786 8.14947 0.620627 8.14947H20.069C20.4023 8.14947 20.6782 7.86211 20.6437 7.54027C20.4138 4.79313 18.9081 2.94254 15.8046 2.65519Z" fill="#240046"/>
<path d="M19.5403 9.87341H1.14943C0.517244 9.87341 0 10.3907 0 11.0228V18.1033C0 21.5516 1.72415 23.8505 5.74716 23.8505H11.4139C12.207 23.8505 12.7587 23.0804 12.5058 22.3333C12.2759 21.6666 12.0805 20.9309 12.0805 20.4022C12.0805 16.9194 14.9196 14.0803 18.4024 14.0803C18.7357 14.0803 19.0691 14.1033 19.3909 14.1608C20.0806 14.2642 20.7013 13.724 20.7013 13.0344V11.0343C20.6898 10.3907 20.1725 9.87341 19.5403 9.87341ZM7.13797 18.9194C7.02303 19.0229 6.89659 19.1033 6.75866 19.1608C6.62072 19.2183 6.4713 19.2528 6.32187 19.2528C6.17245 19.2528 6.02302 19.2183 5.88509 19.1608C5.74716 19.1033 5.62072 19.0229 5.50578 18.9194C5.29888 18.701 5.17244 18.4022 5.17244 18.1033C5.17244 18.0344 5.18394 17.9539 5.19543 17.885C5.20692 17.8045 5.22991 17.7355 5.2644 17.6666C5.28738 17.5976 5.32187 17.5286 5.36784 17.4597C5.40233 17.4022 5.4598 17.3447 5.50578 17.2872C5.62072 17.1838 5.74716 17.1033 5.88509 17.0459C6.16095 16.9309 6.48279 16.9309 6.75866 17.0459C6.89659 17.1033 7.02303 17.1838 7.13797 17.2872C7.18395 17.3447 7.24142 17.4022 7.2759 17.4597C7.32188 17.5286 7.35636 17.5976 7.37935 17.6666C7.41383 17.7355 7.43682 17.8045 7.44832 17.885C7.45981 17.9539 7.4713 18.0344 7.4713 18.1033C7.4713 18.4022 7.34487 18.701 7.13797 18.9194ZM7.13797 14.8964C7.02303 14.9999 6.89659 15.0803 6.75866 15.1378C6.62072 15.1953 6.4713 15.2298 6.32187 15.2298C6.17245 15.2298 6.02302 15.1953 5.88509 15.1378C5.73566 15.0803 5.62072 14.9999 5.50578 14.8964C5.29888 14.678 5.17244 14.3792 5.17244 14.0803C5.17244 13.7815 5.29888 13.4826 5.50578 13.2642C5.62072 13.1608 5.74716 13.0803 5.88509 13.0229C6.16095 12.9079 6.48279 12.9079 6.75866 13.0229C6.89659 13.0803 7.02303 13.1608 7.13797 13.2642C7.18395 13.3217 7.24142 13.3792 7.2759 13.4367C7.32188 13.5056 7.35636 13.5746 7.37935 13.6435C7.41383 13.7125 7.43682 13.7815 7.44832 13.8504C7.45981 13.9309 7.4713 14.0114 7.4713 14.0803C7.4713 14.3792 7.34487 14.678 7.13797 14.8964ZM11.161 14.8964C10.9426 15.1033 10.6552 15.2298 10.3449 15.2298C10.1955 15.2298 10.046 15.1953 9.9081 15.1378C9.75867 15.0803 9.64373 14.9999 9.52879 14.8964C9.32189 14.678 9.19545 14.3792 9.19545 14.0803C9.19545 14.0114 9.20695 13.9309 9.21844 13.8504C9.22993 13.7815 9.25292 13.7125 9.28741 13.6435C9.31039 13.5746 9.34488 13.5056 9.39086 13.4367C9.43683 13.3792 9.48281 13.3217 9.52879 13.2642C9.95408 12.8389 10.7242 12.8389 11.161 13.2642C11.207 13.3217 11.2529 13.3792 11.2989 13.4367C11.3449 13.5056 11.3794 13.5746 11.4024 13.6435C11.4368 13.7125 11.4598 13.7815 11.4713 13.8504C11.4828 13.9309 11.4943 14.0114 11.4943 14.0803C11.4943 14.3792 11.3679 14.678 11.161 14.8964Z" fill="#240046"/>
<path d="M21.6438 17.1494C19.8507 15.3562 16.9311 15.3562 15.138 17.1494C13.3449 18.9425 13.3449 21.862 15.138 23.6551C16.9311 25.4483 19.8507 25.4483 21.6438 23.6551C23.4369 21.862 23.4369 18.9425 21.6438 17.1494ZM20.7702 21.0459C20.6208 21.2069 20.4024 21.2988 20.161 21.2988H19.3104V22.1954C19.3104 22.4367 19.2185 22.6436 19.0575 22.8046C18.8966 22.9655 18.6897 23.0574 18.4483 23.0574C17.9771 23.0574 17.5863 22.6666 17.5863 22.1954V21.2988H16.7242C16.2529 21.2988 15.8621 20.9195 15.8621 20.4367C15.8621 19.9655 16.2529 19.5747 16.7242 19.5747H17.5863V18.7586C17.5863 18.2873 17.9656 17.8965 18.4483 17.8965C18.9196 17.8965 19.3104 18.2873 19.3104 18.7586V19.5747H20.161C20.6438 19.5747 21.0231 19.9655 21.0231 20.4367C21.0231 20.6781 20.9311 20.8965 20.7702 21.0459Z" fill="#240046"/>
</svg>
