<svg width="31" height="38" viewBox="0 0 31 38" fill="none" xmlns="http://www.w3.org/2000/svg">
<mask id="mask0_60_2" style="mask-type:luminance" maskUnits="userSpaceOnUse" x="0" y="0" width="31" height="38">
<path d="M0 0H31V38H0V0Z" fill="white"/>
</mask>
<g mask="url(#mask0_60_2)">
<path d="M21.7747 25.6917H17.2926V30.3683H13.7065V25.6917H9.22443V21.9508H13.7065V17.2742H17.2926V21.9508H21.7747V25.6917ZM11.4885 5.68688C11.4885 3.37947 13.2879 1.50259 15.4994 1.50259C17.711 1.50259 19.5106 3.37947 19.5106 5.68688V9.64672H11.4885V5.68688ZM30.9754 34.1785L29.2862 12.8821C29.142 11.0678 27.6624 9.64672 25.9175 9.64672H20.9312V5.68688C20.9312 2.56224 18.4948 0.0198975 15.4994 0.0198975C12.5044 0.0198975 10.068 2.56224 10.068 5.68688V9.64672H5.08163C3.33653 9.64672 1.85718 11.0678 1.71334 12.8821L0.0237681 34.1785C-0.0538877 35.1578 0.267595 36.1343 0.905847 36.8576C1.54389 37.5808 2.45036 37.9957 3.39247 37.9957H27.6067C28.5488 37.9957 29.4553 37.5808 30.0933 36.8576C30.7316 36.1343 31.0527 35.1578 30.9754 34.1785Z" fill="#EFDA6B"/>
</g>
</svg>
