<svg width="23" height="23" viewBox="0 0 23 23" fill="none" xmlns="http://www.w3.org/2000/svg">
<path d="M6.5714 23C3.56895 23 1.12167 20.564 1.12167 17.5503V14.3325C1.12167 13.5734 1.86945 13.0636 2.58324 13.3128C2.87782 13.4148 3.1724 13.4828 3.47831 13.5281C3.61427 13.5508 3.75023 13.5734 3.88619 13.5734C4.05614 13.5961 4.23742 13.6074 4.40737 13.6074C5.665 13.6074 6.9113 13.1429 7.89701 12.3385C8.8374 13.1429 10.0497 13.6074 11.3413 13.6074C12.6329 13.6074 13.8339 13.1656 14.7743 12.3498C15.7487 13.1429 16.9723 13.6074 18.2186 13.6074C18.4112 13.6074 18.6152 13.5961 18.7965 13.5734C18.9324 13.5621 19.0457 13.5508 19.1704 13.5281C19.5103 13.4828 19.8162 13.3922 20.1221 13.2902C20.8245 13.0523 21.561 13.5734 21.561 14.3099V17.5503C21.561 20.5527 19.125 23 16.1113 23H6.5714Z" fill="#240046"/>
<path d="M22.6372 7.63642L22.3199 4.62264C21.8667 1.33694 20.3712 0 17.1761 0H14.6155H13.0067H9.69831H8.07812H5.46089C2.26583 0 0.781602 1.33694 0.317072 4.65663L0.0224926 7.64775C-0.0908074 8.81474 0.226433 9.94774 0.917562 10.8315C1.74465 11.9078 3.01361 12.5196 4.42986 12.5196C5.80079 12.5196 7.11507 11.8285 7.94216 10.7295C8.67861 11.8285 9.94757 12.5196 11.3525 12.5196C12.7574 12.5196 13.9924 11.8625 14.7402 10.7748C15.5786 11.8512 16.8702 12.5196 18.2298 12.5196C19.68 12.5196 20.983 11.8738 21.7987 10.7408C22.4559 9.86843 22.7505 8.76942 22.6372 7.63642ZM13.0293 6.66204H12.1796V7.54578C12.1796 8.02164 11.7944 8.39553 11.3298 8.39553C10.8653 8.39553 10.4801 8.02164 10.4801 7.54578V6.66204H9.63033C9.1658 6.66204 8.78058 6.28815 8.78058 5.81229C8.78058 5.34776 9.1658 4.96254 9.63033 4.96254H10.4801V4.15811C10.4801 3.69358 10.8653 3.30836 11.3298 3.30836C11.7944 3.30836 12.1796 3.69358 12.1796 4.15811V4.96254H13.0293C13.4939 4.96254 13.8791 5.34776 13.8791 5.81229C13.8791 6.28815 13.4939 6.66204 13.0293 6.66204Z" fill="#240046"/>
</svg>
