<svg width="24" height="24" viewBox="0 0 24 24" fill="none" xmlns="http://www.w3.org/2000/svg">
<g clip-path="url(#clip0_446_592)">
<path d="M21.484 11.3949C21.9875 10.1885 22.2898 8.9059 22.2898 7.578C22.2205 2.89231 16.9564 -1.45443 11.9706 4.66306C6.98482 -1.45443 1.72063 2.89231 1.65137 7.578C1.65137 12.5395 5.87368 16.8686 9.02189 18.9549" stroke="white" stroke-width="1.71" stroke-linecap="round" stroke-linejoin="round"/>
<path d="M15.0403 15.0404C15.821 14.2596 15.9419 13.5434 16.5091 12.8217C16.953 12.2567 17.7935 12.2567 18.2376 12.8217C18.8047 13.5434 18.9255 14.2596 19.7063 15.0404C20.4871 15.8211 21.2033 15.942 21.925 16.5091C22.49 16.9532 22.49 17.7937 21.925 18.2377C21.2033 18.8048 20.4871 18.9257 19.7065 19.7065C18.9257 20.4872 18.8049 21.2034 18.2376 21.9251C17.7937 22.4902 16.953 22.4902 16.5091 21.9251C15.9419 21.2034 15.8211 20.4872 15.0404 19.7065C14.2596 18.9257 13.5434 18.8048 12.8217 18.2377C12.2567 17.7937 12.2567 16.9532 12.8217 16.5091C13.5434 15.942 14.2596 15.8211 15.0403 15.0404Z" stroke="white" stroke-width="1.71" stroke-linecap="round" stroke-linejoin="round"/>
</g>
<defs>
<clipPath id="clip0_446_592">
<rect width="24" height="24" fill="white"/>
</clipPath>
</defs>
</svg>
