<svg width="94" height="75" viewBox="0 0 94 75" fill="none" xmlns="http://www.w3.org/2000/svg">
<path d="M68.1768 68.5062H27.1945C26.1088 68.5062 22.4352 66.276 22.3554 64.6452V13.5077C22.3554 12.6414 24.991 9.69763 26.8754 9.64663H68.1926C69.2788 9.64663 72.9203 12.2461 72.7126 13.7627V64.8998C72.6963 65.7664 69.2629 68.5062 68.1768 68.5062Z" fill="#71C5F6"/>
<mask id="mask0_1_194" style="mask-type:luminance" maskUnits="userSpaceOnUse" x="22" y="9" width="51" height="60">
<path d="M22.116 9.44444H72.9457V68.7037H22.116V9.44444Z" fill="white"/>
</mask>
<g mask="url(#mask0_1_194)">
<path d="M66.883 68.6972H28.1692C24.8309 68.6972 22.116 66.531 22.116 63.8679V14.298C22.116 11.6345 24.8309 9.46832 28.1692 9.46832H66.883C70.2208 9.46832 72.9361 11.6345 72.9361 14.298V63.8679C72.9361 66.531 70.2208 68.6972 66.883 68.6972ZM28.1692 9.83796C25.0866 9.83796 22.5793 11.8385 22.5793 14.298V63.8679C22.5793 66.327 25.0866 68.3279 28.1692 68.3279H66.883C69.9655 68.3279 72.4729 66.327 72.4729 63.8679V14.298C72.4729 11.8385 69.9655 9.83796 66.883 9.83796H28.1692Z" fill="black"/>
</g>
<path d="M28.2009 12.5647H68.0648V62.0457H28.2009V12.5647Z" fill="black"/>
<path d="M68.0806 62.2367H28.2009C28.0731 62.2367 27.9616 62.1474 27.9616 62.0457V12.5647C27.9616 12.4627 28.0731 12.3738 28.2009 12.3738H68.0648C68.1926 12.3738 68.3046 12.4627 68.3046 12.5647V62.0457C68.3204 62.1474 68.2085 62.2367 68.0806 62.2367ZM28.4407 61.8544H67.8413V12.7561H28.4407V61.8544Z" fill="black"/>
<path d="M26.9393 12.1951H67.6817V61.2938H26.9393V12.1951Z" fill="white"/>
<path d="M67.6817 61.4847H26.9393C26.8115 61.4847 26.6995 61.3958 26.6995 61.2938V12.1951C26.6995 12.0935 26.8115 12.0041 26.9393 12.0041H67.6817C67.8091 12.0041 67.9211 12.0935 67.9211 12.1951V61.2938C67.9211 61.3958 67.8254 61.4847 67.6817 61.4847ZM27.1787 61.1024H67.4578V12.3864H27.1787V61.1024Z" fill="black"/>
<path d="M35.3878 12.1951H59.6802V14.2596H35.3878V12.1951Z" fill="black"/>
<path d="M59.6802 14.4506H35.3878C35.26 14.4506 35.1485 14.3616 35.1485 14.2596V12.1951C35.1485 12.0935 35.26 12.0041 35.3878 12.0041H59.6802C59.8076 12.0041 59.9196 12.0935 59.9196 12.1951V14.2596C59.9037 14.3616 59.8076 14.4506 59.6802 14.4506ZM35.6118 14.0686H59.4245V12.3864H35.6118V14.0686Z" fill="black"/>
<path d="M63.4491 7.35279C63.4491 6.15524 62.2192 5.17397 60.7183 5.17397C60.7183 5.17397 34.4934 5.17397 34.3338 5.17397C32.8325 5.17397 31.6026 6.15524 31.6026 7.35279C31.6026 8.55071 32.8166 9.51931 34.318 9.53197C35.2282 9.88896 36.2346 10.6152 36.2346 12.1314C36.2346 12.9854 37.0968 13.6733 38.1671 13.6733C38.2786 13.6733 56.8692 13.6733 56.8692 13.6733H56.8851C57.9553 13.6733 58.8175 12.9854 58.8175 12.1314C58.8175 12.1314 58.6421 9.92694 60.702 9.53197H60.7183C60.9418 9.53197 61.1653 9.50666 61.3888 9.46832C61.3888 9.46832 61.3888 9.46832 61.4051 9.46832C62.5706 9.21333 63.4491 8.3724 63.4491 7.35279Z" fill="#71C5F6"/>
<mask id="mask1_1_194" style="mask-type:luminance" maskUnits="userSpaceOnUse" x="31" y="4" width="33" height="10">
<path d="M31.3333 4.98083H63.7111V13.8889H31.3333V4.98083Z" fill="white"/>
</mask>
<g mask="url(#mask1_1_194)">
<path d="M56.885 13.8647H38.1671C36.969 13.8647 35.9948 13.0874 35.9948 12.1315C35.9948 10.9976 35.4041 10.1819 34.2541 9.72332C32.657 9.68498 31.3633 8.64006 31.3633 7.3528C31.3633 6.04059 32.7046 4.98265 34.3338 4.98265H60.7183C62.3471 4.98265 63.6889 6.04059 63.6889 7.3528C63.6889 8.42341 62.7786 9.36633 61.4849 9.63398C61.4527 9.64664 61.4209 9.64664 61.4051 9.64664C61.2133 9.68498 60.9577 9.7103 60.7342 9.7103C58.9295 10.0673 59.0732 12.0935 59.0732 12.1061C59.0573 13.0874 58.0827 13.8647 56.885 13.8647ZM34.3338 5.36496C32.9603 5.36496 31.8424 6.25725 31.8424 7.3528C31.8424 8.43607 32.9444 9.32799 34.318 9.34101C34.3497 9.34101 34.3819 9.35367 34.4136 9.35367C35.3561 9.72332 36.474 10.5006 36.474 12.1188C36.474 12.8707 37.2405 13.4697 38.1671 13.4697H56.837C56.8533 13.4697 56.8533 13.4697 56.8692 13.4697C57.8112 13.4697 58.5782 12.8581 58.5782 12.1188C58.5782 12.1061 58.4182 9.7613 60.6544 9.34101C60.6703 9.34101 60.702 9.34101 60.7183 9.34101C60.9096 9.34101 61.1172 9.31533 61.3248 9.27699C62.4269 9.04768 63.2097 8.25775 63.2097 7.3528C63.2097 6.25725 62.0919 5.36496 60.7183 5.36496H34.3338Z" fill="black"/>
</g>
<path d="M35.1326 7.73509C34.5256 7.73509 34.0143 7.34013 34.0143 6.84317C34.0143 6.34621 34.5097 5.95124 35.1326 5.95124C35.7555 5.95124 36.2505 6.34621 36.2505 6.84317C36.2505 7.34013 35.7391 7.73509 35.1326 7.73509ZM35.1326 6.33355C34.7808 6.33355 34.4934 6.56286 34.4934 6.84317C34.4934 7.12348 34.7808 7.35279 35.1326 7.35279C35.4839 7.35279 35.7713 7.12348 35.7713 6.84317C35.7713 6.56286 35.4839 6.33355 35.1326 6.33355Z" fill="black"/>
<path d="M40.0996 7.73509C39.4926 7.73509 38.9813 7.34013 38.9813 6.84317C38.9813 6.34621 39.4767 5.95124 40.0996 5.95124C40.7224 5.95124 41.2175 6.34621 41.2175 6.84317C41.2175 7.34013 40.7224 7.73509 40.0996 7.73509ZM40.0996 6.33355C39.7483 6.33355 39.4604 6.56286 39.4604 6.84317C39.4604 7.12348 39.7483 7.35279 40.0996 7.35279C40.4509 7.35279 40.7383 7.12348 40.7383 6.84317C40.7383 6.56286 40.4509 6.33355 40.0996 6.33355Z" fill="black"/>
<path d="M45.0185 7.73509C44.4116 7.73509 43.9007 7.34013 43.9007 6.84317C43.9007 6.34621 44.3957 5.95124 45.0185 5.95124C45.6255 5.95124 46.1364 6.34621 46.1364 6.84317C46.1364 7.34013 45.6255 7.73509 45.0185 7.73509ZM45.0185 6.33355C44.6672 6.33355 44.3798 6.56286 44.3798 6.84317C44.3798 7.12348 44.6672 7.35279 45.0185 7.35279C45.3699 7.35279 45.6573 7.12348 45.6573 6.84317C45.6573 6.56286 45.3699 6.33355 45.0185 6.33355Z" fill="black"/>
<path d="M50.2249 7.73509C49.6184 7.73509 49.107 7.34013 49.107 6.84317C49.107 6.34621 49.602 5.95124 50.2249 5.95124C50.8478 5.95124 51.3432 6.34621 51.3432 6.84317C51.3432 7.34013 50.8478 7.73509 50.2249 7.73509ZM50.2249 6.33355C49.8736 6.33355 49.5862 6.56286 49.5862 6.84317C49.5862 7.12348 49.8736 7.35279 50.2249 7.35279C50.5767 7.35279 50.8641 7.12348 50.8641 6.84317C50.8641 6.56286 50.5767 6.33355 50.2249 6.33355Z" fill="black"/>
<path d="M55.2082 7.73509C54.6012 7.73509 54.0903 7.34013 54.0903 6.84317C54.0903 6.34621 54.5854 5.95124 55.2082 5.95124C55.8152 5.95124 56.3261 6.34621 56.3261 6.84317C56.3261 7.34013 55.8152 7.73509 55.2082 7.73509ZM55.2082 6.33355C54.8569 6.33355 54.5691 6.56286 54.5691 6.84317C54.5691 7.12348 54.8569 7.35279 55.2082 7.35279C55.5596 7.35279 55.847 7.12348 55.847 6.84317C55.847 6.56286 55.5596 6.33355 55.2082 6.33355Z" fill="black"/>
<path d="M60.6063 7.73509C59.9993 7.73509 59.4884 7.34013 59.4884 6.84317C59.4884 6.34621 59.9835 5.95124 60.6063 5.95124C61.2133 5.95124 61.7242 6.34621 61.7242 6.84317C61.7242 7.34013 61.2133 7.73509 60.6063 7.73509ZM60.6063 6.33355C60.255 6.33355 59.9676 6.56286 59.9676 6.84317C59.9676 7.12348 60.255 7.35279 60.6063 7.35279C60.9577 7.35279 61.2451 7.12348 61.2451 6.84317C61.2451 6.56286 60.9577 6.33355 60.6063 6.33355Z" fill="black"/>
<path d="M58.8656 11.4815H36.2183C36.0905 11.4815 35.9789 11.3925 35.9789 11.2905C35.9789 11.1885 36.0905 11.0995 36.2183 11.0995H58.8656C58.9934 11.0995 59.105 11.1885 59.105 11.2905C59.105 11.3925 58.9934 11.4815 58.8656 11.4815Z" fill="black"/>
<path d="M65.5094 58.8469C65.4455 58.8469 65.3816 58.8343 65.3499 58.7959L55.2082 50.8189C55.1285 50.7682 55.1121 50.6789 55.1602 50.6026C55.2082 50.5259 55.3039 50.4876 55.4 50.5006C55.4159 50.5006 57.8434 50.7172 59.153 49.7739C59.7278 49.3663 59.9994 48.8057 59.9994 48.0921C59.9994 47.4678 59.7278 46.9835 59.2169 46.6395C57.9073 45.7603 55.3361 45.9639 54.6012 46.0406V57.1267C54.6012 57.2287 54.4893 57.3181 54.3614 57.3181C54.2341 57.3181 54.1221 57.2287 54.1221 57.1267V45.8876C54.1221 45.7982 54.2019 45.7219 54.3138 45.6963C54.4575 45.6709 57.8112 45.2123 59.5043 46.3462C60.1431 46.7669 60.4626 47.3528 60.4626 48.0921C60.4626 48.9204 60.1272 49.583 59.4404 50.0546C58.4023 50.7935 56.8211 50.8955 55.9426 50.8955L65.6373 58.5156C65.7329 58.5923 65.7329 58.707 65.6373 58.7833C65.6373 58.8343 65.5733 58.8469 65.5094 58.8469Z" fill="#71C5F6"/>
<path d="M58.6738 58.006C58.6258 58.006 58.5782 57.9933 58.5301 57.9677C58.4345 57.904 58.4023 57.7894 58.4821 57.7004L63.1136 52.9727C63.1939 52.8834 63.3376 52.8707 63.4491 52.9344C63.5452 52.998 63.5769 53.1127 63.4971 53.202L58.8656 57.9297C58.8175 57.9807 58.7378 58.006 58.6738 58.006Z" fill="#71C5F6"/>
<path d="M65.4138 21.2301H29.2231C29.0953 21.2301 28.9833 21.1408 28.9833 21.0388V16.2221C28.9833 16.1202 29.0953 16.0308 29.2231 16.0308H65.4138C65.5416 16.0308 65.6531 16.1202 65.6531 16.2221V21.0388C65.6531 21.1408 65.5416 21.2301 65.4138 21.2301ZM29.4625 20.8478H65.174V16.4131H29.4625V20.8478Z" fill="black"/>
<path d="M63.3054 24.5048H31.6026C31.4752 24.5048 31.3633 24.4159 31.3633 24.3139C31.3633 24.2119 31.4752 24.1225 31.6026 24.1225H63.3054C63.4332 24.1225 63.5452 24.2119 63.5452 24.3139C63.5452 24.4159 63.4332 24.5048 63.3054 24.5048Z" fill="black"/>
<path d="M63.3054 27.78H31.6026C31.4752 27.78 31.3633 27.6906 31.3633 27.5886C31.3633 27.4866 31.4752 27.3976 31.6026 27.3976H63.3054C63.4332 27.3976 63.5452 27.4866 63.5452 27.5886C63.5452 27.6906 63.4332 27.78 63.3054 27.78Z" fill="black"/>
<path d="M63.3054 31.4117H31.6026C31.4752 31.4117 31.3633 31.3223 31.3633 31.2203C31.3633 31.1183 31.4752 31.0294 31.6026 31.0294H63.3054C63.4332 31.0294 63.5452 31.1183 63.5452 31.2203C63.5452 31.3223 63.4332 31.4117 63.3054 31.4117Z" fill="black"/>
<path d="M63.3054 34.7758H31.6026C31.4752 34.7758 31.3633 34.6864 31.3633 34.5844C31.3633 34.4828 31.4752 34.3934 31.6026 34.3934H63.3054C63.4332 34.3934 63.5452 34.4828 63.5452 34.5844C63.5452 34.6864 63.4332 34.7758 63.3054 34.7758Z" fill="black"/>
<path d="M63.3054 38.2545H31.6026C31.4752 38.2545 31.3633 38.1651 31.3633 38.0635C31.3633 37.9615 31.4752 37.8722 31.6026 37.8722H63.3054C63.4332 37.8722 63.5452 37.9615 63.5452 38.0635C63.5452 38.1651 63.4332 38.2545 63.3054 38.2545Z" fill="black"/>
<path d="M63.3054 41.6186H31.6026C31.4752 41.6186 31.3633 41.5296 31.3633 41.4276C31.3633 41.3256 31.4752 41.2363 31.6026 41.2363H63.3054C63.4332 41.2363 63.5452 41.3256 63.5452 41.4276C63.5452 41.5296 63.4332 41.6186 63.3054 41.6186Z" fill="black"/>
<path d="M45.4852 46.8731C45.4208 46.8731 45.3701 46.8586 45.3329 46.8297C45.2953 46.8008 45.2767 46.7628 45.2767 46.7154C45.2767 46.6684 45.2953 46.6297 45.3329 46.5997C45.3701 46.5689 45.4208 46.5534 45.4852 46.5534C45.5514 46.5534 45.6031 46.5678 45.6393 46.5968C45.6765 46.6257 45.6956 46.6644 45.6956 46.7125C45.6956 46.7599 45.6765 46.7986 45.6393 46.8283C45.6017 46.8583 45.5505 46.8731 45.4852 46.8731Z" fill="white"/>
</svg>
