<svg width="151" height="125" viewBox="0 0 151 125" fill="none" xmlns="http://www.w3.org/2000/svg">
<mask id="mask0_1_234" style="mask-type:luminance" maskUnits="userSpaceOnUse" x="36" y="58" width="20" height="17">
<path d="M36.3591 58.5196H55.4315V74.308H36.3591V58.5196Z" fill="white"/>
</mask>
<g mask="url(#mask0_1_234)">
<path d="M55.5283 66.4539C55.5283 66.7137 55.513 66.9729 55.4824 67.2315C55.4511 67.4901 55.4053 67.7469 55.3441 68.0019C55.2829 68.2563 55.2065 68.5083 55.1154 68.7572C55.0244 69.0056 54.9188 69.2497 54.7987 69.4903C54.6785 69.7302 54.5445 69.9647 54.3967 70.1938C54.2489 70.4228 54.0872 70.6459 53.9132 70.8617C53.7384 71.0781 53.552 71.2861 53.3525 71.4874C53.1537 71.6881 52.9432 71.8804 52.7211 72.0643C52.499 72.2481 52.2667 72.4224 52.0242 72.5869C51.7817 72.7521 51.5298 72.9064 51.2683 73.0511C51.0076 73.1952 50.7389 73.3284 50.4615 73.4514C50.1848 73.5737 49.9015 73.6847 49.6117 73.7841C49.3219 73.8836 49.0262 73.971 48.7262 74.0463C48.4254 74.1217 48.1211 74.185 47.8138 74.2356C47.5057 74.2863 47.1955 74.3242 46.8831 74.3496C46.5707 74.3755 46.2576 74.3881 45.9437 74.3881C45.6299 74.3881 45.3167 74.3755 45.0043 74.3496C44.6919 74.3242 44.3817 74.2863 44.0737 74.2356C43.7657 74.185 43.462 74.1217 43.1613 74.0463C42.8612 73.971 42.5656 73.8836 42.2758 73.7841C41.9859 73.6847 41.7027 73.5737 41.4252 73.4514C41.1485 73.3284 40.8798 73.1952 40.6191 73.0511C40.3577 72.9064 40.1057 72.7521 39.8632 72.5869C39.6207 72.4224 39.3885 72.2481 39.1664 72.0643C38.9442 71.8804 38.7338 71.6881 38.535 71.4874C38.3355 71.2861 38.1491 71.0781 37.9743 70.8617C37.8002 70.6459 37.6386 70.4228 37.4908 70.1938C37.3429 69.9647 37.2089 69.7302 37.0888 69.4903C36.9686 69.2497 36.863 69.0056 36.772 68.7572C36.681 68.5083 36.6045 68.2563 36.5434 68.0019C36.4822 67.7469 36.4363 67.4901 36.405 67.2315C36.3744 66.9729 36.3591 66.7137 36.3591 66.4539C36.3591 66.1941 36.3744 65.9349 36.405 65.6762C36.4363 65.4176 36.4822 65.1608 36.5434 64.9058C36.6045 64.6509 36.681 64.3995 36.772 64.1505C36.863 63.9022 36.9686 63.6574 37.0888 63.4175C37.2089 63.1776 37.3429 62.9425 37.4908 62.7134C37.6386 62.4843 37.8002 62.2619 37.9743 62.0455C38.1491 61.8297 38.3355 61.6211 38.535 61.4204C38.7338 61.2196 38.9442 61.0273 39.1664 60.8435C39.3885 60.6596 39.6207 60.4854 39.8632 60.3202C40.1057 60.1557 40.3577 60.0013 40.6191 59.8567C40.8798 59.7126 41.1485 59.5788 41.4252 59.4564C41.7027 59.334 41.9859 59.2231 42.2758 59.1236C42.5656 59.0242 42.8612 58.9368 43.1613 58.8614C43.462 58.7854 43.7657 58.7228 44.0737 58.6721C44.3817 58.6215 44.6919 58.5829 45.0043 58.5576C45.3167 58.5323 45.6299 58.5196 45.9437 58.5196C46.2576 58.5196 46.5707 58.5323 46.8831 58.5576C47.1955 58.5829 47.5057 58.6215 47.8138 58.6721C48.1211 58.7228 48.4254 58.7854 48.7262 58.8614C49.0262 58.9368 49.3219 59.0242 49.6117 59.1236C49.9015 59.2231 50.1848 59.334 50.4615 59.4564C50.7389 59.5788 51.0076 59.7126 51.2683 59.8567C51.5298 60.0013 51.7817 60.1557 52.0242 60.3202C52.2667 60.4854 52.499 60.6596 52.7211 60.8435C52.9432 61.0273 53.1537 61.2196 53.3525 61.4204C53.552 61.6211 53.7384 61.8297 53.9132 62.0455C54.0872 62.2619 54.2489 62.4843 54.3967 62.7134C54.5445 62.9425 54.6785 63.1776 54.7987 63.4175C54.9188 63.6574 55.0244 63.9022 55.1154 64.1505C55.2065 64.3995 55.2829 64.6509 55.3441 64.9058C55.4053 65.1608 55.4511 65.4176 55.4824 65.6762C55.513 65.9349 55.5283 66.1941 55.5283 66.4539Z" fill="black"/>
</g>
<mask id="mask1_1_234" style="mask-type:luminance" maskUnits="userSpaceOnUse" x="97" y="20" width="8" height="12">
<path d="M97.8704 20.679H104.022V31.1728H97.8704V20.679Z" fill="white"/>
</mask>
<g mask="url(#mask1_1_234)">
<mask id="mask2_1_234" style="mask-type:luminance" maskUnits="userSpaceOnUse" x="24" y="8" width="107" height="91">
<path d="M47.4868 8.60822L130.63 26.9091L107.617 98.5556L24.4734 80.2547L47.4868 8.60822Z" fill="white"/>
</mask>
<g mask="url(#mask2_1_234)">
<mask id="mask3_1_234" style="mask-type:luminance" maskUnits="userSpaceOnUse" x="24" y="8" width="107" height="91">
<path d="M47.4868 8.60822L130.63 26.9091L107.617 98.5556L24.4734 80.2547L47.4868 8.60822Z" fill="white"/>
</mask>
<g mask="url(#mask3_1_234)">
<path d="M98.0196 29.1805C98.3531 27.735 98.7136 26.155 99.0821 24.5726C99.2707 23.7588 99.4403 22.9384 99.6748 22.1324C99.9887 21.0582 101.115 20.4964 102.375 20.7399C103.487 20.9545 104.201 21.8955 103.973 22.8944C103.462 25.1447 102.947 27.3944 102.397 29.6405C102.152 30.6436 101.144 31.2572 100.036 31.1578C98.8753 31.0499 98.0204 30.274 98.0196 29.1805Z" fill="#71C5F6"/>
</g>
</g>
</g>
<mask id="mask4_1_234" style="mask-type:luminance" maskUnits="userSpaceOnUse" x="110" y="44" width="14" height="7">
<path d="M110.547 44.5988H123.037V50.463H110.547V44.5988Z" fill="white"/>
</mask>
<g mask="url(#mask4_1_234)">
<mask id="mask5_1_234" style="mask-type:luminance" maskUnits="userSpaceOnUse" x="24" y="8" width="107" height="91">
<path d="M47.4868 8.60822L130.63 26.9091L107.617 98.5556L24.4734 80.2547L47.4868 8.60822Z" fill="white"/>
</mask>
<g mask="url(#mask5_1_234)">
<mask id="mask6_1_234" style="mask-type:luminance" maskUnits="userSpaceOnUse" x="24" y="8" width="107" height="91">
<path d="M47.4868 8.60822L130.63 26.9091L107.617 98.5556L24.4734 80.2547L47.4868 8.60822Z" fill="white"/>
</mask>
<g mask="url(#mask6_1_234)">
<path d="M123.012 48.499C123.067 49.8246 121.651 50.6745 119.991 50.2731C118.036 49.8029 116.095 49.2893 114.148 48.7968C113.478 48.6274 112.798 48.4857 112.138 48.2946C110.915 47.9396 110.314 46.9817 110.675 46.0154C111.043 45.037 112.169 44.5132 113.415 44.8134C116.099 45.4644 118.776 46.1378 121.442 46.8304C122.446 47.089 122.978 47.7099 123.012 48.499Z" fill="#71C5F6"/>
</g>
</g>
</g>
<mask id="mask7_1_234" style="mask-type:luminance" maskUnits="userSpaceOnUse" x="108" y="30" width="13" height="8">
<path d="M108.683 30.2469H120.427V37.6543H108.683V30.2469Z" fill="white"/>
</mask>
<g mask="url(#mask7_1_234)">
<mask id="mask8_1_234" style="mask-type:luminance" maskUnits="userSpaceOnUse" x="24" y="8" width="107" height="91">
<path d="M47.4868 8.60822L130.63 26.9091L107.617 98.5556L24.4734 80.2547L47.4868 8.60822Z" fill="white"/>
</mask>
<g mask="url(#mask8_1_234)">
<mask id="mask9_1_234" style="mask-type:luminance" maskUnits="userSpaceOnUse" x="24" y="8" width="107" height="91">
<path d="M47.4868 8.60822L130.63 26.9091L107.617 98.5556L24.4734 80.2547L47.4868 8.60822Z" fill="white"/>
</mask>
<g mask="url(#mask9_1_234)">
<path d="M120.405 32.4508C120.179 32.7046 119.869 33.34 119.296 33.648C116.975 34.8982 114.586 36.0671 112.191 37.2275C111.058 37.7779 109.793 37.4849 109.158 36.6181C108.51 35.7277 108.775 34.7066 109.909 34.1224C112.263 32.9071 114.628 31.7087 117.029 30.558C118.559 29.8231 120.401 30.6966 120.405 32.4508Z" fill="#71C5F6"/>
</g>
</g>
</g>
<mask id="mask10_1_234" style="mask-type:luminance" maskUnits="userSpaceOnUse" x="30" y="50" width="36" height="30">
<path d="M30.7592 50.7716H65.2469V79.321H30.7592V50.7716Z" fill="white"/>
</mask>
<g mask="url(#mask10_1_234)">
<mask id="mask11_1_234" style="mask-type:luminance" maskUnits="userSpaceOnUse" x="24" y="8" width="107" height="91">
<path d="M47.4868 8.60822L130.63 26.9091L107.617 98.5556L24.4734 80.2547L47.4868 8.60822Z" fill="white"/>
</mask>
<g mask="url(#mask11_1_234)">
<mask id="mask12_1_234" style="mask-type:luminance" maskUnits="userSpaceOnUse" x="24" y="8" width="107" height="91">
<path d="M47.4868 8.60822L130.63 26.9091L107.617 98.5556L24.4734 80.2547L47.4868 8.60822Z" fill="white"/>
</mask>
<g mask="url(#mask12_1_234)">
<path d="M48.5733 60.9441C48.3774 61.163 48.1109 61.7061 47.623 61.9707C45.6292 63.0431 43.58 64.0456 41.5294 65.0397C40.5572 65.5111 39.4737 65.2603 38.9297 64.517C38.3734 63.7551 38.602 62.878 39.5734 62.3782C41.5913 61.3366 43.6193 60.3076 45.6772 59.3213C46.9902 58.6926 48.5682 59.4401 48.5733 60.9441ZM51.4337 65.0288C51.2407 65.2476 50.972 65.7902 50.4841 66.0548C48.4903 67.1272 46.4433 68.1303 44.3898 69.1256C43.4205 69.5958 42.334 69.3468 41.7908 68.6011C41.2337 67.8391 41.4624 66.9639 42.4345 66.4623C44.4524 65.4206 46.4804 64.3922 48.5383 63.4054C49.8513 62.7773 51.4293 63.5242 51.4337 65.0288ZM54.2787 69.0888C54.0829 69.3058 53.8156 69.8526 53.3284 70.1154C51.3346 71.1878 49.2884 72.1909 47.2348 73.1843C46.2649 73.6563 45.1791 73.4049 44.6352 72.6617C44.0788 71.8997 44.3067 71.0244 45.2767 70.5223C47.2967 69.4812 49.3248 68.4522 51.3827 67.466C52.6964 66.8355 54.2736 67.5848 54.2787 69.0888ZM51.0768 50.9006C45.6736 53.4915 40.2521 56.0625 34.8722 58.6866C30.8794 60.6361 29.616 64.5918 31.8698 67.9428C33.1711 69.8827 34.5437 71.79 35.896 73.707C36.5543 74.6431 37.1507 75.6203 37.9219 76.4896C40.4575 79.3523 44.9607 80.0697 48.8434 78.2281C49.6896 77.8266 50.5365 77.4233 51.3812 77.0194C55.3965 75.1043 59.398 73.1705 63.4104 71.2493L64.2697 70.8382C64.5777 70.6905 64.8836 70.5355 65.1443 70.4614L51.3601 50.7849C51.3412 50.7927 51.2035 50.8385 51.0768 50.9006Z" fill="#71C5F6"/>
</g>
</g>
</g>
<mask id="mask13_1_234" style="mask-type:luminance" maskUnits="userSpaceOnUse" x="52" y="67" width="27" height="23">
<path d="M52.0111 67.5926H78.2963V89.6605H52.0111V67.5926Z" fill="white"/>
</mask>
<g mask="url(#mask13_1_234)">
<mask id="mask14_1_234" style="mask-type:luminance" maskUnits="userSpaceOnUse" x="24" y="8" width="107" height="91">
<path d="M47.4868 8.60822L130.63 26.9091L107.617 98.5556L24.4734 80.2547L47.4868 8.60822Z" fill="white"/>
</mask>
<g mask="url(#mask14_1_234)">
<mask id="mask15_1_234" style="mask-type:luminance" maskUnits="userSpaceOnUse" x="24" y="8" width="107" height="91">
<path d="M47.4868 8.60822L130.63 26.9091L107.617 98.5556L24.4734 80.2547L47.4868 8.60822Z" fill="white"/>
</mask>
<g mask="url(#mask15_1_234)">
<path d="M77.5696 70.6911C79.1366 73.5629 77.8514 76.8283 74.6029 78.4921C74.0851 78.7561 73.5608 79.0069 73.0278 79.2529C72.1037 79.6772 71.1577 80.0908 70.2052 80.529C70.9211 81.5562 71.5859 82.4641 72.1969 83.396C73.9577 86.0846 71.8029 89.3729 68.1321 89.5924C67.5582 89.6279 67.0099 89.5972 66.4958 89.5062C66.4302 89.4634 66.3625 89.4188 66.2984 89.3687C65.0481 88.3837 63.7978 87.3945 62.5504 86.4005C59.082 83.642 55.6215 80.8473 52.0803 78.0147C56.0956 76.1001 60.0956 74.1657 64.1073 72.2457C65.2389 73.7901 66.396 75.3743 67.5408 76.938C68.0869 76.6825 68.6338 76.4371 69.1741 76.1918C70.155 75.7463 71.1235 75.3014 72.0556 74.8131C73.177 74.2242 73.4239 73.0873 72.7445 72.0902C72.1066 71.1522 71.4104 70.2371 70.6728 69.231C72.2122 68.6945 73.7618 68.1858 75.3238 67.7144C76.1343 68.7301 77.0059 69.656 77.5696 70.6911Z" fill="#71C5F6"/>
</g>
</g>
</g>
<mask id="mask16_1_234" style="mask-type:luminance" maskUnits="userSpaceOnUse" x="52" y="16" width="65" height="54">
<path d="M52.9432 16.5123H116.885V69.4444H52.9432V16.5123Z" fill="white"/>
</mask>
<g mask="url(#mask16_1_234)">
<mask id="mask17_1_234" style="mask-type:luminance" maskUnits="userSpaceOnUse" x="24" y="8" width="107" height="91">
<path d="M47.4868 8.60822L130.63 26.9091L107.617 98.5556L24.4734 80.2547L47.4868 8.60822Z" fill="white"/>
</mask>
<g mask="url(#mask17_1_234)">
<mask id="mask18_1_234" style="mask-type:luminance" maskUnits="userSpaceOnUse" x="24" y="8" width="107" height="91">
<path d="M47.4868 8.60822L130.63 26.9091L107.617 98.5556L24.4734 80.2547L47.4868 8.60822Z" fill="white"/>
</mask>
<g mask="url(#mask18_1_234)">
<path d="M104.721 44.351L104.366 43.841C104.845 42.627 104.48 40.9535 103.311 39.5387C102.316 38.3361 100.942 37.5018 99.7775 37.292L99.4899 36.8803C100.719 36.2395 103.005 37.2143 104.467 38.9835C106.042 40.8872 106.162 43.2611 104.721 44.351ZM105.643 38.0148C103.44 35.4233 99.2794 34.7994 96.8655 35.6831L83.4862 16.5817C82.4594 18.9586 81.5878 21.3493 80.4234 23.6364C75.7432 32.8089 67.9049 39.9275 58.7528 46.1534C56.9381 47.3892 55.0171 48.5135 53.1289 49.701L66.8948 69.3552C67.9172 68.9688 68.9455 68.5951 69.9759 68.2364C71.516 67.6975 73.0649 67.1911 74.6247 66.7167C80.0258 65.0728 85.5565 63.8238 91.2721 63.0805C99.8118 61.9737 108.301 62.1648 116.828 64.18L104.5 46.5814C107.463 44.4149 107.911 40.6835 105.643 38.0148Z" fill="#71C5F6"/>
</g>
</g>
</g>
</svg>
