<svg width="116" height="95" viewBox="0 0 116 95" fill="none" xmlns="http://www.w3.org/2000/svg">
<path d="M12.6366 33.2361H14.1446V34.6383C14.1446 34.7896 14.2767 34.9131 14.4396 34.9131C14.6033 34.9131 14.7353 34.7896 14.7353 34.6383V33.2361H16.2434C16.4071 33.2361 16.5391 33.1134 16.5391 32.962C16.5391 32.8099 16.4071 32.6872 16.2434 32.6872H14.7353V31.2858C14.7353 31.1336 14.6033 31.0109 14.4396 31.0109C14.2767 31.0109 14.1446 31.1336 14.1446 31.2858V32.6872H12.6366C12.4729 32.6872 12.3408 32.8099 12.3408 32.962C12.3408 33.1134 12.4729 33.2361 12.6366 33.2361Z" fill="#F7A7AB"/>
<path d="M29.5548 33.4323H32.1367V35.8324C32.1367 36.0925 32.3637 36.3034 32.6428 36.3034C32.9227 36.3034 33.1497 36.0925 33.1497 35.8324V33.4323H35.7316C36.0116 33.4323 36.2385 33.2214 36.2385 32.9612C36.2385 32.7011 36.0116 32.4909 35.7316 32.4909H33.1497V30.0908C33.1497 29.8307 32.9227 29.6198 32.6428 29.6198C32.3637 29.6198 32.1367 29.8307 32.1367 30.0908V32.4909H29.5548C29.2748 32.4909 29.0479 32.7011 29.0479 32.9612C29.0479 33.2214 29.2748 33.4323 29.5548 33.4323Z" fill="#F7A7AB"/>
<mask id="mask0_463_122" style="mask-type:luminance" maskUnits="userSpaceOnUse" x="0" y="0" width="116" height="95">
<path d="M0 0H116V95H0V0Z" fill="white"/>
</mask>
<g mask="url(#mask0_463_122)">
<path d="M111.186 45.4217C106.752 38.2362 97.3795 32.4872 88.275 33.3647C84.125 33.7645 80.1401 35.4267 77.0141 37.99C75.669 37.6512 71.5988 36.5996 68.1304 35.4429C65.2487 34.481 59.5993 29.9446 56.2985 27.1572C56.3776 26.0431 56.4242 25.3649 56.4242 25.3649C56.3412 24.7718 55.96 24.1185 55.2388 23.5747L55.8873 20.6205C56.5508 20.7792 57.1755 20.8976 57.7615 20.9806C57.7607 20.9857 57.7583 20.9894 57.7575 20.9946C57.7551 21.0636 57.8137 21.1217 57.888 21.1239C58.2423 21.1357 58.576 21.1415 58.8907 21.1415C59.1232 21.1415 59.3438 21.1379 59.5558 21.132C60.8218 21.1606 61.8317 21.0012 62.5758 20.7418C63.7043 20.4089 64.0135 19.954 64.1637 19.7328C64.4176 19.3624 64.1969 16.65 64.1503 16.1099C64.144 16.0415 64.0791 15.9915 64.0072 15.9952C63.9906 15.752 63.9732 15.5051 63.955 15.2567C63.955 15.2567 64.688 15.1325 64.9379 14.6129C65.089 14.2984 64.6437 13.5158 64.2325 12.8522C64.2689 12.8228 64.2918 12.8029 64.2966 12.7993C64.3314 12.7691 64.3472 12.7243 64.3369 12.6809C64.3274 12.6376 64.2934 12.6023 64.2491 12.5883C64.246 12.5876 64.1582 12.5597 64.023 12.5178C63.8427 12.2312 63.694 11.9938 63.6473 11.8718C63.6473 11.8718 63.6473 11.8718 63.6473 11.8711C63.6062 11.5007 63.5667 11.1877 63.5319 10.9525C63.8553 10.7012 64.1068 10.2044 63.6995 9.75027C63.6995 9.75027 63.5564 9.76276 63.32 9.7951C63.3105 9.72308 63.3018 9.65253 63.2939 9.58345C66.491 8.72585 69.368 7.52728 68.831 6.0612C68.0023 3.98445 66.2562 5.24403 63.9107 5.52842C63.9107 5.52842 58.5704 -3.75891 48.5337 1.7791C41.4023 6.07076 45.4385 13.9089 46.1748 15.6248C46.6453 16.7213 48.7828 17.6259 50.8539 17.7905L50.3067 22.4107C50.2402 22.4129 50.1778 22.4121 50.1105 22.4158C45.8695 22.6532 34.2227 47.3846 34.2227 47.3846C34.2227 47.3846 34.5619 47.3941 35.1471 47.4096C34.8964 47.6807 34.5912 48.0408 34.3026 48.4597C33.1844 47.716 32.0124 47.0429 30.7962 46.4469V40.7582C30.9448 40.7582 31.0658 40.6465 31.0658 40.5077C31.0658 40.3695 30.9448 40.2571 30.7962 40.2571V38.4037H19.7085C19.7085 38.2656 19.5875 38.1531 19.4388 38.1531C19.2893 38.1531 19.1691 38.2656 19.1691 38.4037H8.08141V40.2571C7.93195 40.2571 7.81175 40.3695 7.81175 40.5077C7.81175 40.6465 7.93195 40.7582 8.08141 40.7582V45.701C5.85928 47.4118 4.43664 50.1073 4.99415 52.7161C5.45597 54.8803 7.11901 56.6095 8.32023 58.5231C8.71246 59.1484 9.05567 59.7929 9.29212 60.4786C10.5258 64.0625 8.60254 67.9081 6.30133 71.0034C3.75656 74.4257 0.985614 77.4593 0.296042 81.665C0.121276 82.7357 0.220126 95.0183 0.247013 95.0183C0.248594 95.0183 115.57 95.0183 115.598 95.0183C115.598 95.0183 115.598 77.2557 115.598 76.2041C115.598 65.4228 117.241 55.2345 111.186 45.4217ZM56.2692 63.3284C55.2459 63.1168 54.2582 62.8272 53.3014 62.4737C54.036 60.9922 54.6584 59.8826 54.8529 59.5174L54.8861 59.5144C54.8861 59.5144 54.8972 59.4696 54.9154 59.3932C54.9162 59.3924 54.9162 59.391 54.9162 59.391C54.9162 59.391 54.9162 59.391 54.9162 59.3902C55.0482 58.8369 55.5773 56.5514 55.5781 55.5512C57.7369 55.5263 59.1556 55.4733 59.1556 55.4733L56.2692 63.3284ZM72.7154 44.1298C71.5885 48.8485 73.7687 54.0874 70.4324 58.795C69.8899 59.56 69.2319 60.2353 68.4957 60.8284L68.7037 52.8917L68.7029 52.891C68.9955 50.984 68.9828 49.5451 68.4664 48.9976C66.6927 47.1149 58.2794 47.145 54.3571 47.267C54.5848 46.7416 54.894 44.088 55.2032 40.7965C58.1134 41.6665 67.5823 43.3479 67.8441 43.392C69.5933 43.747 71.3592 43.9821 72.7154 44.1298Z" fill="#F7A7AB"/>
</g>
<path d="M34.3027 48.4597C34.5913 48.0408 34.8966 47.6815 35.1473 47.4096C39.0127 47.5117 53.7372 47.8659 54.3066 47.353C54.3232 47.3383 54.3398 47.3067 54.3572 47.267C58.2796 47.145 66.6928 47.1141 68.4666 48.9969C68.983 49.5451 68.9956 50.984 68.703 52.891C67.6758 59.596 62.8709 72.0962 62.8709 72.0962L53.9381 71.9617L53.1015 71.9492L54.3549 68.5394C54.3683 68.5438 54.3825 68.5474 54.3976 68.5474H60.5523C60.6266 68.5474 60.6867 68.4916 60.6867 68.4225C60.6867 68.3527 60.6266 68.2969 60.5523 68.2969H54.4434L56.2694 63.3284L59.1566 55.4733C59.1566 55.4733 57.7371 55.5255 55.579 55.5512C55.579 55.33 55.5537 55.1706 55.492 55.1088C55.2477 54.8634 43.4474 53.6736 34.5036 53.1452C32.6563 51.7049 33.3846 49.792 34.3027 48.4597ZM85.524 40.7097C84.9499 40.9287 84.4556 41.269 84.0658 41.6893C83.3438 42.469 82.9895 43.5243 83.1753 44.606C82.8329 44.8265 82.428 44.9727 81.9852 45.0168C81.6618 45.0484 81.3462 45.0205 81.0497 44.9463C80.8813 45.1917 80.6717 45.4019 80.3522 45.5048C80.3119 45.5173 80.2708 45.5239 80.2304 45.532C79.1542 52.3986 75.6984 71.1019 69.3665 75.8896H52.5938C51.0683 78.0413 50.1905 79.2178 49.6852 79.8652H60.1569V80.6692H73.6566C73.6431 80.559 73.6328 80.4436 73.6218 80.326C72.7345 70.9652 80.6005 65.0406 88.9141 62.9176C89.3594 62.8052 89.8069 62.7199 90.2569 62.6618L83.8396 46.1287C84.7087 47.2618 86.246 47.8725 87.8039 47.5661C87.8331 47.5602 87.864 47.5543 87.8932 47.547C87.928 47.5396 87.9628 47.5315 87.9992 47.5227C88.0071 47.5227 88.0134 47.5198 88.0205 47.5168C88.0253 47.5154 88.03 47.5117 88.0348 47.5102C87.0502 47.5962 85.9408 46.2132 85.5129 44.3334C85.0843 42.4521 85.4955 40.77 86.4326 40.4782C86.4271 40.4782 86.4223 40.4775 86.4168 40.4775C86.4097 40.4775 86.4018 40.4775 86.3947 40.4804C86.3575 40.4856 86.3227 40.4907 86.2879 40.4981C86.2579 40.5017 86.227 40.5084 86.1978 40.5142C86.0546 40.5422 85.917 40.5782 85.7818 40.6201C85.694 40.6465 85.6086 40.6774 85.524 40.7097ZM19.7086 40.257H30.7963V38.4037H19.7086V40.257ZM19.7086 40.7582V52.6411H30.7963V40.7582H19.7086ZM19.1693 38.4037H8.08154V40.257H19.1693V38.4037ZM8.08154 52.8917V40.759H19.1693V52.6411H10.7125C10.605 52.6411 10.5077 52.7006 10.465 52.7932C10.45 52.8248 10.4452 52.8579 10.4452 52.8917H8.08154ZM13.7539 50.3263C13.7539 50.1712 13.6179 50.0448 13.451 50.0448H11.9066V48.6096C11.9066 48.4538 11.7706 48.3281 11.6037 48.3281C11.4361 48.3281 11.3001 48.4538 11.3001 48.6096V50.0448H9.75644C9.58959 50.0448 9.45357 50.1712 9.45357 50.3263C9.45357 50.4821 9.58959 50.6077 9.75644 50.6077H11.3009V52.0429C11.3009 52.1987 11.4369 52.3251 11.6037 52.3251C11.7714 52.3251 11.9066 52.1987 11.9066 52.0429V50.6077H13.451C13.6179 50.6077 13.7539 50.4821 13.7539 50.3263Z" fill="#674678"/>
<path d="M54.3059 47.3529C54.3225 47.3382 54.3391 47.3074 54.3565 47.267C54.5843 46.7415 54.8935 44.0879 55.2027 40.7964C55.2802 39.9763 55.3569 39.1172 55.4328 38.242C53.1237 36.8619 50.6611 35.2944 49.9581 34.4941C48.2397 32.5372 48.1678 29.7108 49.766 26.9337C49.8008 26.872 49.8822 26.85 49.9486 26.8823C50.0143 26.9146 50.0388 26.9903 50.004 27.0513C48.4588 29.7373 48.5205 32.46 50.1677 34.3354C51.0486 35.3392 54.9259 37.6688 57.5719 39.1988C60.2242 40.6311 62.9975 42.0222 64.7349 42.5939C65.6973 42.9106 66.7673 43.1737 67.8443 43.392C69.5935 43.7469 71.3586 43.9821 72.7148 44.1298C74.1549 44.2863 75.1331 44.3458 75.1331 44.3458L75.7285 42.7578L75.8171 42.5211L77.2619 38.6667L77.3568 38.4132L77.4722 38.1046C77.4722 38.1046 77.3062 38.0641 77.0136 37.9907C75.6692 37.6511 71.5982 36.6003 68.1298 35.4428C65.2489 34.4809 59.5987 29.9445 56.2979 27.1579C56.377 26.0431 56.4237 25.3648 56.4237 25.3648C56.3414 24.7718 55.9595 24.1185 55.2391 23.5746C54.2648 22.8405 52.6619 22.3121 50.3061 22.4106C50.2397 22.4135 50.178 22.4121 50.1108 22.4157C45.8697 22.6531 34.2229 47.3845 34.2229 47.3845C34.2229 47.3845 34.5614 47.3941 35.1466 47.4095C39.012 47.5117 53.7365 47.8659 54.3059 47.3529ZM39.4864 41.3218H41.0309V39.8866C41.0309 39.7316 41.1661 39.6052 41.3337 39.6052C41.5006 39.6052 41.6366 39.7316 41.6366 39.8866V41.3218H43.181C43.3479 41.3218 43.4839 41.4482 43.4839 41.604C43.4839 41.7591 43.3479 41.8855 43.181 41.8855H41.6366V43.3207C41.6366 43.4757 41.5006 43.6021 41.3337 43.6021C41.1661 43.6021 41.0309 43.4757 41.0309 43.3207V41.8855H39.4864C39.3188 41.8855 39.1836 41.7591 39.1836 41.604C39.1836 41.4482 39.3188 41.3218 39.4864 41.3218ZM17.3387 66.661H51.4417C51.2969 67.038 51.1586 67.4179 51.0281 67.7979H16.7993C16.9567 67.4245 17.1331 67.0424 17.33 66.6595C17.3331 66.6595 17.3355 66.661 17.3387 66.661ZM42.7666 75.4045L48.0563 79.8652H47.426V80.9168H60.157V79.8652H49.6845C50.1898 79.2178 51.0676 78.0405 52.5938 75.8895C49.3658 75.4618 49.6932 71.8088 50.9435 68.0484H16.6965C15.9959 69.7864 15.7033 71.2922 15.6266 71.7441L24.1561 71.9705C24.2312 71.9727 24.2889 72.03 24.2874 72.0991C24.285 72.1674 24.2249 72.2211 24.1521 72.2211C24.1514 72.2211 24.1498 72.2211 24.1482 72.2211L15.4661 71.9903C15.4281 71.9896 15.3925 71.9734 15.368 71.9462C15.3427 71.9198 15.3316 71.8837 15.3364 71.8485C15.3411 71.8139 15.5957 70.0877 16.4221 68.0198C16.3913 67.997 16.3707 67.9625 16.3707 67.9235C16.3707 67.8537 16.4308 67.7979 16.5052 67.7979H16.5131C17.3822 65.7049 18.8364 63.3166 21.2064 61.9835C25.0726 59.8083 33.4139 60.3896 38.0417 60.929C38.2133 60.9496 38.3184 60.9621 38.3461 60.9628C38.4196 60.9657 38.479 61.0231 38.4774 61.0907C38.4758 61.159 38.4173 61.2134 38.3437 61.2134C38.3153 61.2134 38.2449 61.2053 38.0084 61.1781C33.4147 60.6424 25.1422 60.0633 21.3456 62.1981C19.5782 63.1924 18.3303 64.7944 17.4596 66.4104H51.5397C52.0972 64.9899 52.733 63.6208 53.3016 62.4737C54.0363 60.9922 54.6578 59.8825 54.8531 59.5173C54.8903 59.4482 54.9109 59.4063 54.9156 59.3931C54.9156 59.3924 54.9164 59.3909 54.9164 59.3909C54.9164 59.3909 54.9156 59.3909 54.9156 59.3902C54.9892 59.0337 24.5894 56.6366 24.5365 56.6322H24.5357C24.5357 56.6322 21.4832 57.4619 18.3445 60.0008C18.4402 60.1008 18.4355 60.2544 18.3303 60.3477C18.2781 60.3933 18.2109 60.416 18.1445 60.416C18.0733 60.416 18.0021 60.3903 17.9492 60.3382L17.9452 60.3345C14.7536 63.0631 11.603 67.5943 11.603 74.8548H42.115L42.7666 75.4045ZM40.2076 71.8646C40.2076 71.7066 40.3452 71.5788 40.5153 71.5788H42.0842V70.1208C42.0842 69.9628 42.2218 69.8349 42.3918 69.8349C42.5618 69.8349 42.6994 69.9628 42.6994 70.1208V71.5788H44.2684C44.4384 71.5788 44.576 71.7066 44.576 71.8646C44.576 72.0226 44.4384 72.1505 44.2684 72.1505H42.6994V73.6085C42.6994 73.7665 42.5618 73.8951 42.3918 73.8951C42.2218 73.8951 42.0842 73.7665 42.0842 73.6085V72.1505H40.5153C40.3452 72.1512 40.2076 72.0226 40.2076 71.8646ZM88.9142 62.9176C89.3587 62.8044 89.8063 62.7191 90.257 62.6618C91.962 62.4421 93.6875 62.6096 95.3292 63.0359H92.7725C92.4926 63.0359 92.2656 63.2468 92.2656 63.5069C92.2656 63.7671 92.4926 63.9772 92.7725 63.9772H95.3545V66.3773C95.3545 66.6375 95.5814 66.8484 95.8614 66.8484C96.1413 66.8484 96.3675 66.6375 96.3675 66.3773V63.9772H97.9894C102.686 66.0893 105.991 70.0458 104.714 72.1454C104.07 73.2028 102.953 73.4057 101.513 73.2859C98.4148 73.025 93.8219 71.2532 89.2329 73.2058C85.426 74.8247 81.9023 78.344 79.5615 81.0932C79.5607 81.0939 79.5607 81.0946 79.5599 81.0954C79.5417 81.1196 79.5204 81.1417 79.5014 81.1637V81.1652H66.7712V80.6692H73.6574C73.644 80.5589 73.6329 80.4436 73.6219 80.326C72.7346 70.9651 80.6006 65.0406 88.9142 62.9176ZM88.1377 41.3784C88.1464 41.3733 88.1551 41.3718 88.163 41.3681C88.2215 41.3461 88.2887 41.3608 88.3251 41.4108C89.5002 43.0025 89.7936 45.1197 89.0906 46.9363C89.0708 46.987 89.0186 47.0186 88.9633 47.0186C88.9482 47.0186 88.9332 47.0164 88.9182 47.012C88.8945 47.0039 88.8771 46.9892 88.862 46.973C88.832 46.9399 88.8201 46.8944 88.8367 46.851C89.5105 45.1094 89.2298 43.0789 88.1029 41.5526C88.061 41.4953 88.0768 41.4174 88.1377 41.3784ZM52.1676 13.7656C52.1676 14.8833 51.1894 15.7923 49.9866 15.7923C48.7846 15.7923 47.8056 14.8833 47.8056 13.7656C47.8056 12.6478 48.7846 11.738 49.9866 11.738C51.1894 11.738 52.1676 12.6478 52.1676 13.7656ZM51.8758 17.8088C52.6737 17.7699 53.4147 17.5994 53.9904 17.2606C54.6341 16.8822 55.0485 16.2171 55.3126 15.4609C55.3419 15.3779 55.3687 15.2934 55.394 15.2081C55.9516 13.3496 55.6914 11.084 55.6914 11.084L63.9101 5.52836C63.9101 5.52836 58.5699 -3.75897 48.5331 1.77904C41.4017 6.0707 45.4379 13.9089 46.1742 15.6248C46.6447 16.7212 48.7822 17.6258 50.8533 17.7905C51.0874 17.8088 51.3207 17.8184 51.5508 17.8169C51.6599 17.8162 51.7683 17.814 51.8758 17.8088ZM49.9866 16.0429C48.6359 16.0429 47.5359 15.0215 47.5359 13.7656C47.5359 12.5097 48.6359 11.4882 49.9866 11.4882C51.3381 11.4882 52.4381 12.5097 52.4381 13.7656C52.4381 15.0215 51.3381 16.0429 49.9866 16.0429Z" fill="#9468AC"/>
<path d="M67.8443 43.3921C67.5826 43.348 58.1136 41.6666 55.2035 40.7965C55.2802 39.9764 55.3577 39.1173 55.4336 38.2421C53.1245 36.862 50.662 35.2945 49.9589 34.4942C48.2405 32.5372 48.1686 29.7109 49.7668 26.9338C49.8016 26.8721 49.883 26.8501 49.9494 26.8824C50.0151 26.9147 50.0396 26.9904 50.0048 27.0514C48.4596 29.7374 48.5205 32.4601 50.1685 34.3355C51.0494 35.3393 54.9267 37.6689 57.5727 39.1989C60.225 40.6311 62.9983 42.0223 64.7349 42.594C65.6981 42.9107 66.7681 43.1738 67.8443 43.3921ZM53.9382 71.9617L62.871 72.0962C62.871 72.0962 67.6751 59.596 68.7031 52.891L68.7039 52.8918L68.4952 60.8284L68.1978 72.1895L62.8062 72.0991C64.4115 72.3659 65.9717 72.8722 67.1476 73.4675C68.3876 74.0958 68.3457 75.3774 68.2737 75.8896H53.1466C53.1023 75.8771 53.0628 75.8646 53.0312 75.8514C51.8584 75.3568 53.6907 72.3563 53.9382 71.9617ZM64.2786 73.0427C63.4807 72.5606 61.4879 72.1748 61.4033 72.1587C61.3321 72.144 61.2594 72.1873 61.2444 72.2557C61.2285 72.3233 61.276 72.3902 61.3487 72.4041C61.3693 72.4078 63.3763 72.7965 64.1315 73.2529L64.2802 73.3418C65.0425 73.7945 65.831 74.2633 65.7985 75.7265C65.797 75.7956 65.8563 75.8529 65.9306 75.8543C65.9314 75.8543 65.933 75.8543 65.9338 75.8543C66.0065 75.8543 66.0666 75.8 66.0682 75.7316C66.1038 74.1281 65.173 73.5748 64.4257 73.1309L64.2786 73.0427ZM101.513 73.286C102.992 75.1599 103.867 77.4711 103.867 79.9726C103.867 85.4121 99.7386 89.9536 94.2355 91.0442H109.773C109.922 91.0442 110.043 91.1559 110.043 91.2948C110.043 91.4329 109.922 91.5454 109.773 91.5454H6.22327C6.0746 91.5454 5.95361 91.4329 5.95361 91.2948C5.95361 91.1559 6.0746 91.0442 6.22327 91.0442H29.0701C23.567 89.9544 19.4382 85.4121 19.4382 79.9726C19.4382 78.1302 19.9151 76.3923 20.7549 74.8549H42.1158L42.7675 75.4046C43.4317 76.8023 43.8034 78.3463 43.8034 79.9726C43.8034 85.4121 39.6747 89.9536 34.1715 91.0442H89.1325C84.0121 90.03 80.0835 86.0272 79.5615 81.0933C81.9023 78.3448 85.4261 74.8241 89.2321 73.2059C93.8227 71.2533 98.4148 73.0251 101.513 73.286ZM31.6212 84.2966C33.928 84.2966 35.7982 82.5586 35.7982 80.4142C35.7982 78.2699 33.928 76.5319 31.6212 76.5319C29.3137 76.5319 27.4434 78.2699 27.4434 80.4142C27.4434 82.5586 29.3137 84.2966 31.6212 84.2966ZM95.8622 80.4142C95.8622 78.2699 93.9919 76.5319 91.6844 76.5319C89.3769 76.5319 87.5066 78.2699 87.5066 80.4142C87.5066 82.5586 89.3769 84.2966 91.6844 84.2966C93.9919 84.2966 95.8622 82.5586 95.8622 80.4142ZM54.9164 59.3932C54.9117 59.4064 54.8903 59.4483 54.854 59.5174L54.8872 59.5144C54.8872 59.5144 54.8982 59.4703 54.9164 59.3932ZM76.8894 43.1701L75.7293 42.7579L75.8179 42.5212L77.1346 42.9886L77.1449 43.0628C77.2706 43.9836 78.2377 44.9654 79.2563 45.2072C79.6327 45.2968 79.968 45.363 80.2645 45.2674C80.4883 45.1962 80.6481 45.0485 80.7833 44.8655C79.919 44.5517 79.2681 43.8131 79.1638 42.8967C79.0143 41.5872 80.0352 40.4129 81.4452 40.274C82.5855 40.1616 83.6302 40.7627 84.0659 41.6901C83.3439 42.4698 82.9896 43.5243 83.1755 44.6068C82.833 44.8265 82.4282 44.9735 81.9853 45.0169C81.6619 45.0485 81.3463 45.0205 81.0498 44.9463C80.8814 45.1918 80.6718 45.4027 80.3523 45.5048C80.312 45.518 80.2709 45.5239 80.2305 45.5327C80.1325 45.5526 80.0352 45.5658 79.9379 45.5658C79.673 45.5658 79.4136 45.5041 79.1898 45.4504C78.0827 45.1881 77.0689 44.1754 76.8894 43.1701ZM81.6484 43.7264C82.3261 43.7264 82.8781 43.2135 82.8781 42.583C82.8781 41.9524 82.3269 41.4402 81.6484 41.4402C80.9707 41.4402 80.4187 41.9524 80.4187 42.583C80.4187 43.2135 80.9699 43.7264 81.6484 43.7264ZM77.2619 38.6661C77.3299 38.6631 77.4003 38.6631 77.4438 38.6624C77.5039 38.6624 77.5545 38.6617 77.5845 38.6587C78.0298 38.6198 78.4718 38.6242 78.8625 38.6271C79.628 38.6271 80.3555 38.5941 81.1273 38.5595L81.586 38.539C81.9141 38.525 82.2542 38.5103 82.5586 38.6132C82.7342 38.672 82.8963 38.7704 83.0742 38.8829C83.7472 39.3091 84.4115 39.7677 85.048 40.2475C85.2315 40.3864 85.3921 40.5136 85.502 40.6701C85.5107 40.6833 85.5154 40.6965 85.5241 40.7098C85.6087 40.6774 85.6941 40.6466 85.7819 40.6194C85.7645 40.5907 85.7479 40.5621 85.7281 40.5334C85.5969 40.346 85.4189 40.2049 85.2181 40.0528C84.5752 39.5685 83.9054 39.1055 83.2261 38.6756C83.0323 38.5536 82.856 38.4464 82.6512 38.3773C82.2961 38.2575 81.9126 38.2737 81.5733 38.2891L81.1139 38.3089C80.346 38.3435 79.6208 38.3765 78.864 38.3765C78.4679 38.3736 78.0187 38.3692 77.5592 38.4096C77.5339 38.4118 77.4912 38.4118 77.4422 38.4118C77.4114 38.4118 77.3853 38.4126 77.3568 38.4133L77.2619 38.6661ZM82.6085 42.583C82.6085 42.0913 82.1775 41.6908 81.6484 41.6908C81.1186 41.6908 80.6876 42.0913 80.6876 42.583C80.6876 43.0753 81.1186 43.4758 81.6484 43.4758C82.1775 43.4758 82.6085 43.0753 82.6085 42.583ZM55.6922 11.0841C55.6922 11.0841 59.696 10.5491 63.2941 9.58348C66.4913 8.72588 69.3682 7.5273 68.8312 6.06123C68.0025 3.98448 66.2556 5.24405 63.9109 5.52845L55.6922 11.0841ZM62.5128 12.0857C62.9675 12.1952 63.6674 12.4076 64.0232 12.5178C64.1584 12.5605 64.2462 12.5876 64.2494 12.5884C64.2937 12.6031 64.3277 12.6383 64.3372 12.6817C64.3474 12.7243 64.3316 12.7699 64.2968 12.7993C64.2921 12.8037 64.2691 12.8228 64.2328 12.8529C64.0438 13.008 63.457 13.4739 62.8054 13.8193C62.6156 13.9192 62.4353 14.0008 62.27 14.0625C61.926 14.1904 61.4848 14.2734 60.9597 14.3109C60.7422 14.3264 60.5239 14.3322 60.312 14.3322C59.3441 14.3322 58.5027 14.2029 58.46 14.1955C58.4181 14.1897 58.3825 14.1654 58.3635 14.1309C58.3437 14.0963 58.3421 14.0552 58.3603 14.0192C58.3761 13.9876 58.77 13.2255 60.3943 12.3334L60.4544 12.301C61.0356 12.0402 61.4389 11.9711 62.1174 12.0122C62.2242 12.0188 62.391 12.0563 62.5128 12.0857ZM60.9186 14.0618C60.6805 13.8928 60.4971 13.6532 60.4196 13.3607C60.3468 13.0866 60.3792 12.814 60.4868 12.5744C59.3931 13.1829 58.8941 13.7238 58.7043 13.9758C59.1021 14.0258 60.0289 14.1213 60.9186 14.0618ZM63.9402 12.7559C63.6705 12.6729 63.2024 12.5303 62.7959 12.4194C62.8702 12.5303 62.9287 12.6523 62.9643 12.7868C63.0244 13.0124 63.0134 13.238 62.9477 13.4445C63.3629 13.1968 63.733 12.9191 63.9402 12.7559ZM59.6217 12.1541C60.9842 11.1377 62.788 11.1789 63.1945 11.115C63.2996 11.0988 63.4198 11.0407 63.5321 10.9533C63.8556 10.7012 64.107 10.2044 63.699 9.7503C63.699 9.7503 63.5566 9.76279 63.3202 9.79512C62.7825 9.86787 61.756 10.0442 60.7873 10.4183C59.3939 10.957 58.2583 13.1697 59.6217 12.1541ZM54.2632 68.4226C54.2632 68.477 54.3012 68.5225 54.3542 68.5394C54.3684 68.5438 54.3826 68.5475 54.3977 68.5475H60.5524C60.6267 68.5475 60.6868 68.4916 60.6868 68.4226C60.6868 68.3528 60.6267 68.2969 60.5524 68.2969H54.3977C54.3233 68.2969 54.2632 68.3528 54.2632 68.4226ZM19.1694 52.6412H10.7126C10.6051 52.6412 10.5078 52.7007 10.4651 52.7933C10.4501 52.8249 10.4453 52.858 10.4453 52.8918C10.4453 52.955 10.4683 53.0167 10.5173 53.0645L17.946 60.3346L17.95 60.3382C18.0029 60.3904 18.0733 60.4161 18.1453 60.4161C18.2117 60.4161 18.2789 60.3941 18.3311 60.3478C18.4363 60.2545 18.441 60.1009 18.3454 60.0009C18.3438 59.9987 18.343 59.995 18.3406 59.9928L11.3405 53.1424H24.7366C24.7263 53.1475 24.712 53.1519 24.7033 53.1571C23.926 53.5862 24.0715 55.0295 24.5373 56.633C24.5903 56.6367 54.99 59.0338 54.9164 59.391C55.0485 58.8376 55.5783 56.5514 55.5791 55.552C55.5791 55.3301 55.5538 55.1706 55.4921 55.1089C55.2478 54.8634 43.4475 53.6737 34.5037 53.1453C33.2866 53.074 32.1234 53.0145 31.0487 52.9711C31.0582 52.9461 31.0661 52.9197 31.0661 52.8918C31.0661 52.7536 30.9451 52.6412 30.7964 52.6412H19.7087V40.759H30.7964C30.9451 40.759 31.0661 40.6473 31.0661 40.5084C31.0661 40.3695 30.9451 40.2578 30.7964 40.2578H19.7087V38.4045C19.7087 38.2656 19.5877 38.1539 19.439 38.1539C19.2896 38.1539 19.1694 38.2656 19.1694 38.4045V40.2578H8.08164C7.93218 40.2578 7.81198 40.3695 7.81198 40.5084C7.81198 40.6473 7.93218 40.759 8.08164 40.759H19.1694V52.6412Z" fill="#231F20"/>
<path d="M31.6202 84.2966C29.3126 84.2966 27.4424 82.5587 27.4424 80.4143C27.4424 78.27 29.3126 76.532 31.6202 76.532C33.9269 76.532 35.7972 78.27 35.7972 80.4143C35.7972 82.5587 33.9269 84.2966 31.6202 84.2966ZM91.6834 76.532C89.3758 76.532 87.5056 78.27 87.5056 80.4143C87.5056 82.5587 89.3758 84.2966 91.6834 84.2966C93.9909 84.2966 95.8611 82.5587 95.8611 80.4143C95.8611 78.27 93.9909 76.532 91.6834 76.532ZM77.1438 43.0636C77.2696 43.9844 78.2367 44.9662 79.2552 45.208C79.6317 45.2969 79.967 45.3631 80.2635 45.2675C80.4873 45.1962 80.647 45.0485 80.7823 44.8656C79.9179 44.5518 79.2671 43.8132 79.1627 42.8968C79.0133 41.5873 80.0342 40.413 81.4442 40.2741C82.5845 40.1616 83.6291 40.7628 84.0649 41.6902C84.4547 41.2691 84.949 40.9296 85.5231 40.7098C85.5144 40.6966 85.5104 40.6841 85.5009 40.6709C85.391 40.5136 85.2305 40.3865 85.047 40.2483C84.4104 39.7685 83.7462 39.3092 83.0732 38.8837C82.8953 38.7705 82.7339 38.6728 82.5576 38.6133C82.2531 38.5111 81.9131 38.5258 81.5849 38.5398L81.1263 38.5596C80.3544 38.5949 79.6269 38.6279 78.8614 38.6279C78.4708 38.6243 78.0287 38.6206 77.5843 38.6595C77.5535 38.6625 77.5028 38.6625 77.4427 38.6632C77.4 38.6632 77.3289 38.664 77.2617 38.6669L75.8169 42.5213L77.1335 42.9894L77.1438 43.0636ZM85.512 44.3335C85.9406 46.2126 87.0501 47.5956 88.0339 47.5104C88.0544 47.5082 88.0758 47.5096 88.0963 47.5067C88.109 47.506 88.124 47.503 88.1382 47.5001C88.1651 47.4949 88.192 47.4876 88.2157 47.4795C88.2244 47.4795 88.2323 47.4766 88.2402 47.4729C88.4854 47.3965 88.6942 47.2208 88.8618 46.9732C88.8318 46.9401 88.8199 46.8953 88.8357 46.8519C89.5103 45.1095 89.2295 43.0791 88.1026 41.5527C88.0607 41.4954 88.0766 41.4175 88.1374 41.3786C88.1453 41.3734 88.154 41.372 88.1627 41.369C87.6954 40.7495 87.1489 40.3902 86.6365 40.4343C86.6278 40.4343 86.6191 40.4343 86.6112 40.4372C86.5851 40.4387 86.5582 40.4424 86.5313 40.4475C86.5171 40.4504 86.5021 40.4534 86.4902 40.4578C86.4697 40.4622 86.4515 40.4717 86.4317 40.4784C85.4954 40.7701 85.0842 42.4522 85.512 44.3335ZM61.2433 72.2557C61.2275 72.3234 61.275 72.3895 61.3477 72.4035C61.3683 72.4079 63.3753 72.7966 64.1305 73.253L64.2792 73.3419C65.0415 73.7946 65.8299 74.2627 65.7975 75.7265C65.7959 75.7956 65.8552 75.853 65.9296 75.8544C65.9304 75.8544 65.9319 75.8544 65.9327 75.8544C66.0055 75.8544 66.0656 75.8 66.0672 75.7317C66.1028 74.1282 65.172 73.5748 64.4247 73.131L64.2776 73.0428C63.4797 72.5615 61.4869 72.1749 61.4023 72.1587C61.3311 72.144 61.2584 72.1874 61.2433 72.2557ZM80.4177 42.583C80.4177 41.9532 80.9689 41.4403 81.6474 41.4403C82.3251 41.4403 82.8771 41.9525 82.8771 42.583C82.8771 43.2136 82.3259 43.7265 81.6474 43.7265C80.9689 43.7265 80.4177 43.2136 80.4177 42.583ZM81.6474 43.4759C82.1764 43.4759 82.6074 43.0754 82.6074 42.583C82.6074 42.0914 82.1764 41.6909 81.6474 41.6909C81.1183 41.6909 80.6874 42.0914 80.6874 42.583C80.6874 43.0754 81.1183 43.4759 81.6474 43.4759ZM51.1765 67.9237C51.1765 67.8539 51.1164 67.798 51.0413 67.798H16.7991C16.9565 67.4247 17.1328 67.0426 17.3297 66.6597C17.3329 66.6597 17.3353 66.6612 17.3376 66.6612H51.5411C51.6154 66.6612 51.6763 66.6053 51.6763 66.5362C51.6763 66.4664 51.6154 66.4106 51.5411 66.4106H17.4594C18.3301 64.7938 19.578 63.1926 21.3454 62.1983C25.142 60.0627 33.4145 60.6425 38.0082 61.1783C38.2455 61.2055 38.315 61.2135 38.3435 61.2135C38.4171 61.2135 38.4756 61.1592 38.4772 61.0908C38.4787 61.0232 38.4194 60.9659 38.3459 60.963C38.3182 60.9622 38.213 60.9497 38.0414 60.9291C33.4137 60.389 25.0724 59.8085 21.2062 61.9837C18.8362 63.3167 17.3819 65.7044 16.5128 67.798H16.5049C16.4306 67.798 16.3705 67.8539 16.3705 67.9229C16.3705 67.9626 16.3911 67.9964 16.4219 68.0192C15.5955 70.0879 15.3409 71.8141 15.3361 71.8486C15.3314 71.8839 15.3425 71.9192 15.3678 71.9464C15.3923 71.9736 15.4279 71.989 15.4658 71.9905L24.148 72.2212C24.1495 72.2212 24.1511 72.2212 24.1519 72.2212C24.2247 72.2212 24.2848 72.1668 24.2871 72.0992C24.2887 72.0301 24.2302 71.9721 24.1559 71.9706L15.6264 71.7435C15.7031 71.2923 15.9949 69.7866 16.6963 68.0486H51.0421C51.1164 68.0486 51.1765 67.9927 51.1765 67.9237ZM58.0675 16.6119C56.977 16.1996 55.7932 15.4647 55.3938 15.2083C55.3685 15.2935 55.3416 15.378 55.3124 15.4611C55.7789 15.7594 56.9185 16.4546 57.9947 16.8559C58.0825 17.2417 58.1711 18.2337 57.1692 19.2802C56.6607 19.8108 56.3554 20.1297 56.1704 20.323C54.1009 19.6351 52.3002 18.1713 51.8748 17.809C51.768 17.8141 51.6597 17.8171 51.5506 17.8178C51.5514 17.8494 51.5648 17.8817 51.5917 17.906C51.6897 17.9949 53.6256 19.7211 55.9758 20.5273C55.8873 20.6191 55.8857 20.6213 55.8857 20.6213C56.55 20.7801 57.1747 20.8984 57.7607 20.9814C57.771 20.919 57.8303 20.8697 57.8967 20.8741C62.9546 21.041 63.6829 19.9702 63.9225 19.6182C64.072 19.4 64.0151 17.6796 63.8806 16.1313C63.8743 16.0622 63.9297 16.0019 64.004 15.9961C64.0056 15.9961 64.0056 15.9968 64.0071 15.9968C63.9905 15.7528 63.9731 15.5059 63.9542 15.2575L63.898 15.2707C63.8972 15.27 61.1239 14.8122 58.0675 16.6119ZM62.575 20.7419C61.9044 20.9403 60.9428 21.0946 59.555 21.1321C60.821 21.1615 61.8309 21.002 62.575 20.7419ZM49.9864 16.0431C48.6357 16.0431 47.5357 15.0216 47.5357 13.7657C47.5357 12.5098 48.6357 11.4883 49.9864 11.4883C51.3378 11.4883 52.4378 12.5098 52.4378 13.7657C52.4378 15.0216 51.3378 16.0431 49.9864 16.0431ZM52.1674 13.7657C52.1674 12.648 51.1892 11.7382 49.9864 11.7382C48.7844 11.7382 47.8054 12.648 47.8054 13.7657C47.8054 14.8835 48.7844 15.7925 49.9864 15.7925C51.1892 15.7925 52.1674 14.8835 52.1674 13.7657ZM62.9633 12.7869C63.0234 13.0125 63.0123 13.2381 62.9467 13.4446C63.3619 13.1969 63.732 12.9191 63.9391 12.756C63.6695 12.673 63.2013 12.5304 62.7949 12.4194C62.8692 12.5304 62.9277 12.6524 62.9633 12.7869ZM60.4185 13.3608C60.3458 13.0867 60.3782 12.8141 60.4857 12.5745C59.3921 13.183 58.8931 13.7238 58.7033 13.9759C59.1011 14.0259 60.0279 14.1214 60.9183 14.0619C60.6795 13.8928 60.496 13.6533 60.4185 13.3608ZM92.2654 63.5071C92.2654 63.7672 92.4923 63.9774 92.7723 63.9774H95.3542V66.3775C95.3542 66.6376 95.5812 66.8485 95.8611 66.8485C96.1411 66.8485 96.3672 66.6376 96.3672 66.3775V63.9774H98.95C99.2291 63.9774 99.4561 63.7672 99.4561 63.5071C99.4561 63.2469 99.2291 63.036 98.95 63.036H96.3672V60.6359C96.3672 60.3765 96.1411 60.1656 95.8611 60.1656C95.5812 60.1656 95.3542 60.3765 95.3542 60.6359V63.036H92.7723C92.4923 63.036 92.2654 63.2469 92.2654 63.5071ZM40.515 72.1514H42.0832V73.6087C42.0832 73.7666 42.2216 73.8952 42.3916 73.8952C42.5616 73.8952 42.6992 73.7666 42.6992 73.6087V72.1514H44.2673C44.4374 72.1514 44.5758 72.0228 44.5758 71.8648C44.5758 71.7068 44.4374 71.5789 44.2673 71.5789H42.6992V70.1209C42.6992 69.9629 42.5616 69.8351 42.3916 69.8351C42.2216 69.8351 42.0832 69.9629 42.0832 70.1209V71.5789H40.515C40.345 71.5789 40.2074 71.7068 40.2074 71.8648C40.2074 72.0228 40.345 72.1514 40.515 72.1514ZM39.4862 41.8856H41.0306V43.3208C41.0306 43.4759 41.1659 43.6023 41.3335 43.6023C41.5004 43.6023 41.6364 43.4759 41.6364 43.3208V41.8856H43.1808C43.3477 41.8856 43.4837 41.7592 43.4837 41.6034C43.4837 41.4484 43.3477 41.322 43.1808 41.322H41.6364V39.8868C41.6364 39.731 41.5004 39.6053 41.3335 39.6053C41.1659 39.6053 41.0306 39.731 41.0306 39.8868V41.322H39.4862C39.3186 41.322 39.1833 41.4484 39.1833 41.6034C39.1833 41.7592 39.3186 41.8856 39.4862 41.8856ZM13.4501 50.0449H11.9057V48.6097C11.9057 48.4539 11.7697 48.3283 11.6028 48.3283C11.4352 48.3283 11.2991 48.4539 11.2991 48.6097V50.0449H9.75551C9.58865 50.0449 9.45264 50.1713 9.45264 50.3264C9.45264 50.4822 9.58865 50.6079 9.75551 50.6079H11.2999V52.0431C11.2999 52.1989 11.4359 52.3252 11.6028 52.3252C11.7705 52.3252 11.9057 52.1989 11.9057 52.0431V50.6079H13.4501C13.6177 50.6079 13.753 50.4822 13.753 50.3264C13.753 50.1713 13.617 50.0449 13.4501 50.0449Z" fill="white"/>
</svg>
