<svg width="24" height="24" viewBox="0 0 24 24" fill="none" xmlns="http://www.w3.org/2000/svg">
<path fill-rule="evenodd" clip-rule="evenodd" d="M21.5381 15.1068H17.5033C15.6125 15.1068 14.0735 13.6581 14.0725 11.8781C14.0725 10.0962 15.6115 8.64669 17.5033 8.64575H21.5381C21.9507 8.64575 22.2856 8.9612 22.2856 9.34987C22.2856 9.73855 21.9507 10.054 21.5381 10.054H17.5033C16.4358 10.0549 15.5676 10.8726 15.5676 11.8772C15.5676 12.8808 16.4368 13.6985 17.5033 13.6985H21.5381C21.9507 13.6985 22.2856 14.014 22.2856 14.4026C22.2856 14.7913 21.9507 15.1068 21.5381 15.1068" fill="black"/>
<path fill-rule="evenodd" clip-rule="evenodd" d="M17.9594 12.523H17.6484C17.2358 12.523 16.9009 12.2075 16.9009 11.8189C16.9009 11.4302 17.2358 11.1147 17.6484 11.1147H17.9594C18.3721 11.1147 18.707 11.4302 18.707 11.8189C18.707 12.2075 18.3721 12.523 17.9594 12.523" fill="black"/>
<mask id="mask0_2034_3587" style="mask-type:luminance" maskUnits="userSpaceOnUse" x="1" y="3" width="22" height="18">
<path fill-rule="evenodd" clip-rule="evenodd" d="M1.71436 3H22.2857V21H1.71436V3Z" fill="white"/>
</mask>
<g mask="url(#mask0_2034_3587)">
<path fill-rule="evenodd" clip-rule="evenodd" d="M7.69239 4.40813C5.22047 4.40813 3.20905 6.30268 3.20905 8.63097V15.3689C3.20905 17.6972 5.22047 19.5918 7.69239 19.5918H16.3082C18.7801 19.5918 20.7905 17.6972 20.7905 15.3689V8.63097C20.7905 6.30268 18.7801 4.40813 16.3082 4.40813H7.69239ZM16.3081 21.0001H7.69231C4.39609 21.0001 1.71387 18.4737 1.71387 15.369V8.63107C1.71387 5.52544 4.39609 3 7.69231 3H16.3081C19.6044 3 22.2856 5.52544 22.2856 8.63107V15.369C22.2856 18.4737 19.6044 21.0001 16.3081 21.0001V21.0001Z" fill="black"/>
</g>
<path fill-rule="evenodd" clip-rule="evenodd" d="M12.3641 8.66874H6.98266C6.57001 8.66874 6.23511 8.35329 6.23511 7.96462C6.23511 7.57594 6.57001 7.2605 6.98266 7.2605H12.3641C12.7767 7.2605 13.1116 7.57594 13.1116 7.96462C13.1116 8.35329 12.7767 8.66874 12.3641 8.66874" fill="black"/>
</svg>
