<svg width="28" height="28" viewBox="0 0 28 28" fill="none" xmlns="http://www.w3.org/2000/svg">
<rect width="27.0864" height="27.0864" transform="translate(0.345215 0.668518)" fill="#E3E3E3"/>
<path d="M25.1743 24.6512H2.60231C2.13958 24.6512 1.75586 25.0349 1.75586 25.4976C1.75586 25.9604 2.13958 26.3441 2.60231 26.3441H25.1743C25.637 26.3441 26.0207 25.9604 26.0207 25.4976C26.0207 25.0349 25.637 24.6512 25.1743 24.6512Z" fill="#240046"/>
<path d="M19.5313 2.92572H8.24535C4.85956 2.92572 3.73096 4.94591 3.73096 7.44011V25.4977H10.5025V18.6584C10.5025 18.0715 10.9766 17.5975 11.5634 17.5975H16.2245C16.8001 17.5975 17.2854 18.0715 17.2854 18.6584V25.4977H24.057V7.44011C24.0457 4.94591 22.9171 2.92572 19.5313 2.92572ZM16.7098 11.1081H14.7348V13.0831C14.7348 13.5458 14.3511 13.9296 13.8883 13.9296C13.4256 13.9296 13.0419 13.5458 13.0419 13.0831V11.1081H11.0668C10.6041 11.1081 10.2204 10.7243 10.2204 10.2616C10.2204 9.79888 10.6041 9.41516 11.0668 9.41516H13.0419V7.44011C13.0419 6.97739 13.4256 6.59366 13.8883 6.59366C14.3511 6.59366 14.7348 6.97739 14.7348 7.44011V9.41516H16.7098C17.1726 9.41516 17.5563 9.79888 17.5563 10.2616C17.5563 10.7243 17.1726 11.1081 16.7098 11.1081Z" fill="#240046"/>
</svg>
