<svg width="361" height="198" viewBox="0 0 361 198" fill="none" xmlns="http://www.w3.org/2000/svg">
<path d="M126.255 79.0465H94.2701C94.6303 83.199 95.8611 86.2194 97.9647 88.1123C100.073 90.0053 102.946 90.9518 106.582 90.9518C109.438 90.9518 111.752 90.4391 113.527 89.4114C115.306 88.3861 116.738 86.8318 117.821 84.7532H118.769L127.067 89.8661C125.442 93.2136 122.988 95.9254 119.707 98.004C116.431 100.083 112.057 101.122 106.582 101.122C101.437 101.122 96.9903 100.185 93.2448 98.3102C89.5043 96.4311 86.6196 93.6381 84.5886 89.9311C82.5575 86.2194 81.5419 81.6957 81.5419 76.3556C81.5419 70.9318 82.6082 66.3572 84.7433 62.6316C86.8759 58.9083 89.763 56.1315 93.3996 54.2988C97.041 52.4685 101.137 51.5522 105.683 51.5522C112.724 51.5522 118.114 53.3431 121.854 56.9249C125.6 60.502 127.473 65.754 127.473 72.681C127.473 75.1933 127.382 77.142 127.203 78.5269L126.255 79.0465ZM115.519 71.2891C115.396 67.6586 114.516 65.014 112.879 63.3554C111.239 61.6921 108.841 60.8593 105.683 60.8593C99.3623 60.8593 95.6483 64.3366 94.5409 71.2891H115.519Z" fill="#094D4B"/>
<path d="M155.771 101.122C151.83 101.122 148.348 100.208 145.325 98.3751C142.3 96.5379 139.931 93.768 138.216 90.061C136.5 86.3493 135.644 81.7816 135.644 76.3556C135.644 70.9063 136.524 66.3247 138.284 62.613C140.044 58.9013 142.482 56.1315 145.596 54.2988C148.71 52.4685 152.311 51.5522 156.4 51.5522C159.499 51.5522 162.186 52.0672 164.456 53.0925C166.724 54.1133 168.644 55.707 170.211 57.8713L171.159 57.6579V33.2814H183.655V100.212H171.159V94.0232L170.211 93.8469C168.823 96.0994 166.927 97.8741 164.524 99.1732C162.118 100.472 159.2 101.122 155.771 101.122ZM159.833 90.9518C163.346 90.9518 166.125 89.7455 168.17 87.3329C170.221 84.9203 171.246 81.2619 171.246 76.3556C171.246 71.4515 170.221 67.7862 168.17 65.3597C166.125 62.9355 163.346 61.7222 159.833 61.7222C156.158 61.7222 153.348 62.9007 151.409 65.2576C149.474 67.6099 148.507 71.3077 148.507 76.3556C148.507 81.3802 149.474 85.0687 151.409 87.4257C153.348 89.7779 156.158 90.9518 159.833 90.9518Z" fill="#094D4B"/>
<path d="M204.232 46.7455C201.974 46.7455 200.136 46.0914 198.719 44.7784C197.307 43.4677 196.601 41.7719 196.601 39.6933C196.601 37.6403 197.307 35.9585 198.719 34.6454C200.136 33.3348 201.974 32.6782 204.232 32.6782C205.734 32.6782 207.071 32.9821 208.246 33.5876C209.419 34.1954 210.328 35.0236 210.974 36.0744C211.617 37.1276 211.941 38.3339 211.941 39.6933C211.941 41.0481 211.617 42.2614 210.974 43.3308C210.328 44.3956 209.419 45.2307 208.246 45.8362C207.071 46.444 205.734 46.7455 204.232 46.7455ZM198.004 100.212V52.4615H210.5V100.212H198.004Z" fill="#094D4B"/>
<mask id="mask0_60_79" style="mask-type:luminance" maskUnits="userSpaceOnUse" x="0" y="27" width="77" height="80">
<path d="M0 27.7472H76.1366V106.138H0V27.7472Z" fill="white"/>
</mask>
<g mask="url(#mask0_60_79)">
<path fill-rule="evenodd" clip-rule="evenodd" d="M17.576 100.538L0.00468445 106.138V27.7472L38.2979 55.7426L53.7002 67.0052L38.0585 77.8526L17.576 63.8085V100.538ZM43.008 52.2629L58.5676 63.6369V100.538L76.1316 106.138V27.7472L43.008 52.2629Z" fill="#000001"/>
</g>
<mask id="mask1_60_79" style="mask-type:luminance" maskUnits="userSpaceOnUse" x="0" y="119" width="77" height="79">
<path d="M0 119.609H76.1366V198H0V119.609Z" fill="white"/>
</mask>
<g mask="url(#mask1_60_79)">
<path fill-rule="evenodd" clip-rule="evenodd" d="M17.576 192.398L0.00468445 198V119.609L38.2979 147.605L53.7002 158.867L38.0585 169.715L17.576 155.671V192.398ZM43.008 144.123L58.5676 155.497V192.398L76.1316 198V119.609L43.008 144.123Z" fill="#000001"/>
</g>
<mask id="mask2_60_79" style="mask-type:luminance" maskUnits="userSpaceOnUse" x="23" y="0" width="59" height="50">
<path d="M23.7927 0H81.9784V49.2912H23.7927V0Z" fill="white"/>
</mask>
<g mask="url(#mask2_60_79)">
<mask id="mask3_60_79" style="mask-type:luminance" maskUnits="userSpaceOnUse" x="22" y="-7" width="64" height="63">
<path d="M29.8763 -6.71584L85.071 0.533556L77.2634 55.2531L22.0687 48.0037L29.8763 -6.71584Z" fill="white"/>
</mask>
<g mask="url(#mask3_60_79)">
<mask id="mask4_60_79" style="mask-type:luminance" maskUnits="userSpaceOnUse" x="22" y="-7" width="64" height="63">
<path d="M29.8763 -6.71584L85.071 0.533556L77.2634 55.2531L22.0687 48.0037L29.8763 -6.71584Z" fill="white"/>
</mask>
<g mask="url(#mask4_60_79)">
<path d="M78.4748 5.65569C78.1895 5.30076 77.8848 4.96207 77.5632 4.6373C77.2441 4.31252 76.9056 4.00399 76.5525 3.70937C76.1995 3.41708 75.8344 3.14102 75.4524 2.8812C75.0728 2.62139 74.6786 2.38245 74.2724 2.15974C73.8686 1.93936 73.4527 1.73522 73.0247 1.55427C72.5992 1.37101 72.164 1.20862 71.7215 1.06712C71.279 0.925608 70.8292 0.804978 70.3747 0.705226C69.9201 0.605474 69.4607 0.526601 68.9964 0.470926C68.5346 0.415251 68.0679 0.380453 67.6037 0.368854C67.137 0.354935 66.6704 0.364215 66.2037 0.396692C65.7394 0.426849 65.2752 0.480205 64.8158 0.556759C64.354 0.630992 63.8994 0.728424 63.4496 0.844414C62.9999 0.962725 62.555 1.10191 62.1198 1.26198C61.6821 1.42205 61.2565 1.60067 60.8382 1.80017C60.4199 1.99968 60.0137 2.22006 59.6172 2.45668C59.223 2.69562 58.841 2.9508 58.4711 3.22453L29.4943 24.7755C28.191 25.7406 27.0957 26.8865 26.2107 28.2181C25.3257 29.5474 24.6995 30.9833 24.3368 32.5214C24.2328 32.9621 24.1482 33.4122 24.0877 33.8692C23.9668 34.76 23.9402 35.6554 24.0055 36.5509C24.0684 37.4463 24.2255 38.3278 24.4722 39.1954C24.7188 40.063 25.0525 40.8982 25.4708 41.7008C25.8915 42.5035 26.3872 43.2597 26.9627 43.9696C27.2577 44.3315 27.5672 44.6771 27.8936 45.0065C27.9468 45.0599 28.0048 45.1063 28.0604 45.1596C28.3385 45.4334 28.6214 45.6978 28.9188 45.9484L28.9744 45.9901C30.0117 46.8415 31.153 47.5374 32.3982 48.071C33.6435 48.6069 34.9443 48.9618 36.296 49.1381L36.4435 49.1567C36.8473 49.21 37.2559 49.2286 37.6645 49.2448L37.6839 49.2471C39.5506 49.3214 41.3592 49.0523 43.1122 48.4375L43.1847 48.4097C43.5644 48.2728 43.9416 48.1128 44.3115 47.9481C44.3768 47.9156 44.4445 47.8947 44.5074 47.8645C44.8507 47.7022 45.1747 47.5189 45.5132 47.331C45.5979 47.2799 45.6873 47.2405 45.772 47.1895C46.1854 46.9436 46.582 46.6768 46.9664 46.3915L75.9432 24.8451C76.3107 24.5714 76.6638 24.2791 77.0047 23.9706C77.3432 23.6643 77.6648 23.3396 77.9695 23.0009C78.2765 22.6622 78.5643 22.3119 78.8327 21.9454C79.1035 21.5812 79.3525 21.203 79.5847 20.8133C79.8144 20.4259 80.0271 20.0269 80.2157 19.6163C80.4068 19.208 80.576 18.7904 80.7235 18.3659C80.871 17.9414 80.9967 17.5099 81.1007 17.0738C81.2047 16.6376 81.2845 16.1969 81.3449 15.7538C81.403 15.3084 81.4392 14.863 81.4513 14.4153C81.4658 13.9676 81.4537 13.5198 81.4223 13.0744C81.3885 12.6267 81.3353 12.1836 81.2555 11.7405C81.1781 11.2998 81.0765 10.8637 80.9556 10.4298C80.8323 9.99837 80.6872 9.57384 80.5204 9.15628C80.356 8.73639 80.1674 8.32811 79.9594 7.92678C79.7515 7.52545 79.5242 7.13573 79.2752 6.75528C79.0285 6.37715 78.7601 6.01062 78.4748 5.65569ZM73.4479 21.7598L60.5699 31.3359L48.0908 15.893L60.9688 6.31452C61.2348 6.11965 61.5056 5.93639 61.7885 5.76472C62.0714 5.59538 62.3616 5.43763 62.659 5.29612C62.9588 5.15229 63.2635 5.02238 63.5754 4.90871C63.8873 4.79504 64.204 4.69529 64.5256 4.61178C64.8472 4.52595 65.1712 4.45867 65.5001 4.40532C65.8289 4.34964 66.1602 4.31252 66.4938 4.28932C66.8251 4.26845 67.1588 4.26149 67.4925 4.27077C67.8261 4.27773 68.1574 4.30324 68.4887 4.34268C68.8199 4.38444 69.1488 4.44011 69.4728 4.50971C69.7992 4.58162 70.1184 4.66745 70.4351 4.76952C70.7519 4.86928 71.0614 4.98527 71.366 5.1175C71.6707 5.24741 71.9681 5.39123 72.2583 5.5513C72.5484 5.70905 72.8289 5.88071 73.1021 6.0663C73.3729 6.25188 73.6341 6.44906 73.888 6.65785C74.1394 6.86895 74.3788 7.08933 74.6085 7.32131C74.8382 7.55561 75.0534 7.79687 75.2589 8.04973C75.4645 8.30259 75.6531 8.56473 75.832 8.83614C76.0085 9.10756 76.1729 9.38594 76.3204 9.67127C76.4703 9.95893 76.6057 10.2512 76.7242 10.5505C76.8427 10.8497 76.9467 11.1536 77.0337 11.4622C77.1232 11.7707 77.1933 12.0816 77.2489 12.397C77.3069 12.7125 77.3456 13.0304 77.3698 13.3505C77.3916 13.6683 77.3988 13.9884 77.3892 14.3086C77.3819 14.6287 77.3553 14.9465 77.3142 15.2643C77.2707 15.5821 77.2126 15.8976 77.1401 16.2085C77.0652 16.5217 76.9757 16.8279 76.8693 17.1318C76.7653 17.4357 76.6444 17.7326 76.5066 18.0249C76.3712 18.3172 76.2213 18.6025 76.0544 18.8809C75.89 19.1593 75.7111 19.4284 75.5177 19.6882C75.3242 19.9503 75.1187 20.2009 74.9011 20.4421C74.681 20.6857 74.4513 20.9154 74.2095 21.1357C73.9653 21.3561 73.7139 21.5626 73.4503 21.7598H73.4479Z" fill="#3A64AB"/>
</g>
</g>
</g>
<path d="M96.0424 138.606C93.7841 138.606 91.9464 137.952 90.5295 136.639C89.1174 135.329 88.4114 133.633 88.4114 131.554C88.4114 129.501 89.1174 127.819 90.5295 126.506C91.9464 125.196 93.7841 124.539 96.0424 124.539C97.544 124.539 98.8811 124.843 100.056 125.448C101.229 126.056 102.138 126.884 102.784 127.935C103.427 128.988 103.751 130.195 103.751 131.554C103.751 132.909 103.427 134.122 102.784 135.192C102.138 136.256 101.229 137.092 100.056 137.697C98.8811 138.305 97.544 138.606 96.0424 138.606ZM89.8138 192.073V144.322H102.31V192.073H89.8138Z" fill="#094D4B"/>
<path d="M116.616 192.073V144.322H128.619V151.337L129.567 151.551C132.662 146.127 137.684 143.413 144.636 143.413C150.381 143.413 154.598 144.914 157.287 147.913C159.98 150.915 161.329 155.288 161.329 161.034V192.073H148.833V162.5C148.833 159.327 148.168 157.042 146.841 155.643C145.518 154.247 143.4 153.546 140.487 153.546C136.908 153.546 134.115 154.657 132.111 156.877C130.111 159.1 129.112 162.591 129.112 167.353V192.073H116.616Z" fill="#094D4B"/>
<path d="M190.525 192.983C184.927 192.983 180.798 191.521 178.135 188.594C175.478 185.661 174.151 181.453 174.151 175.965V144.322H186.647V174.452C186.647 177.366 187.299 179.495 188.61 180.836C189.918 182.179 191.94 182.85 194.674 182.85C198.137 182.85 200.828 181.762 202.75 179.583C204.677 177.407 205.642 173.979 205.642 169.302V144.322H218.138V192.073H206.135V185.058L205.187 184.845C203.594 187.587 201.648 189.628 199.346 190.969C197.044 192.31 194.104 192.983 190.525 192.983Z" fill="#094D4B"/>
<path d="M259.649 180.688L262.899 189.559C261.545 190.63 259.845 191.468 257.802 192.073C255.756 192.679 253.442 192.983 250.858 192.983C245.473 192.983 241.382 191.577 238.584 188.761C235.784 185.947 234.387 181.855 234.387 176.484V153.806H226.804V144.276H234.387V134.969L246.883 133.02V144.276H261.003V153.806H246.883V175.621C246.883 177.992 247.39 179.718 248.411 180.799C249.436 181.882 250.928 182.423 252.889 182.423C255.113 182.423 257.05 181.845 258.702 180.688H259.649Z" fill="#094D4B"/>
<path d="M313.166 170.907H281.181C281.541 175.06 282.772 178.08 284.875 179.973C286.984 181.866 289.856 182.813 293.493 182.813C296.349 182.813 298.663 182.3 300.437 181.272C302.217 180.247 303.649 178.693 304.732 176.614H305.68L313.978 181.727C312.353 185.074 309.899 187.786 306.618 189.865C303.341 191.943 298.967 192.983 293.493 192.983C288.348 192.983 283.901 192.045 280.156 190.171C276.415 188.292 273.53 185.499 271.499 181.792C269.468 178.08 268.453 173.557 268.453 168.216C268.453 162.793 269.519 158.218 271.654 154.492C273.787 150.769 276.674 147.992 280.31 146.16C283.952 144.329 288.048 143.413 292.594 143.413C299.635 143.413 305.024 145.204 308.765 148.786C312.51 152.363 314.384 157.615 314.384 164.542C314.384 167.054 314.292 169.003 314.113 170.388L313.166 170.907ZM302.43 163.15C302.307 159.519 301.426 156.875 299.789 155.216C298.15 153.553 295.751 152.72 292.594 152.72C286.273 152.72 282.559 156.197 281.452 163.15H302.43Z" fill="#094D4B"/>
<path d="M341.366 192.983C337.967 192.983 334.852 192.602 332.023 191.841C329.199 191.076 326.786 190.02 324.789 188.677C322.789 187.336 321.307 185.798 320.34 184.065L327.294 176.874H328.242C329.891 179.015 331.844 180.62 334.103 181.69C336.359 182.755 338.813 183.286 341.463 183.286C343.9 183.286 345.733 182.868 346.966 182.033C348.197 181.193 348.814 179.992 348.814 178.433C348.814 177.222 348.369 176.203 347.479 175.38C346.594 174.559 345.16 173.918 343.175 173.459L336.588 171.947C331.656 170.822 328.051 169.096 325.775 166.769C323.505 164.444 322.371 161.494 322.371 157.916C322.371 154.942 323.159 152.358 324.74 150.168C326.319 147.974 328.544 146.299 331.414 145.148C334.289 143.993 337.638 143.413 341.463 143.413C345.943 143.413 349.657 144.035 352.605 145.278C355.55 146.517 357.852 148.173 359.511 150.252L352.827 157.183H351.928C350.547 155.68 348.99 154.583 347.256 153.889C345.528 153.198 343.596 152.85 341.463 152.85C336.53 152.85 334.064 154.323 334.064 157.267C334.064 158.51 334.521 159.522 335.437 160.301C336.351 161.076 337.967 161.709 340.283 162.203L346.425 163.503C351.478 164.542 355.17 166.21 357.499 168.504C359.832 170.801 361 173.881 361 177.746C361 180.778 360.217 183.448 358.65 185.754C357.088 188.062 354.832 189.844 351.879 191.099C348.932 192.354 345.428 192.983 341.366 192.983Z" fill="#094D4B"/>
<mask id="mask5_60_79" style="mask-type:luminance" maskUnits="userSpaceOnUse" x="191" y="27" width="24" height="23">
<path d="M191.993 27.7472H214.947V49.7691H191.993V27.7472Z" fill="white"/>
</mask>
<g mask="url(#mask5_60_79)">
<path d="M214.961 38.7663C214.961 44.8488 209.818 49.783 203.478 49.783C197.136 49.783 191.993 44.8488 191.993 38.7663C191.993 32.6814 197.136 27.7472 203.478 27.7472C209.818 27.7472 214.961 32.6814 214.961 38.7663Z" fill="#3A64AB"/>
</g>
<path d="M191.993 38.7663H214.961" stroke="white" stroke-width="4.03593"/>
<mask id="mask6_60_79" style="mask-type:luminance" maskUnits="userSpaceOnUse" x="84" y="119" width="24" height="23">
<path d="M84.9718 119.609H107.923V141.629H84.9718V119.609Z" fill="white"/>
</mask>
<g mask="url(#mask6_60_79)">
<path d="M107.938 130.626C107.938 136.708 102.797 141.643 96.4547 141.643C90.1148 141.643 84.9718 136.708 84.9718 130.626C84.9718 124.543 90.1148 119.609 96.4547 119.609C102.797 119.609 107.938 124.543 107.938 130.626Z" fill="#3A64AB"/>
</g>
<path d="M84.9718 130.626H107.94" stroke="white" stroke-width="4.03593"/>
<mask id="mask7_60_79" style="mask-type:luminance" maskUnits="userSpaceOnUse" x="116" y="119" width="242" height="12">
<path d="M116.604 119.609H357.925V130.626H116.604V119.609Z" fill="white"/>
</mask>
<g mask="url(#mask7_60_79)">
<path d="M116.604 119.609H357.906V130.626H116.604V119.609Z" fill="#000001"/>
</g>
</svg>
