<svg width="24" height="24" viewBox="0 0 24 24" fill="none" xmlns="http://www.w3.org/2000/svg">
<g clip-path="url(#clip0_666_3735)">
<path d="M21.4839 11.395C21.9873 10.1886 22.2897 8.90596 22.2897 7.57806C22.2204 2.89237 16.9563 -1.45437 11.9705 4.66312C6.9847 -1.45437 1.72051 2.89237 1.65125 7.57806C1.65125 12.5396 5.87356 16.8687 9.02176 18.955" stroke="white" stroke-width="1.71" stroke-linecap="round" stroke-linejoin="round"/>
<path d="M15.0401 15.0404C15.8208 14.2596 15.9417 13.5434 16.5088 12.8217C16.9528 12.2567 17.7933 12.2567 18.2373 12.8217C18.8045 13.5434 18.9253 14.2596 19.7061 15.0404C20.4869 15.8211 21.203 15.942 21.9247 16.5091C22.4898 16.9532 22.4898 17.7937 21.9247 18.2377C21.203 18.8048 20.4869 18.9257 19.7062 19.7065C18.9255 20.4872 18.8046 21.2034 18.2373 21.9251C17.7934 22.4902 16.9528 22.4902 16.5089 21.9251C15.9417 21.2034 15.8209 20.4872 15.0401 19.7065C14.2594 18.9257 13.5432 18.8048 12.8214 18.2377C12.2565 17.7937 12.2565 16.9532 12.8214 16.5091C13.5432 15.942 14.2593 15.8211 15.0401 15.0404Z" stroke="white" stroke-width="1.71" stroke-linecap="round" stroke-linejoin="round"/>
</g>
<defs>
<clipPath id="clip0_666_3735">
<rect width="24" height="24" fill="white"/>
</clipPath>
</defs>
</svg>
