<svg width="32" height="27" viewBox="0 0 32 27" fill="none" xmlns="http://www.w3.org/2000/svg">
<path opacity="0.8" d="M14.158 10.3858L17.4662 26.3018C17.8397 28.0552 30.8057 26.1669 30.4322 24.3685L29.7385 21.1313C31.0725 20.2771 31.8728 18.7934 31.9795 17.5345C32.0863 16.2307 31.7661 13.7129 31.2325 12.454C30.8057 11.4649 29.1516 11.5998 27.7643 11.8695L27.0706 8.54248L14.158 10.3858ZM29.4184 19.4228L28.1378 13.3083C28.9381 13.1734 29.7385 13.1734 29.9519 13.6679C30.3788 14.7919 30.4322 16.5454 30.3788 17.7144C30.2721 18.3438 29.9519 18.9283 29.4184 19.4228ZM15.2785 11.2401L26.4303 9.57656L29.3116 23.2445C29.6318 24.6832 18.48 26.3467 18.1598 24.908L15.2785 11.2401Z" fill="#A1B8C7"/>
<path d="M26.8038 14.4323L16.8259 15.9159L18.5867 24.4134C18.8535 25.7173 28.8314 24.2336 28.5646 22.9297L26.8038 14.4323Z" fill="#FDB73E"/>
<path d="M13.1442 11.0152C12.9841 9.12689 15.8121 7.77808 17.893 8.5424C18.5867 6.92384 21.0412 6.92384 22.1083 7.73312C22.962 7.32848 24.8829 7.05872 25.8967 7.95792C27.9777 7.23856 29.7385 10.0261 26.4303 10.3408C21.6281 9.66641 16.2389 17.7592 16.2389 17.7592C15.3318 17.8941 14.1046 17.5344 14.3714 16.3205C13.8378 16.3655 12.9841 15.6012 13.1975 14.8818C11.0098 14.3872 11.1699 11.5098 13.1442 11.0152Z" fill="#D8D2B8"/>
<path d="M13.571 11.195C13.411 9.08191 16.7192 8.31759 18.2132 8.81215C18.7468 7.59823 20.8811 7.05871 22.1083 8.04783C22.7486 7.68815 24.7762 7.32847 25.7367 8.18271C27.9777 7.41839 29.0449 10.4307 25.9501 10.3858L26.8038 14.4322L19.5471 15.5112C19.4938 15.9608 18.7468 16.4104 17.8397 16.2755C17.9998 17.0399 17.0927 17.7143 16.2389 17.8042C15.2251 17.8941 14.4248 17.0848 14.8516 16.1407C13.8912 16.1407 13.4643 15.4213 13.6777 14.7919C11.5968 14.3423 11.5968 11.5547 13.571 11.195Z" fill="white"/>
<path d="M23.8158 15.7361C24.9363 15.5562 26.0568 16.1857 26.2169 17.0849C26.4303 18.0291 25.6299 18.8833 24.5094 19.0631C23.3889 19.243 22.2684 18.6135 22.1083 17.7143C21.8949 16.8151 22.6953 15.9159 23.8158 15.7361Z" fill="#FEE0AF"/>
<path d="M21.9957 21.8774C22.8664 21.748 23.456 21.0881 23.3126 20.4034C23.1693 19.7187 22.3473 19.2685 21.4767 19.3979C20.6061 19.5273 20.0165 20.1873 20.1598 20.872C20.3031 21.5566 21.1251 22.0068 21.9957 21.8774Z" fill="#FEE0AF"/>
<path d="M25.2156 22.1547C25.796 22.0686 26.1878 21.622 26.0907 21.1574C25.9935 20.6928 25.4442 20.386 24.8638 20.4722C24.2833 20.5583 23.8916 21.0048 23.9887 21.4695C24.0859 21.9341 24.6352 22.2409 25.2156 22.1547Z" fill="#FEE0AF"/>
<path d="M23.0154 22.8398C23.4423 22.7948 23.8158 22.9747 23.8691 23.3344C23.9225 23.6491 23.6557 23.9638 23.2822 24.0088C22.8553 24.0537 22.4818 23.8739 22.4285 23.5142C22.3218 23.2444 22.5885 22.9297 23.0154 22.8398Z" fill="#FEE0AF"/>
<path opacity="0.8" d="M5.46061 4.09131L4.7136 7.77804C3.16621 7.46332 1.35204 7.3734 0.925177 8.45245C0.28488 9.84621 -0.0886259 12.6337 0.0180902 14.0275C0.124806 15.4662 1.03189 17.0398 2.52592 17.984L1.77891 21.5808C1.35204 23.5141 15.5986 25.6272 16.0255 23.694L19.7072 6.20444L5.46061 4.09131ZM1.88562 14.3422C1.77891 13.0384 1.83226 11.1051 2.36584 9.89118C2.57928 9.35165 3.433 9.30669 4.34009 9.48653L2.89942 16.1856C2.31249 15.6461 1.93898 14.9717 1.88562 14.3422ZM15.3318 22.2103C15.0117 23.7839 2.73935 21.9855 3.11286 20.4119L6.26098 5.35019L18.5333 7.1486L15.3318 22.2103Z" fill="#A1B8C7"/>
<path d="M5.78078 10.6555L16.7192 12.2741L14.7983 21.6258C14.4781 23.0196 3.53974 21.401 3.85989 20.0072L5.78078 10.6555Z" fill="#FDB73E"/>
<path d="M20.8277 6.92382C20.9878 4.81069 17.893 3.37196 15.5986 4.18125C14.8516 2.4278 12.1303 2.38284 10.9565 3.327C9.99603 2.8774 7.8617 2.56268 6.79454 3.59676C4.50015 2.78748 2.57926 5.88973 6.20761 6.20446C11.5434 5.44013 17.4128 14.3872 17.4128 14.3872C18.4266 14.5221 19.7605 14.1175 19.4404 12.7686C20.0273 12.8586 20.9344 11.9594 20.7743 11.195C23.1221 10.6555 22.962 7.46334 20.8277 6.92382Z" fill="#D8D2B8"/>
<path d="M20.2941 7.14866C20.4542 4.81073 16.8259 3.95649 15.2251 4.54097C14.6382 3.23712 12.2904 2.60768 10.9031 3.68672C10.2095 3.28208 8.02178 2.87744 6.95462 3.82161C4.50015 3.01232 3.27292 6.29442 6.68783 6.24946L5.78074 10.7005L13.7844 11.8695C13.8378 12.364 14.6915 12.8586 15.652 12.7237C15.4385 13.578 16.4523 14.3423 17.4128 14.4322C18.48 14.5221 19.4404 13.6229 18.9068 12.6338C19.974 12.6338 20.4008 11.8245 20.1874 11.1501C22.4818 10.5656 22.4818 7.50834 20.2941 7.14866Z" fill="white"/>
<path d="M16.399 5.79989C16.5057 4.99061 15.7587 4.00148 13.9979 4.31621C13.7844 3.95652 13.3042 3.77668 12.5572 4.13636C13.4109 4.13636 13.6777 4.36117 13.8378 4.72085C15.5986 4.72085 15.7587 6.06965 15.7587 6.06965C15.7587 6.06965 16.5057 6.11461 16.7191 6.9239C17.0393 6.56422 16.9859 6.02469 16.399 5.79989ZM17.3594 9.12695C16.0788 8.09286 14.7982 8.54246 14.3714 9.26183C13.7311 9.17191 13.3576 9.57655 13.3042 9.98119C14.0512 9.39671 14.6915 9.71143 14.6915 9.71143C14.6915 9.71143 15.7053 8.67734 17.1993 9.48663C17.5728 9.21687 17.9464 9.21687 18.64 9.57655C18.2665 8.99207 17.7863 8.94711 17.3594 9.12695Z" fill="#D8D2B8"/>
<path d="M9.03558 12.0942C7.75499 11.9144 6.58111 12.5888 6.36768 13.5779C6.15425 14.612 7.00797 15.5562 8.28857 15.781C9.56916 15.9608 10.743 15.2864 10.9565 14.2973C11.1699 13.2632 10.3162 12.319 9.03558 12.0942Z" fill="#FEE0AF"/>
<path d="M13.0604 17.7546C13.2187 16.9965 12.5706 16.2668 11.6128 16.1248C10.6551 15.9828 9.75033 16.4822 9.59202 17.2404C9.43372 17.9985 10.0818 18.7281 11.0396 18.8701C11.9973 19.0121 12.9021 18.5127 13.0604 17.7546Z" fill="#FEE0AF"/>
<path d="M7.86171 17.3546C7.22141 17.2647 6.63447 17.5794 6.52776 18.1189C6.42104 18.6135 6.8479 19.108 7.4882 19.198C8.1285 19.2879 8.71544 18.9732 8.82215 18.4336C8.92887 17.9391 8.502 17.4445 7.86171 17.3546ZM9.94267 19.9623C9.51581 19.9173 9.08894 20.1421 8.98223 20.5018C8.92887 20.8615 9.19566 21.1762 9.62252 21.2661C10.0494 21.3111 10.4763 21.0863 10.583 20.7266C10.6897 20.3669 10.4229 20.0073 9.94267 19.9623Z" fill="#FEE0AF"/>
<path d="M22.6953 5.75491L27.8176 2.02321L25.3632 0.539522L22.6953 5.75491ZM25.043 6.51923L29.8986 7.41843V5.26034L25.043 6.51923ZM20.9878 4.36114L22.215 0H19.6005L20.9878 4.36114Z" fill="#42ADE2"/>
</svg>
