<svg width="25" height="24" viewBox="0 0 25 24" fill="none" xmlns="http://www.w3.org/2000/svg">
<path d="M24.0002 22.2651H0.867477C0.393256 22.2651 0 22.6583 0 23.1325C0 23.6068 0.393256 24 0.867477 24H24.0002C24.4744 24 24.8677 23.6068 24.8677 23.1325C24.8677 22.6583 24.4744 22.2651 24.0002 22.2651Z" fill="#240046"/>
<path d="M18.2171 0H6.65071C3.1808 0 2.02417 2.07038 2.02417 4.62654V23.1327H8.96398V16.1235C8.96398 15.5221 9.44977 15.0363 10.0512 15.0363H14.8281C15.418 15.0363 15.9154 15.5221 15.9154 16.1235V23.1327H22.8552V4.62654C22.8436 2.07038 21.687 0 18.2171 0ZM15.3255 8.38561H13.3014V10.4097C13.3014 10.8839 12.9081 11.2772 12.4339 11.2772C11.9597 11.2772 11.5664 10.8839 11.5664 10.4097V8.38561H9.5423C9.06808 8.38561 8.67482 7.99236 8.67482 7.51814C8.67482 7.04391 9.06808 6.65066 9.5423 6.65066H11.5664V4.62654C11.5664 4.15232 11.9597 3.75907 12.4339 3.75907C12.9081 3.75907 13.3014 4.15232 13.3014 4.62654V6.65066H15.3255C15.7997 6.65066 16.193 7.04391 16.193 7.51814C16.193 7.99236 15.7997 8.38561 15.3255 8.38561Z" fill="#240046"/>
</svg>
