<svg width="104" height="109" viewBox="0 0 104 109" fill="none" xmlns="http://www.w3.org/2000/svg">
<mask id="mask0_1_95" style="mask-type:luminance" maskUnits="userSpaceOnUse" x="6" y="7" width="92" height="95">
<path d="M6.48495 7.62043H97.6776V101.06H6.48495V7.62043Z" fill="white"/>
</mask>
<g mask="url(#mask0_1_95)">
<path d="M86.7439 20.5973H76.9583V10.3391L86.7439 20.5973ZM22.3593 48.6947V16.0593L15.1386 17.9217L22.3593 48.6947ZM6.48495 24.3852L20.0863 54.8948L12.2622 21.5592L6.48495 24.3852ZM34.6446 101.042L45.7969 98.1636H33.97L34.6446 101.042ZM75.1482 24.3931H89.3053V94.3699H25.9804V7.65459H73.3417V22.496C73.3417 22.62 73.3537 22.7435 73.3768 22.8655C73.3999 22.9875 73.434 23.1057 73.4796 23.2208C73.5247 23.336 73.5804 23.4448 73.6461 23.5483C73.7123 23.6519 73.787 23.7476 73.8708 23.8359C73.9546 23.9236 74.0458 24.0025 74.1446 24.0719C74.243 24.1407 74.3473 24.1996 74.4566 24.2474C74.5659 24.2953 74.6793 24.3316 74.7957 24.3557C74.912 24.3804 75.0294 24.3931 75.1482 24.3931ZM31.4011 23.9594C31.4011 24.084 31.4127 24.2075 31.4357 24.33C31.4588 24.4519 31.4929 24.5707 31.5385 24.6858C31.5842 24.801 31.6399 24.9103 31.7056 25.0144C31.7718 25.1179 31.847 25.2136 31.9308 25.3019C32.015 25.3902 32.1063 25.4685 32.2051 25.5379C32.3039 25.6073 32.4082 25.6657 32.5181 25.7135C32.6279 25.7613 32.7412 25.7971 32.8581 25.8213C32.9745 25.846 33.0923 25.8581 33.2112 25.8581H48.5875C48.7044 25.8549 48.8202 25.8407 48.9346 25.8139C49.0489 25.7876 49.1603 25.7498 49.2676 25.7009C49.3749 25.652 49.4767 25.5926 49.573 25.5232C49.6698 25.4533 49.7591 25.3745 49.8409 25.2867C49.9226 25.1989 49.9958 25.1037 50.06 25.0007C50.1242 24.8982 50.1784 24.7899 50.2225 24.6764C50.2667 24.5623 50.3003 24.4456 50.3228 24.3247C50.3449 24.2043 50.3564 24.0829 50.3564 23.9599C50.3564 23.8374 50.3449 23.7155 50.3228 23.5951C50.3003 23.4747 50.2667 23.3575 50.2225 23.2434C50.1784 23.1299 50.1242 23.0216 50.06 22.9191C49.9958 22.8166 49.9226 22.7209 49.8409 22.6332C49.7591 22.5454 49.6698 22.4665 49.573 22.3971C49.4767 22.3272 49.3749 22.2678 49.2676 22.2189C49.1603 22.1701 49.0489 22.1322 48.9346 22.1059C48.8202 22.0796 48.7044 22.0649 48.5875 22.0623H33.2112C33.0923 22.0623 32.9745 22.0744 32.8581 22.0986C32.7412 22.1227 32.6284 22.159 32.5186 22.2063C32.4087 22.2542 32.3044 22.3125 32.2056 22.3819C32.1068 22.4513 32.015 22.5296 31.9313 22.6179C31.847 22.7057 31.7723 22.8019 31.7061 22.9054C31.6399 23.009 31.5842 23.1183 31.539 23.2335C31.4934 23.3486 31.4588 23.4674 31.4357 23.5893C31.4127 23.7113 31.4011 23.8348 31.4011 23.9594ZM31.4011 31.7875C31.4006 31.9126 31.4122 32.0361 31.4352 32.158C31.4583 32.2805 31.4924 32.3993 31.538 32.515C31.5832 32.6301 31.6389 32.7394 31.7051 32.8435C31.7713 32.9471 31.846 33.0432 31.9303 33.1316C32.014 33.2193 32.1058 33.2982 32.2046 33.3676C32.3034 33.437 32.4077 33.4958 32.5176 33.5437C32.6279 33.591 32.7407 33.6273 32.8576 33.6514C32.9745 33.6761 33.0923 33.6882 33.2112 33.6882H60.9837C61.101 33.6851 61.2164 33.6709 61.3312 33.6441C61.4456 33.6178 61.5564 33.5799 61.6637 33.5311C61.7711 33.4822 61.8729 33.4228 61.9697 33.3534C62.066 33.2835 62.1553 33.2046 62.237 33.1168C62.3188 33.0291 62.392 32.9339 62.4562 32.8309C62.5204 32.7284 62.5745 32.6201 62.6187 32.5066C62.6628 32.393 62.6964 32.2758 62.719 32.1554C62.7416 32.0345 62.7526 31.9131 62.7526 31.7901C62.7526 31.6676 62.7416 31.5457 62.719 31.4253C62.6964 31.3049 62.6628 31.1877 62.6187 31.0741C62.5745 30.9601 62.5204 30.8518 62.4562 30.7493C62.392 30.6468 62.3188 30.5511 62.237 30.4633C62.1553 30.3755 62.066 30.2967 61.9697 30.2273C61.8729 30.1574 61.7711 30.098 61.6637 30.0491C61.5564 30.0002 61.4456 29.9624 61.3312 29.9361C61.2164 29.9098 61.101 29.8951 60.9837 29.8925H33.2112C33.0923 29.8925 32.975 29.9046 32.8581 29.9287C32.7417 29.9529 32.6289 29.9887 32.5191 30.0365C32.4092 30.0843 32.3049 30.1427 32.2061 30.2115C32.1073 30.2809 32.016 30.3593 31.9318 30.4476C31.848 30.5353 31.7728 30.631 31.7066 30.7346C31.6409 30.8381 31.5847 30.9469 31.5395 31.0621C31.4939 31.1772 31.4593 31.2954 31.4362 31.4179C31.4127 31.5399 31.4011 31.6634 31.4011 31.7875ZM83.8846 77.11C83.8846 76.9855 83.8731 76.8619 83.85 76.74C83.8264 76.618 83.7923 76.4992 83.7467 76.3841C83.7011 76.269 83.6454 76.1602 83.5797 76.0566C83.5135 75.9531 83.4382 75.8569 83.3545 75.7691C83.2702 75.6808 83.1789 75.6025 83.0801 75.5331C82.9813 75.4642 82.877 75.4059 82.7672 75.358C82.6573 75.3102 82.5445 75.2744 82.4276 75.2503C82.3113 75.2256 82.1934 75.2135 82.0745 75.2135H66.4033C66.2825 75.2108 66.1631 75.2203 66.0442 75.2424C65.9254 75.2645 65.8095 75.2986 65.6972 75.3454C65.5853 75.3917 65.4785 75.449 65.3772 75.5178C65.2759 75.5867 65.1821 75.665 65.0953 75.7538C65.009 75.8422 64.9318 75.9383 64.8641 76.043C64.7964 76.1476 64.7387 76.2585 64.6921 76.3746C64.6449 76.4913 64.6098 76.6117 64.5857 76.7358C64.5622 76.8598 64.5501 76.9849 64.5501 77.1116C64.5501 77.2383 64.5622 77.3634 64.5857 77.4875C64.6098 77.6115 64.6449 77.7319 64.6921 77.8481C64.7387 77.9648 64.7964 78.0757 64.8641 78.1803C64.9318 78.2849 65.009 78.3811 65.0953 78.4694C65.1821 78.5582 65.2759 78.6365 65.3772 78.7054C65.4785 78.7743 65.5853 78.8316 65.6972 78.8778C65.8095 78.9241 65.9254 78.9588 66.0442 78.9809C66.1631 79.0029 66.2825 79.0124 66.4033 79.0098H82.0745C82.1934 79.0098 82.3113 78.9977 82.4281 78.973C82.545 78.9488 82.6583 78.913 82.7682 78.8652C82.878 78.8174 82.9823 78.759 83.0811 78.6896C83.1799 78.6202 83.2717 78.5414 83.3555 78.4536C83.4398 78.3653 83.515 78.2691 83.5807 78.1656C83.6469 78.0615 83.7026 77.9521 83.7477 77.837C83.7933 77.7219 83.8274 77.6031 83.8505 77.4806C83.8736 77.3581 83.8851 77.2346 83.8846 77.11ZM83.8846 68.4073C83.8846 68.2827 83.8731 68.1592 83.85 68.0372C83.8269 67.9147 83.7923 67.7959 83.7472 67.6808C83.7016 67.5657 83.6459 67.4564 83.5797 67.3528C83.514 67.2493 83.4387 67.1536 83.3545 67.0653C83.2707 66.9775 83.1789 66.8986 83.0801 66.8298C82.9813 66.7604 82.877 66.702 82.7672 66.6542C82.6578 66.6064 82.5445 66.5706 82.4276 66.5465C82.3113 66.5218 82.1934 66.5097 82.0745 66.5097H33.2112C33.0938 66.5128 32.9785 66.527 32.8641 66.5538C32.7493 66.5801 32.6384 66.6179 32.5311 66.6668C32.4238 66.7157 32.322 66.7751 32.2252 66.8445C32.1289 66.9144 32.0396 66.9933 31.9578 67.081C31.8761 67.1688 31.8029 67.264 31.7387 67.367C31.6745 67.4695 31.6203 67.5778 31.5762 67.6913C31.532 67.8049 31.4984 67.9221 31.4759 68.0425C31.4533 68.1634 31.4422 68.2848 31.4422 68.4078C31.4422 68.5303 31.4533 68.6522 31.4759 68.7726C31.4984 68.893 31.532 69.0102 31.5762 69.1237C31.6203 69.2378 31.6745 69.3461 31.7387 69.4486C31.8029 69.5511 31.8761 69.6468 31.9578 69.7346C32.0396 69.8223 32.1289 69.9012 32.2252 69.9706C32.322 70.0405 32.4238 70.0999 32.5311 70.1488C32.6384 70.1977 32.7493 70.2355 32.8641 70.2618C32.9785 70.2881 33.0938 70.3028 33.2112 70.3054H82.0745C82.1934 70.3054 82.3113 70.2933 82.4281 70.2691C82.5445 70.245 82.6578 70.2087 82.7677 70.1609C82.8775 70.1136 82.9818 70.0547 83.0806 69.9858C83.1795 69.9164 83.2707 69.8376 83.355 69.7493C83.4392 69.6615 83.514 69.5653 83.5802 69.4617C83.6459 69.3582 83.7021 69.2489 83.7472 69.1337C83.7928 69.0186 83.8269 68.8998 83.85 68.7773C83.8736 68.6554 83.8851 68.5319 83.8846 68.4073ZM83.8846 59.7056C83.8851 59.5805 83.8736 59.4575 83.85 59.335C83.8269 59.2125 83.7928 59.0942 83.7472 58.9791C83.7021 58.8635 83.6459 58.7541 83.5802 58.6506C83.514 58.547 83.4392 58.4514 83.355 58.363C83.2707 58.2747 83.1795 58.1959 83.0806 58.127C82.9818 58.0576 82.8775 57.9993 82.7677 57.9515C82.6578 57.9036 82.5445 57.8679 82.4281 57.8432C82.3113 57.819 82.1934 57.8069 82.0745 57.8069H33.2112C33.0938 57.8095 32.9785 57.8242 32.8641 57.8505C32.7493 57.8773 32.6384 57.9147 32.5311 57.9641C32.4238 58.013 32.322 58.0724 32.2252 58.1417C32.1289 58.2117 32.0396 58.2905 31.9578 58.3783C31.8761 58.4661 31.8029 58.5612 31.7387 58.6637C31.6745 58.7667 31.6203 58.875 31.5762 58.9886C31.532 59.1021 31.4984 59.2193 31.4759 59.3397C31.4533 59.4606 31.4422 59.582 31.4422 59.705C31.4422 59.8275 31.4533 59.9495 31.4759 60.0699C31.4984 60.1902 31.532 60.3074 31.5762 60.421C31.6203 60.5351 31.6745 60.6428 31.7387 60.7458C31.8029 60.8483 31.8761 60.9435 31.9578 61.0313C32.0396 61.1196 32.1289 61.1979 32.2252 61.2678C32.322 61.3377 32.4238 61.3966 32.5311 61.446C32.6384 61.4949 32.7493 61.5322 32.8641 61.559C32.9785 61.5853 33.0938 61.6 33.2112 61.6027H82.0745C82.1934 61.6027 82.3113 61.5906 82.4281 61.5664C82.5445 61.5422 82.6578 61.5065 82.7677 61.4586C82.8775 61.4108 82.9818 61.3525 83.0806 61.2831C83.1795 61.2142 83.2707 61.1354 83.355 61.0476C83.4387 60.9593 83.514 60.8636 83.5802 60.7595C83.6459 60.656 83.7021 60.5466 83.7472 60.4315C83.7928 60.3164 83.8269 60.1976 83.85 60.0756C83.8736 59.9532 83.8851 59.8302 83.8846 59.7056ZM83.8846 51.0023C83.8846 50.8777 83.8731 50.7547 83.85 50.6322C83.8269 50.5103 83.7923 50.3915 83.7472 50.2764C83.7016 50.1612 83.6459 50.0519 83.5797 49.9483C83.5135 49.8448 83.4387 49.7491 83.3545 49.6613C83.2707 49.573 83.1789 49.4947 83.0801 49.4253C82.9813 49.3559 82.877 49.2976 82.7672 49.2503C82.6573 49.2024 82.5445 49.1667 82.4276 49.1425C82.3113 49.1178 82.1934 49.1057 82.0745 49.1062H33.2112C33.0938 49.1089 32.9785 49.1236 32.8641 49.1499C32.7493 49.1762 32.6384 49.214 32.5311 49.2629C32.4238 49.3118 32.322 49.3712 32.2252 49.4411C32.1289 49.5105 32.0396 49.5893 31.9578 49.6771C31.8761 49.7649 31.8029 49.8606 31.7387 49.9631C31.6745 50.0656 31.6203 50.1739 31.5762 50.2879C31.532 50.4015 31.4984 50.5187 31.4759 50.6391C31.4533 50.7594 31.4422 50.8814 31.4422 51.0039C31.4422 51.1269 31.4533 51.2483 31.4759 51.3692C31.4984 51.4896 31.532 51.6068 31.5762 51.7203C31.6203 51.8339 31.6745 51.9422 31.7387 52.0447C31.8029 52.1477 31.8761 52.2428 31.9578 52.3306C32.0396 52.4184 32.1289 52.4972 32.2252 52.5672C32.322 52.6365 32.4238 52.6959 32.5311 52.7448C32.6384 52.7937 32.7493 52.8316 32.8641 52.8578C32.9785 52.8847 33.0938 52.8988 33.2112 52.902H82.0745C82.1934 52.902 82.3113 52.8899 82.4281 52.8652C82.5445 52.841 82.6578 52.8053 82.7677 52.7575C82.8775 52.7096 82.9823 52.6513 83.0811 52.5819C83.1799 52.5125 83.2712 52.4336 83.3555 52.3453C83.4392 52.257 83.5145 52.1614 83.5807 52.0578C83.6464 51.9537 83.7021 51.8444 83.7477 51.7293C83.7928 51.6141 83.8274 51.4953 83.8505 51.3729C83.8736 51.2504 83.8851 51.1269 83.8846 51.0023ZM82.0745 40.4019H33.2112C33.0938 40.4051 32.9785 40.4198 32.8636 40.4461C32.7493 40.4723 32.6384 40.5102 32.5311 40.5591C32.4238 40.608 32.322 40.6674 32.2252 40.7373C32.1289 40.8067 32.0396 40.8855 31.9578 40.9733C31.8761 41.0611 31.8029 41.1562 31.7387 41.2593C31.6745 41.3618 31.6203 41.47 31.5762 41.5836C31.532 41.6976 31.4984 41.8149 31.4759 41.9352C31.4533 42.0556 31.4422 42.177 31.4422 42.3C31.4422 42.4231 31.4533 42.5445 31.4759 42.6649C31.4984 42.7858 31.532 42.9025 31.5762 43.0165C31.6203 43.1301 31.6745 43.2383 31.7387 43.3409C31.8029 43.4439 31.8761 43.539 31.9578 43.6268C32.0396 43.7146 32.1289 43.7934 32.2252 43.8633C32.322 43.9327 32.4238 43.9921 32.5311 44.041C32.6384 44.0899 32.7493 44.1278 32.8636 44.154C32.9785 44.1803 33.0938 44.195 33.2112 44.1982H82.0745C82.1919 44.195 82.3078 44.1803 82.4221 44.154C82.5365 44.1278 82.6473 44.0899 82.7546 44.041C82.862 43.9921 82.9643 43.9327 83.0606 43.8633C83.1569 43.7934 83.2462 43.7146 83.3279 43.6268C83.4102 43.539 83.4829 43.4439 83.5471 43.3409C83.6113 43.2383 83.6654 43.1301 83.7101 43.0165C83.7542 42.9025 83.7873 42.7858 83.8099 42.6649C83.8325 42.5445 83.8435 42.4231 83.8435 42.3C83.8435 42.177 83.8325 42.0556 83.8099 41.9352C83.7873 41.8143 83.7542 41.6976 83.7101 41.5836C83.6654 41.47 83.6113 41.3618 83.5471 41.2593C83.4829 41.1562 83.4102 41.0611 83.3279 40.9733C83.2462 40.8855 83.1569 40.8067 83.0606 40.7373C82.9643 40.6674 82.862 40.608 82.7546 40.5591C82.6473 40.5102 82.5365 40.4723 82.4221 40.4461C82.3078 40.4198 82.1919 40.4051 82.0745 40.4019ZM92.9264 86.0125L95.3338 85.3954L92.9264 75.1315V86.0125ZM95.0565 68.3179L96.5646 74.743L97.6776 74.1969L95.0565 68.3179Z" fill="black"/>
</g>
<path d="M51.9985 51.6716C51.9273 51.6716 51.8711 51.6506 51.83 51.6086C51.7884 51.5665 51.7678 51.5113 51.7678 51.4425C51.7678 51.3741 51.7884 51.3179 51.83 51.2743C51.8711 51.2296 51.9273 51.207 51.9985 51.207C52.0717 51.207 52.1289 51.228 52.169 51.27C52.2102 51.3121 52.2312 51.3683 52.2312 51.4383C52.2312 51.5071 52.2102 51.5634 52.169 51.6065C52.1274 51.6501 52.0707 51.6716 51.9985 51.6716Z" fill="white"/>
</svg>
