<svg width="53" height="50" viewBox="0 0 53 50" fill="none" xmlns="http://www.w3.org/2000/svg">
<mask id="mask0_18_2" style="mask-type:luminance" maskUnits="userSpaceOnUse" x="14" y="5" width="26" height="35">
<path d="M14.6568 5.66768H39.3247V39.4444H14.6568V5.66768Z" fill="white"/>
</mask>
<g mask="url(#mask0_18_2)">
<path d="M26.9744 22.943C23.1655 22.943 20.0785 20.0301 20.0785 16.4369C20.0785 12.8441 23.1655 9.93129 26.9744 9.93129C30.783 9.93129 33.8703 12.8441 33.8703 16.4369C33.8703 20.0301 30.783 22.943 26.9744 22.943ZM26.9744 5.66214C20.1828 5.66214 14.677 10.8562 14.677 17.2635C14.677 23.6707 26.9744 39.4112 26.9744 39.4112C26.9744 39.4112 39.2718 23.6707 39.2718 17.2635C39.2718 10.8562 33.7661 5.66214 26.9744 5.66214Z" fill="#FF6B46"/>
</g>
<mask id="mask1_18_2" style="mask-type:luminance" maskUnits="userSpaceOnUse" x="11" y="35" width="32" height="9">
<path d="M11.7778 35.7407H42.1981V43.1677H11.7778V35.7407Z" fill="white"/>
</mask>
<g mask="url(#mask1_18_2)">
<path d="M37.407 36.5656C35.708 36.197 33.6717 35.9291 31.4527 35.7755C31.1626 36.1849 30.8837 36.5743 30.6189 36.9401C33.0596 37.0778 35.2942 37.3534 37.1184 37.7496C40.2047 38.4194 40.88 39.1616 40.88 39.3907C40.88 39.62 40.2047 40.3622 37.1184 41.032C34.4163 41.6184 30.8137 41.9416 26.9744 41.9416C23.1349 41.9416 19.5325 41.6184 16.8304 41.032C13.7441 40.3622 13.0688 39.62 13.0688 39.3907C13.0688 39.1616 13.7441 38.4194 16.8304 37.7496C18.6699 37.35 20.9273 37.073 23.3915 36.9367C23.1267 36.5705 22.8478 36.181 22.5575 35.7716C20.3144 35.9242 18.2566 36.1933 16.5418 36.5656C13.3829 37.2512 11.7809 38.2022 11.7809 39.3907C11.7809 40.5794 13.3829 41.5299 16.5418 42.216C19.3357 42.8224 23.0408 43.1563 26.9744 43.1563C30.908 43.1563 34.6128 42.8224 37.407 42.216C40.5659 41.5299 42.1677 40.5794 42.1677 39.3907C42.1677 38.2022 40.5659 37.2512 37.407 36.5656Z" fill="#FF6B46"/>
</g>
<path d="M27.732 17.4991C27.6957 17.4991 27.667 17.4895 27.6461 17.4702C27.6249 17.4509 27.6144 17.4256 27.6144 17.394C27.6144 17.3626 27.6249 17.3368 27.6461 17.3168C27.667 17.2963 27.6957 17.286 27.732 17.286C27.7693 17.286 27.7984 17.2956 27.8189 17.3149C27.8398 17.3342 27.8505 17.36 27.8505 17.3921C27.8505 17.4236 27.8398 17.4494 27.8189 17.4692C27.7976 17.4892 27.7688 17.4991 27.732 17.4991Z" fill="white"/>
</svg>
